{
.appVersion = "1009";
DisplayStrings = (
"HNHTIHLHEHDHFHOHHSHWHU\012CGSJ\012Hynnhnooongn\012HHQHOQOOHH\012ni.n:n;n,HNM\012BPR\012h(h[{ho-oh}])(p)\012JOZEFg\012HheAVH}\012HMHWH\012HXHKH",
"ABCDEFGHIJKLMNOPQRSTUVWXYZ\012Hnnopka \012nnsnosonv\012HHSHOSOH\012BRPgjyn/y.001 nvn\012najvacsi\012bdpqg",
"and et I feel that I never was a greater artist than now. When, while the lovel valle teems with vapour around me,\012gym\012gpy"
);
copyright = "Copyright ￂﾩ 2016 by William Montrose, Slￃﾡva Jevￄﾍinovￃﾡ. All rights reserved.";
date = "2016-08-04 16:37:45 +0000";
designer = "William Montrose, Slￃﾡva Jevￄﾍinovￃﾡ";
familyName = "Universal Text A";
features = (
{
code = "sub y by y.001;";
name = ss01;
}
);
fontMaster = (
{
alignmentZones = (
"{730, 15}",
"{670, 15}",
"{514, 15}",
"{-15, 15}",
"{-210, 15}"
);
ascender = 730;
capHeight = 670;
descender = -195;
id = "EAE779D9-56D9-4706-9B6E-8BCD47BDA60B";
verticalStems = (
55
);
weight = Light;
weightValue = 55;
xHeight = 514;
},
{
alignmentZones = (
"{730, 15}",
"{670, 15}",
"{525, 15}",
"{-15, 15}",
"{-210, 15}"
);
ascender = 730;
capHeight = 670;
customParameters = (
{
name = paramArea;
value = "385";
},
{
name = paramDepth;
value = "14";
},
{
name = paramOver;
value = "3";
}
);
descender = -195;
guideLines = (
{
position = "{44, -210}";
}
);
id = "C76CAC8E-7AD6-478C-8F7E-02FEF6F1EA84";
userData = {
GSOffsetHorizontal = 19;
GSOffsetMakeStroke = 1;
GSOffsetVertical = 16;
};
verticalStems = (
140
);
weightValue = 140;
xHeight = 525;
},
{
alignmentZones = (
"{730, 15}",
"{670, 15}",
"{535, 15}",
"{-15, 15}",
"{-210, 15}"
);
ascender = 730;
capHeight = 670;
descender = -195;
id = "2D8239A6-199F-4292-A93F-56491AD13939";
verticalStems = (
215
);
weight = Bold;
weightValue = 215;
xHeight = 535;
}
);
glyphs = (
{
color = 9;
glyphname = A;
lastChange = "2017-06-29 17:35:38 +0000";
layers = (
{
background = {
paths = (
{
closed = 1;
nodes = (
"5 0 LINE",
"163 0 LINE",
"340 559 LINE",
"375 559 LINE",
"375 670 LINE",
"240 670 LINE"
);
},
{
closed = 1;
nodes = (
"312 670 LINE",
"524 0 LINE",
"682 0 LINE",
"447 670 LINE"
);
},
{
closed = 1;
nodes = (
"506 122 LINE",
"506 237 LINE",
"168 237 LINE",
"168 122 LINE"
);
}
);
};
layerId = "C76CAC8E-7AD6-478C-8F7E-02FEF6F1EA84";
paths = (
{
closed = 1;
nodes = (
"506 122 LINE",
"506 237 LINE",
"168 237 LINE",
"168 122 LINE"
);
},
{
closed = 1;
nodes = (
"447 670 LINE",
"240 670 LINE",
"5 0 LINE",
"163 0 LINE",
"340 559 LINE",
"347 559 LINE",
"524 0 LINE",
"682 0 LINE"
);
}
);
width = 687;
},
{
background = {
paths = (
{
closed = 1;
nodes = (
"570 97 LINE",
"570 252 LINE",
"173 252 LINE",
"173 97 LINE"
);
},
{
closed = 1;
nodes = (
"536 670 LINE",
"209 670 LINE",
"5 0 LINE",
"240 0 LINE",
"369 524 LINE",
"376 524 LINE",
"505 0 LINE",
"740 0 LINE"
);
}
);
};
layerId = "2D8239A6-199F-4292-A93F-56491AD13939";
paths = (
{
closed = 1;
nodes = (
"559 97 LINE",
"559 252 LINE",
"168 252 LINE",
"168 97 LINE"
);
},
{
closed = 1;
nodes = (
"528 670 LINE",
"200 670 LINE",
"5 0 LINE",
"240 0 LINE",
"361 524 LINE",
"367 524 LINE",
"488 0 LINE",
"723 0 LINE"
);
}
);
width = 728;
userData = {
RMXScaler = {
width = 97;
};
};
},
{
background = {
paths = (
{
closed = 1;
nodes = (
"525 171 LINE",
"525 220 LINE",
"130 220 LINE",
"130 171 LINE"
);
},
{
closed = 1;
nodes = (
"360 670 LINE",
"287 670 LINE",
"18 0 LINE",
"82 0 LINE",
"319 611 LINE",
"323 611 LINE",
"565 0 LINE",
"629 0 LINE"
);
}
);
};
layerId = "EAE779D9-56D9-4706-9B6E-8BCD47BDA60B";
paths = (
{
closed = 1;
nodes = (
"616 171 LINE",
"616 220 LINE",
"147 220 LINE",
"147 171 LINE"
);
},
{
closed = 1;
nodes = (
"411 670 LINE",
"340 670 LINE",
"22 0 LINE",
"86 0 LINE",
"370 611 LINE",
"374 611 LINE",
"665 0 LINE",
"729 0 LINE"
);
}
);
width = 751;
userData = {
RMXScaler = {
width = 108;
};
};
}
);
unicode = 0041;
userData = {
RMXScaler = {
source = A;
};
};
},
{
color = 9;
glyphname = B;
lastChange = "2017-06-29 17:35:38 +0000";
layers = (
{
background = {
paths = (
{
closed = 1;
nodes = (
"220 0 LINE",
"220 670 LINE",
"75 670 LINE",
"75 0 LINE"
);
},
{
closed = 1;
nodes = (
"202 388 LINE",
"202 325 LINE",
"406 325 LINE SMOOTH",
"571 325 OFFCURVE",
"632 371 OFFCURVE",
"632 499 CURVE SMOOTH",
"632 603 OFFCURVE",
"581 670 OFFCURVE",
"416 670 CURVE SMOOTH",
"202 670 LINE",
"202 552 LINE",
"385 552 LINE SMOOTH",
"452 552 OFFCURVE",
"484 537 OFFCURVE",
"484 469 CURVE SMOOTH",
"484 408 OFFCURVE",
"452 388 OFFCURVE",
"385 388 CURVE SMOOTH"
);
},
{
closed = 1;
nodes = (
"469 282 OFFCURVE",
"501 262 OFFCURVE",
"501 201 CURVE SMOOTH",
"501 133 OFFCURVE",
"469 118 OFFCURVE",
"402 118 CURVE SMOOTH",
"202 118 LINE",
"202 0 LINE",
"423 0 LINE SMOOTH",
"588 0 OFFCURVE",
"649 67 OFFCURVE",
"649 175 CURVE SMOOTH",
"649 299 OFFCURVE",
"588 345 OFFCURVE",
"423 345 CURVE SMOOTH",
"202 345 LINE",
"202 282 LINE",
"402 282 LINE SMOOTH"
);
}
);
};
layerId = "C76CAC8E-7AD6-478C-8F7E-02FEF6F1EA84";
paths = (
{
closed = 1;
nodes = (
"220 0 LINE",
"220 670 LINE",
"75 670 LINE",
"75 0 LINE"
);
},
{
closed = 1;
nodes = (
"523 340 LINE",
"598 362 OFFCURVE",
"632 409 OFFCURVE",
"632 499 CURVE SMOOTH",
"632 603 OFFCURVE",
"581 670 OFFCURVE",
"416 670 CURVE SMOOTH",
"202 670 LINE",
"202 552 LINE",
"385 552 LINE SMOOTH",
"452 552 OFFCURVE",
"484 537 OFFCURVE",
"484 469 CURVE SMOOTH",
"484 408 OFFCURVE",
"452 388 OFFCURVE",
"385 388 CURVE SMOOTH",
"202 388 LINE",
"202 282 LINE",
"402 282 LINE SMOOTH",
"469 282 OFFCURVE",
"501 262 OFFCURVE",
"501 201 CURVE SMOOTH",
"501 133 OFFCURVE",
"469 118 OFFCURVE",
"402 118 CURVE SMOOTH",
"202 118 LINE",
"202 0 LINE",
"423 0 LINE SMOOTH",
"588 0 OFFCURVE",
"649 67 OFFCURVE",
"649 175 CURVE SMOOTH",
"649 270 OFFCURVE",
"613 316 OFFCURVE",
"523 334 CURVE"
);
}
);
width = 699;
},
{
background = {
paths = (
{
closed = 1;
nodes = (
"290 0 LINE",
"290 670 LINE",
"75 670 LINE",
"75 0 LINE"
);
},
{
closed = 1;
nodes = (
"576 340 LINE",
"653 362 OFFCURVE",
"687 409 OFFCURVE",
"687 499 CURVE SMOOTH",
"687 603 OFFCURVE",
"606 670 OFFCURVE",
"438 670 CURVE SMOOTH",
"272 670 LINE",
"272 507 LINE",
"400 507 LINE SMOOTH",
"447 507 OFFCURVE",
"469 497 OFFCURVE",
"469 449 CURVE SMOOTH",
"469 408 OFFCURVE",
"447 391 OFFCURVE",
"400 391 CURVE SMOOTH",
"272 391 LINE",
"272 279 LINE",
"417 279 LINE SMOOTH",
"464 279 OFFCURVE",
"486 262 OFFCURVE",
"486 221 CURVE SMOOTH",
"486 173 OFFCURVE",
"464 163 OFFCURVE",
"417 163 CURVE SMOOTH",
"272 163 LINE",
"272 0 LINE",
"455 0 LINE SMOOTH",
"623 0 OFFCURVE",
"704 67 OFFCURVE",
"704 175 CURVE SMOOTH",
"704 270 OFFCURVE",
"663 316 OFFCURVE",
"576 334 CURVE"
);
}
);
};
layerId = "2D8239A6-199F-4292-A93F-56491AD13939";
paths = (
{
closed = 1;
nodes = (
"288 0 LINE",
"288 670 LINE",
"73 670 LINE",
"73 0 LINE"
);
},
{
closed = 1;
nodes = (
"564 340 LINE",
"638 362 OFFCURVE",
"671 409 OFFCURVE",
"671 499 CURVE SMOOTH",
"671 603 OFFCURVE",
"590 670 OFFCURVE",
"427 670 CURVE SMOOTH",
"270 670 LINE",
"270 507 LINE",
"390 507 LINE SMOOTH",
"433 507 OFFCURVE",
"454 497 OFFCURVE",
"454 449 CURVE SMOOTH",
"454 408 OFFCURVE",
"433 391 OFFCURVE",
"390 391 CURVE SMOOTH",
"270 391 LINE",
"270 279 LINE",
"406 279 LINE SMOOTH",
"450 279 OFFCURVE",
"470 262 OFFCURVE",
"470 221 CURVE SMOOTH",
"470 173 OFFCURVE",
"450 163 OFFCURVE",
"406 163 CURVE SMOOTH",
"270 163 LINE",
"270 0 LINE",
"444 0 LINE SMOOTH",
"608 0 OFFCURVE",
"688 67 OFFCURVE",
"688 175 CURVE SMOOTH",
"688 270 OFFCURVE",
"648 316 OFFCURVE",
"564 334 CURVE"
);
}
);
width = 731;
userData = {
RMXScaler = {
width = 97;
};
};
},
{
background = {
paths = (
{
closed = 1;
nodes = (
"167 0 LINE",
"167 670 LINE",
"107 670 LINE",
"107 0 LINE"
);
},
{
closed = 1;
nodes = (
"489 338 LINE",
"562 357 OFFCURVE",
"603 404 OFFCURVE",
"603 499 CURVE SMOOTH",
"603 603 OFFCURVE",
"546 670 OFFCURVE",
"396 670 CURVE SMOOTH",
"155 670 LINE",
"155 618 LINE",
"400 618 LINE SMOOTH",
"499 618 OFFCURVE",
"542 572 OFFCURVE",
"542 491 CURVE SMOOTH",
"542 408 OFFCURVE",
"499 359 OFFCURVE",
"400 359 CURVE SMOOTH",
"155 359 LINE",
"155 311 LINE",
"398 311 LINE SMOOTH",
"503 311 OFFCURVE",
"557 272 OFFCURVE",
"557 181 CURVE SMOOTH",
"557 90 OFFCURVE",
"503 52 OFFCURVE",
"398 52 CURVE SMOOTH",
"155 52 LINE",
"155 0 LINE",
"395 0 LINE SMOOTH",
"545 0 OFFCURVE",
"618 64 OFFCURVE",
"618 172 CURVE SMOOTH",
"618 272 OFFCURVE",
"563 319 OFFCURVE",
"489 334 CURVE"
);
}
);
};
layerId = "EAE779D9-56D9-4706-9B6E-8BCD47BDA60B";
paths = (
{
closed = 1;
nodes = (
"192 0 LINE",
"192 670 LINE",
"132 670 LINE",
"132 0 LINE"
);
},
{
closed = 1;
nodes = (
"572 338 LINE",
"657 357 OFFCURVE",
"706 404 OFFCURVE",
"706 499 CURVE SMOOTH",
"706 603 OFFCURVE",
"639 670 OFFCURVE",
"464 670 CURVE SMOOTH",
"180 670 LINE",
"180 618 LINE",
"474 618 LINE SMOOTH",
"592 618 OFFCURVE",
"644 572 OFFCURVE",
"644 491 CURVE SMOOTH",
"644 408 OFFCURVE",
"592 359 OFFCURVE",
"474 359 CURVE SMOOTH",
"180 359 LINE",
"180 311 LINE",
"468 311 LINE SMOOTH",
"596 311 OFFCURVE",
"661 272 OFFCURVE",
"661 181 CURVE SMOOTH",
"661 90 OFFCURVE",
"596 52 OFFCURVE",
"468 52 CURVE SMOOTH",
"180 52 LINE",
"180 0 LINE",
"463 0 LINE SMOOTH",
"636 0 OFFCURVE",
"724 64 OFFCURVE",
"724 172 CURVE SMOOTH",
"724 272 OFFCURVE",
"656 319 OFFCURVE",
"572 334 CURVE"
);
}
);
width = 835;
userData = {
RMXScaler = {
width = 108;
};
};
}
);
leftMetricsKey = H;
unicode = 0042;
userData = {
RMXScaler = {
source = B;
};
};
},
{
color = 9;
glyphname = C;
lastChange = "2017-07-04 09:19:31 +0000";
layers = (
{
background = {
paths = (
{
closed = 1;
nodes = (
"587 -15 OFFCURVE",
"708 109 OFFCURVE",
"708 335 CURVE SMOOTH",
"708 562 OFFCURVE",
"587 685 OFFCURVE",
"374 685 CURVE SMOOTH",
"161 685 OFFCURVE",
"40 562 OFFCURVE",
"40 335 CURVE SMOOTH",
"40 109 OFFCURVE",
"161 -15 OFFCURVE",
"374 -15 CURVE SMOOTH"
);
},
{
closed = 1;
nodes = (
"249 110 OFFCURVE",
"193 194 OFFCURVE",
"193 335 CURVE SMOOTH",
"193 476 OFFCURVE",
"249 560 OFFCURVE",
"374 560 CURVE SMOOTH",
"499 560 OFFCURVE",
"555 476 OFFCURVE",
"555 335 CURVE SMOOTH",
"555 194 OFFCURVE",
"499 110 OFFCURVE",
"374 110 CURVE SMOOTH"
);
}
);
};
layerId = "C76CAC8E-7AD6-478C-8F7E-02FEF6F1EA84";
paths = (
{
closed = 1;
nodes = (
"533 -15 OFFCURVE",
"643 63 OFFCURVE",
"656 220 CURVE SMOOTH",
"657 232 LINE",
"504 232 LINE",
"502 222 LINE SMOOTH",
"489 155 OFFCURVE",
"450 110 OFFCURVE",
"359 110 CURVE SMOOTH",
"264 110 OFFCURVE",
"193 182 OFFCURVE",
"193 336 CURVE SMOOTH",
"193 490 OFFCURVE",
"263 560 OFFCURVE",
"359 560 CURVE SMOOTH",
"447 560 OFFCURVE",
"487 513 OFFCURVE",
"502 446 CURVE SMOOTH",
"504 437 LINE",
"657 437 LINE",
"656 449 LINE SMOOTH",
"643 606 OFFCURVE",
"531 685 OFFCURVE",
"354 685 CURVE SMOOTH",
"177 685 OFFCURVE",
"40 571 OFFCURVE",
"40 336 CURVE SMOOTH",
"40 100 OFFCURVE",
"177 -15 OFFCURVE",
"354 -15 CURVE SMOOTH"
);
}
);
width = 697;
},
{
background = {
paths = (
{
closed = 1;
nodes = (
"594 -15 OFFCURVE",
"692 80 OFFCURVE",
"699 235 CURVE SMOOTH",
"700 257 LINE",
"491 257 LINE",
"488 245 LINE SMOOTH",
"479 207 OFFCURVE",
"461 165 OFFCURVE",
"383 165 CURVE SMOOTH",
"303 165 OFFCURVE",
"268 226 OFFCURVE",
"268 331 CURVE SMOOTH",
"268 436 OFFCURVE",
"303 505 OFFCURVE",
"383 505 CURVE SMOOTH",
"461 505 OFFCURVE",
"478 464 OFFCURVE",
"488 425 CURVE SMOOTH",
"491 413 LINE",
"700 413 LINE",
"699 435 LINE SMOOTH",
"692 579 OFFCURVE",
"594 685 OFFCURVE",
"383 685 CURVE SMOOTH",
"157 685 OFFCURVE",
"40 554 OFFCURVE",
"40 331 CURVE SMOOTH",
"40 118 OFFCURVE",
"157 -15 OFFCURVE",
"383 -15 CURVE SMOOTH"
);
}
);
};
layerId = "2D8239A6-199F-4292-A93F-56491AD13939";
paths = (
{
closed = 1;
nodes = (
"582 -15 OFFCURVE",
"675 80 OFFCURVE",
"682 235 CURVE SMOOTH",
"683 257 LINE",
"475 257 LINE",
"472 245 LINE SMOOTH",
"463 207 OFFCURVE",
"448 165 OFFCURVE",
"374 165 CURVE SMOOTH",
"297 165 OFFCURVE",
"267 226 OFFCURVE",
"267 331 CURVE SMOOTH",
"267 436 OFFCURVE",
"298 505 OFFCURVE",
"374 505 CURVE SMOOTH",
"449 505 OFFCURVE",
"463 464 OFFCURVE",
"472 425 CURVE SMOOTH",
"475 413 LINE",
"683 413 LINE",
"682 435 LINE SMOOTH",
"676 579 OFFCURVE",
"582 685 OFFCURVE",
"374 685 CURVE SMOOTH",
"151 685 OFFCURVE",
"39 554 OFFCURVE",
"39 331 CURVE SMOOTH",
"39 118 OFFCURVE",
"151 -15 OFFCURVE",
"374 -15 CURVE SMOOTH"
);
}
);
width = 722;
userData = {
RMXScaler = {
width = 97;
};
};
},
{
background = {
paths = (
{
closed = 1;
nodes = (
"517 -15 OFFCURVE",
"623 53 OFFCURVE",
"648 193 CURVE SMOOTH",
"650 204 LINE",
"589 204 LINE",
"587 195 LINE SMOOTH",
"563 88 OFFCURVE",
"495 36 OFFCURVE",
"366 36 CURVE SMOOTH",
"243 36 OFFCURVE",
"125 114 OFFCURVE",
"125 335 CURVE SMOOTH",
"125 556 OFFCURVE",
"243 634 OFFCURVE",
"366 634 CURVE SMOOTH",
"486 634 OFFCURVE",
"552 574 OFFCURVE",
"586 473 CURVE SMOOTH",
"589 464 LINE",
"650 464 LINE",
"648 473 LINE SMOOTH",
"621 594 OFFCURVE",
"525 685 OFFCURVE",
"367 685 CURVE SMOOTH",
"209 685 OFFCURVE",
"63 583 OFFCURVE",
"63 335 CURVE SMOOTH",
"63 86 OFFCURVE",
"209 -15 OFFCURVE",
"367 -15 CURVE SMOOTH"
);
}
);
};
layerId = "EAE779D9-56D9-4706-9B6E-8BCD47BDA60B";
paths = (
{
closed = 1;
nodes = (
"604 -15 OFFCURVE",
"731 53 OFFCURVE",
"758 193 CURVE SMOOTH",
"760 204 LINE",
"699 204 LINE",
"697 195 LINE SMOOTH",
"672 87 OFFCURVE",
"585 36 OFFCURVE",
"429 36 CURVE SMOOTH",
"283 36 OFFCURVE",
"139 114 OFFCURVE",
"139 335 CURVE SMOOTH",
"139 556 OFFCURVE",
"283 634 OFFCURVE",
"429 634 CURVE SMOOTH",
"574 634 OFFCURVE",
"660 576 OFFCURVE",
"696 473 CURVE SMOOTH",
"699 464 LINE",
"760 464 LINE",
"758 473 LINE SMOOTH",
"730 595 OFFCURVE",
"614 685 OFFCURVE",
"432 685 CURVE SMOOTH",
"249 685 OFFCURVE",
"77 583 OFFCURVE",
"77 335 CURVE SMOOTH",
"77 86 OFFCURVE",
"249 -15 OFFCURVE",
"432 -15 CURVE SMOOTH"
);
}
);
width = 837;
userData = {
RMXScaler = {
width = 108;
};
};
}
);
leftMetricsKey = O;
rightMetricsKey = O;
unicode = 0043;
userData = {
RMXScaler = {
source = C;
};
};
},
{
color = 9;
glyphname = D;
lastChange = "2017-06-29 17:35:38 +0000";
layers = (
{
background = {
paths = (
{
closed = 1;
nodes = (
"666 0 LINE",
"666 670 LINE",
"518 670 LINE",
"518 0 LINE"
);
},
{
closed = 1;
nodes = (
"223 0 LINE",
"223 670 LINE",
"75 670 LINE",
"75 0 LINE"
);
},
{
closed = 1;
nodes = (
"601 272 LINE",
"601 397 LINE",
"133 397 LINE",
"133 272 LINE"
);
}
);
};
layerId = "C76CAC8E-7AD6-478C-8F7E-02FEF6F1EA84";
paths = (
{
closed = 1;
nodes = (
"223 0 LINE",
"223 670 LINE",
"75 670 LINE",
"75 0 LINE"
);
},
{
closed = 1;
nodes = (
"190 125 LINE",
"190 0 LINE",
"339 0 LINE SMOOTH",
"556 0 OFFCURVE",
"676 111 OFFCURVE",
"676 335 CURVE SMOOTH",
"676 561 OFFCURVE",
"555 670 OFFCURVE",
"349 670 CURVE SMOOTH",
"190 670 LINE",
"190 545 LINE",
"336 545 LINE SMOOTH",
"450 545 OFFCURVE",
"523 497 OFFCURVE",
"523 335 CURVE SMOOTH",
"523 173 OFFCURVE",
"450 125 OFFCURVE",
"336 125 CURVE SMOOTH"
);
}
);
width = 716;
},
{
background = {
paths = (
{
closed = 1;
nodes = (
"300 0 LINE",
"300 670 LINE",
"75 670 LINE",
"75 0 LINE"
);
},
{
closed = 1;
nodes = (
"267 175 LINE",
"267 0 LINE",
"398 0 LINE SMOOTH",
"615 0 OFFCURVE",
"743 111 OFFCURVE",
"743 335 CURVE SMOOTH",
"743 561 OFFCURVE",
"614 670 OFFCURVE",
"408 670 CURVE SMOOTH",
"267 670 LINE",
"267 495 LINE",
"378 495 LINE SMOOTH",
"472 495 OFFCURVE",
"515 447 OFFCURVE",
"515 335 CURVE SMOOTH",
"515 223 OFFCURVE",
"472 175 OFFCURVE",
"378 175 CURVE SMOOTH"
);
}
);
};
layerId = "2D8239A6-199F-4292-A93F-56491AD13939";
paths = (
{
closed = 1;
nodes = (
"298 0 LINE",
"298 670 LINE",
"73 670 LINE",
"73 0 LINE"
);
},
{
closed = 1;
nodes = (
"266 175 LINE",
"266 0 LINE",
"391 0 LINE SMOOTH",
"602 0 OFFCURVE",
"727 111 OFFCURVE",
"727 335 CURVE SMOOTH",
"727 561 OFFCURVE",
"601 670 OFFCURVE",
"401 670 CURVE SMOOTH",
"266 670 LINE",
"266 495 LINE",
"371 495 LINE SMOOTH",
"460 495 OFFCURVE",
"499 447 OFFCURVE",
"499 335 CURVE SMOOTH",
"499 223 OFFCURVE",
"460 175 OFFCURVE",
"371 175 CURVE SMOOTH"
);
}
);
width = 766;
userData = {
RMXScaler = {
width = 97;
};
};
},
{
background = {
paths = (
{
closed = 1;
nodes = (
"167 0 LINE",
"167 670 LINE",
"107 670 LINE",
"107 0 LINE"
);
},
{
closed = 1;
nodes = (
"135 51 LINE",
"135 0 LINE",
"295 0 LINE SMOOTH",
"512 0 OFFCURVE",
"633 100 OFFCURVE",
"633 335 CURVE SMOOTH",
"633 572 OFFCURVE",
"511 670 OFFCURVE",
"305 670 CURVE SMOOTH",
"135 670 LINE",
"135 619 LINE",
"311 619 LINE SMOOTH",
"466 619 OFFCURVE",
"571 554 OFFCURVE",
"571 335 CURVE SMOOTH",
"571 116 OFFCURVE",
"466 51 OFFCURVE",
"311 51 CURVE SMOOTH"
);
}
);
};
layerId = "EAE779D9-56D9-4706-9B6E-8BCD47BDA60B";
paths = (
{
closed = 1;
nodes = (
"192 0 LINE",
"192 670 LINE",
"132 670 LINE",
"132 0 LINE"
);
},
{
closed = 1;
nodes = (
"155 51 LINE",
"155 0 LINE",
"344 0 LINE SMOOTH",
"597 0 OFFCURVE",
"739 100 OFFCURVE",
"739 335 CURVE SMOOTH",
"739 572 OFFCURVE",
"596 670 OFFCURVE",
"355 670 CURVE SMOOTH",
"155 670 LINE",
"155 619 LINE",
"364 619 LINE SMOOTH",
"551 619 OFFCURVE",
"677 554 OFFCURVE",
"677 335 CURVE SMOOTH",
"677 116 OFFCURVE",
"551 51 OFFCURVE",
"364 51 CURVE SMOOTH"
);
}
);
width = 816;
userData = {
RMXScaler = {
width = 108;
};
};
}
);
leftMetricsKey = H;
rightMetricsKey = O;
unicode = 0044;
userData = {
RMXScaler = {
source = D;
};
};
},
{
color = 9;
glyphname = E;
lastChange = "2017-06-29 17:35:38 +0000";
layers = (
{
background = {
paths = (
{
closed = 1;
nodes = (
"666 0 LINE",
"666 670 LINE",
"518 670 LINE",
"518 0 LINE"
);
},
{
closed = 1;
nodes = (
"223 0 LINE",
"223 670 LINE",
"75 670 LINE",
"75 0 LINE"
);
},
{
closed = 1;
nodes = (
"601 272 LINE",
"601 397 LINE",
"133 397 LINE",
"133 272 LINE"
);
}
);
};
layerId = "C76CAC8E-7AD6-478C-8F7E-02FEF6F1EA84";
paths = (
{
closed = 1;
nodes = (
"218 0 LINE",
"218 670 LINE",
"75 670 LINE",
"75 0 LINE"
);
},
{
closed = 1;
nodes = (
"590 0 LINE",
"590 125 LINE",
"170 125 LINE",
"170 0 LINE"
);
},
{
closed = 1;
nodes = (
"590 545 LINE",
"590 670 LINE",
"170 670 LINE",
"170 545 LINE"
);
},
{
closed = 1;
nodes = (
"530 275 LINE",
"530 390 LINE",
"170 390 LINE",
"170 275 LINE"
);
}
);
width = 640;
},
{
background = {
paths = (
{
closed = 1;
nodes = (
"295 0 LINE",
"295 670 LINE",
"75 670 LINE",
"75 0 LINE"
);
},
{
closed = 1;
nodes = (
"640 0 LINE",
"640 175 LINE",
"195 175 LINE",
"195 0 LINE"
);
},
{
closed = 1;
nodes = (
"640 495 LINE",
"640 670 LINE",
"195 670 LINE",
"195 495 LINE"
);
},
{
closed = 1;
nodes = (
"580 260 LINE",
"580 410 LINE",
"195 410 LINE",
"195 260 LINE"
);
}
);
};
layerId = "2D8239A6-199F-4292-A93F-56491AD13939";
paths = (
{
closed = 1;
nodes = (
"293 0 LINE",
"293 670 LINE",
"73 670 LINE",
"73 0 LINE"
);
},
{
closed = 1;
nodes = (
"625 0 LINE",
"625 175 LINE",
"192 175 LINE",
"192 0 LINE"
);
},
{
closed = 1;
nodes = (
"625 495 LINE",
"625 670 LINE",
"192 670 LINE",
"192 495 LINE"
);
},
{
closed = 1;
nodes = (
"567 260 LINE",
"567 410 LINE",
"192 410 LINE",
"192 260 LINE"
);
}
);
width = 679;
userData = {
RMXScaler = {
width = 97;
};
};
},
{
background = {
paths = (
{
closed = 1;
nodes = (
"166 0 LINE",
"166 670 LINE",
"107 670 LINE",
"107 0 LINE"
);
},
{
closed = 1;
nodes = (
"554 0 LINE",
"554 54 LINE",
"151 54 LINE",
"151 0 LINE"
);
},
{
closed = 1;
nodes = (
"554 616 LINE",
"554 670 LINE",
"151 670 LINE",
"151 616 LINE"
);
},
{
closed = 1;
nodes = (
"494 317 LINE",
"494 367 LINE",
"151 367 LINE",
"151 317 LINE"
);
}
);
};
layerId = "EAE779D9-56D9-4706-9B6E-8BCD47BDA60B";
paths = (
{
closed = 1;
nodes = (
"191 0 LINE",
"191 670 LINE",
"132 670 LINE",
"132 0 LINE"
);
},
{
closed = 1;
nodes = (
"647 0 LINE",
"647 54 LINE",
"178 54 LINE",
"178 0 LINE"
);
},
{
closed = 1;
nodes = (
"647 616 LINE",
"647 670 LINE",
"178 670 LINE",
"178 616 LINE"
);
},
{
closed = 1;
nodes = (
"577 317 LINE",
"577 367 LINE",
"178 367 LINE",
"178 317 LINE"
);
}
);
width = 752;
userData = {
RMXScaler = {
width = 108;
};
};
}
);
leftMetricsKey = "=H";
unicode = 0045;
userData = {
RMXScaler = {
source = E;
};
};
},
{
color = 9;
glyphname = F;
lastChange = "2017-06-29 17:35:38 +0000";
layers = (
{
background = {
paths = (
{
closed = 1;
nodes = (
"218 0 LINE",
"218 670 LINE",
"75 670 LINE",
"75 0 LINE"
);
},
{
closed = 1;
nodes = (
"588 0 LINE",
"588 125 LINE",
"170 125 LINE",
"170 0 LINE"
);
},
{
closed = 1;
nodes = (
"588 545 LINE",
"588 670 LINE",
"170 670 LINE",
"170 545 LINE"
);
},
{
closed = 1;
nodes = (
"528 275 LINE",
"528 390 LINE",
"170 390 LINE",
"170 275 LINE"
);
}
);
};
layerId = "C76CAC8E-7AD6-478C-8F7E-02FEF6F1EA84";
paths = (
{
closed = 1;
nodes = (
"218 0 LINE",
"218 670 LINE",
"75 670 LINE",
"75 0 LINE"
);
},
{
closed = 1;
nodes = (
"565 545 LINE",
"565 670 LINE",
"170 670 LINE",
"170 545 LINE"
);
},
{
closed = 1;
nodes = (
"505 253 LINE",
"505 370 LINE",
"170 370 LINE",
"170 253 LINE"
);
}
);
width = 580;
},
{
background = {
paths = (
{
closed = 1;
nodes = (
"295 0 LINE",
"295 670 LINE",
"75 670 LINE",
"75 0 LINE"
);
},
{
closed = 1;
nodes = (
"625 490 LINE",
"625 670 LINE",
"195 670 LINE",
"195 490 LINE"
);
},
{
closed = 1;
nodes = (
"565 225 LINE",
"565 380 LINE",
"195 380 LINE",
"195 225 LINE"
);
}
);
};
layerId = "2D8239A6-199F-4292-A93F-56491AD13939";
paths = (
{
closed = 1;
nodes = (
"293 0 LINE",
"293 670 LINE",
"73 670 LINE",
"73 0 LINE"
);
},
{
closed = 1;
nodes = (
"612 490 LINE",
"612 670 LINE",
"192 670 LINE",
"192 490 LINE"
);
},
{
closed = 1;
nodes = (
"553 225 LINE",
"553 380 LINE",
"192 380 LINE",
"192 225 LINE"
);
}
);
width = 642;
userData = {
RMXScaler = {
width = 97;
};
};
},
{
background = {
paths = (
{
closed = 1;
nodes = (
"166 0 LINE",
"166 670 LINE",
"107 670 LINE",
"107 0 LINE"
);
},
{
closed = 1;
nodes = (
"529 616 LINE",
"529 670 LINE",
"151 670 LINE",
"151 616 LINE"
);
},
{
closed = 1;
nodes = (
"469 309 LINE",
"469 359 LINE",
"151 359 LINE",
"151 309 LINE"
);
}
);
};
layerId = "EAE779D9-56D9-4706-9B6E-8BCD47BDA60B";
paths = (
{
closed = 1;
nodes = (
"191 0 LINE",
"191 670 LINE",
"132 670 LINE",
"132 0 LINE"
);
},
{
closed = 1;
nodes = (
"618 616 LINE",
"618 670 LINE",
"178 670 LINE",
"178 616 LINE"
);
},
{
closed = 1;
nodes = (
"548 309 LINE",
"548 359 LINE",
"178 359 LINE",
"178 309 LINE"
);
}
);
width = 662;
userData = {
RMXScaler = {
width = 108;
};
};
}
);
leftMetricsKey = H;
unicode = 0046;
userData = {
RMXScaler = {
source = F;
};
};
},
{
color = 9;
glyphname = G;
lastChange = "2017-06-29 17:35:38 +0000";
layers = (
{
background = {
paths = (
{
closed = 1;
nodes = (
"526 -15 OFFCURVE",
"572 145 OFFCURVE",
"572 252 CURVE",
"539 252 LINE",
"529 174 OFFCURVE",
"478 110 OFFCURVE",
"374 110 CURVE SMOOTH",
"264 110 OFFCURVE",
"193 182 OFFCURVE",
"193 336 CURVE SMOOTH",
"193 490 OFFCURVE",
"263 560 OFFCURVE",
"364 560 CURVE SMOOTH",
"452 560 OFFCURVE",
"491 527 OFFCURVE",
"515 467 CURVE SMOOTH",
"519 457 LINE",
"672 457 LINE",
"668 476 LINE SMOOTH",
"638 617 OFFCURVE",
"546 685 OFFCURVE",
"359 685 CURVE SMOOTH",
"177 685 OFFCURVE",
"40 571 OFFCURVE",
"40 336 CURVE SMOOTH",
"40 100 OFFCURVE",
"167 -15 OFFCURVE",
"339 -15 CURVE SMOOTH"
);
},
{
closed = 1;
nodes = (
"677 242 LINE",
"677 354 LINE",
"383 354 LINE",
"383 242 LINE"
);
},
{
closed = 1;
nodes = (
"677 0 LINE",
"677 270 LINE",
"539 270 LINE",
"539 128 LINE",
"559 0 LINE"
);
}
);
};
layerId = "C76CAC8E-7AD6-478C-8F7E-02FEF6F1EA84";
paths = (
{
closed = 1;
nodes = (
"450 -15 OFFCURVE",
"504 37 OFFCURVE",
"537 101 CURVE",
"572 101 LINE",
"572 252 LINE",
"539 252 LINE",
"529 174 OFFCURVE",
"478 110 OFFCURVE",
"374 110 CURVE SMOOTH",
"264 110 OFFCURVE",
"193 182 OFFCURVE",
"193 336 CURVE SMOOTH",
"193 490 OFFCURVE",
"263 560 OFFCURVE",
"364 560 CURVE SMOOTH",
"452 560 OFFCURVE",
"491 527 OFFCURVE",
"515 467 CURVE SMOOTH",
"519 457 LINE",
"672 457 LINE",
"668 476 LINE SMOOTH",
"638 617 OFFCURVE",
"546 685 OFFCURVE",
"359 685 CURVE SMOOTH",
"177 685 OFFCURVE",
"40 571 OFFCURVE",
"40 336 CURVE SMOOTH",
"40 100 OFFCURVE",
"167 -15 OFFCURVE",
"339 -15 CURVE SMOOTH"
);
},
{
closed = 1;
nodes = (
"677 242 LINE",
"677 354 LINE",
"383 354 LINE",
"383 242 LINE"
);
},
{
closed = 1;
nodes = (
"677 0 LINE",
"677 270 LINE",
"539 270 LINE",
"539 128 LINE",
"559 0 LINE"
);
}
);
width = 717;
},
{
background = {
paths = (
{
closed = 1;
nodes = (
"460 -15 OFFCURVE",
"514 37 OFFCURVE",
"537 93 CURVE",
"580 93 LINE",
"580 257 LINE",
"535 257 LINE",
"525 192 OFFCURVE",
"482 155 OFFCURVE",
"403 155 CURVE SMOOTH",
"303 155 OFFCURVE",
"268 216 OFFCURVE",
"268 331 CURVE SMOOTH",
"268 436 OFFCURVE",
"303 505 OFFCURVE",
"393 505 CURVE SMOOTH",
"471 505 OFFCURVE",
"493 478 OFFCURVE",
"508 449 CURVE SMOOTH",
"511 443 LINE",
"720 443 LINE",
"718 460 LINE SMOOTH",
"703 583 OFFCURVE",
"614 685 OFFCURVE",
"393 685 CURVE SMOOTH",
"157 685 OFFCURVE",
"40 554 OFFCURVE",
"40 331 CURVE SMOOTH",
"40 118 OFFCURVE",
"147 -15 OFFCURVE",
"353 -15 CURVE SMOOTH"
);
},
{
closed = 1;
nodes = (
"730 237 LINE",
"730 374 LINE",
"403 374 LINE",
"403 237 LINE"
);
},
{
closed = 1;
nodes = (
"730 0 LINE",
"730 270 LINE",
"535 270 LINE",
"535 127 LINE",
"570 0 LINE"
);
}
);
};
layerId = "2D8239A6-199F-4292-A93F-56491AD13939";
paths = (
{
closed = 1;
nodes = (
"447 -15 OFFCURVE",
"500 37 OFFCURVE",
"521 93 CURVE",
"563 93 LINE",
"563 257 LINE",
"519 257 LINE",
"509 192 OFFCURVE",
"468 155 OFFCURVE",
"394 155 CURVE SMOOTH",
"297 155 OFFCURVE",
"267 216 OFFCURVE",
"267 331 CURVE SMOOTH",
"267 436 OFFCURVE",
"298 505 OFFCURVE",
"384 505 CURVE SMOOTH",
"459 505 OFFCURVE",
"478 478 OFFCURVE",
"492 449 CURVE SMOOTH",
"495 443 LINE",
"703 443 LINE",
"701 460 LINE SMOOTH",
"687 583 OFFCURVE",
"602 685 OFFCURVE",
"384 685 CURVE SMOOTH",
"151 685 OFFCURVE",
"39 554 OFFCURVE",
"39 331 CURVE SMOOTH",
"39 118 OFFCURVE",
"141 -15 OFFCURVE",
"344 -15 CURVE SMOOTH"
);
},
{
closed = 1;
nodes = (
"713 237 LINE",
"713 374 LINE",
"393 374 LINE",
"393 237 LINE"
);
},
{
closed = 1;
nodes = (
"713 0 LINE",
"713 270 LINE",
"519 270 LINE",
"519 127 LINE",
"554 0 LINE"
);
}
);
width = 773;
userData = {
RMXScaler = {
width = 97;
};
};
},
{
background = {
paths = (
{
closed = 1;
nodes = (
"509 -15 OFFCURVE",
"575 76 OFFCURVE",
"601 131 CURVE",
"631 131 LINE",
"631 258 LINE",
"605 258 LINE",
"580 129 OFFCURVE",
"503 36 OFFCURVE",
"364 36 CURVE SMOOTH",
"243 36 OFFCURVE",
"125 114 OFFCURVE",
"125 335 CURVE SMOOTH",
"125 556 OFFCURVE",
"243 634 OFFCURVE",
"365 634 CURVE SMOOTH",
"484 634 OFFCURVE",
"554 580 OFFCURVE",
"587 482 CURVE SMOOTH",
"590 473 LINE",
"651 473 LINE",
"648 485 LINE SMOOTH",
"616 612 OFFCURVE",
"520 685 OFFCURVE",
"366 685 CURVE SMOOTH",
"209 685 OFFCURVE",
"63 583 OFFCURVE",
"63 335 CURVE SMOOTH",
"63 86 OFFCURVE",
"210 -15 OFFCURVE",
"369 -15 CURVE SMOOTH"
);
},
{
closed = 1;
nodes = (
"659 273 LINE",
"659 320 LINE",
"413 320 LINE",
"413 273 LINE"
);
},
{
closed = 1;
nodes = (
"659 0 LINE",
"659 284 LINE",
"605 284 LINE",
"605 131 LINE",
"613 0 LINE"
);
}
);
};
layerId = "EAE779D9-56D9-4706-9B6E-8BCD47BDA60B";
paths = (
{
closed = 1;
nodes = (
"604 -15 OFFCURVE",
"681 76 OFFCURVE",
"711 131 CURVE",
"745 131 LINE",
"745 258 LINE",
"717 258 LINE",
"685 129 OFFCURVE",
"592 36 OFFCURVE",
"425 36 CURVE SMOOTH",
"283 36 OFFCURVE",
"139 114 OFFCURVE",
"139 335 CURVE SMOOTH",
"139 556 OFFCURVE",
"283 634 OFFCURVE",
"428 634 CURVE SMOOTH",
"571 634 OFFCURVE",
"661 582 OFFCURVE",
"696 482 CURVE SMOOTH",
"699 473 LINE",
"761 473 LINE",
"758 485 LINE SMOOTH",
"725 614 OFFCURVE",
"607 685 OFFCURVE",
"429 685 CURVE SMOOTH",
"249 685 OFFCURVE",
"77 583 OFFCURVE",
"77 335 CURVE SMOOTH",
"77 86 OFFCURVE",
"252 -15 OFFCURVE",
"436 -15 CURVE SMOOTH"
);
},
{
closed = 1;
nodes = (
"771 273 LINE",
"771 320 LINE",
"487 320 LINE",
"487 273 LINE"
);
},
{
closed = 1;
nodes = (
"771 0 LINE",
"771 284 LINE",
"717 284 LINE",
"717 131 LINE",
"725 0 LINE"
);
}
);
width = 876;
userData = {
RMXScaler = {
width = 108;
};
};
}
);
leftMetricsKey = O;
unicode = 0047;
userData = {
RMXScaler = {
source = G;
};
};
},
{
color = 9;
glyphname = H;
lastChange = "2017-06-29 17:35:38 +0000";
layers = (
{
background = {
paths = (
{
closed = 1;
nodes = (
"666 0 LINE",
"666 670 LINE",
"518 670 LINE",
"518 0 LINE"
);
},
{
closed = 1;
nodes = (
"223 0 LINE",
"223 670 LINE",
"75 670 LINE",
"75 0 LINE"
);
},
{
closed = 1;
nodes = (
"601 272 LINE",
"601 402 LINE",
"133 402 LINE",
"133 272 LINE"
);
}
);
};
layerId = "C76CAC8E-7AD6-478C-8F7E-02FEF6F1EA84";
paths = (
{
closed = 1;
nodes = (
"666 0 LINE",
"666 670 LINE",
"518 670 LINE",
"518 0 LINE"
);
},
{
closed = 1;
nodes = (
"223 0 LINE",
"223 670 LINE",
"75 670 LINE",
"75 0 LINE"
);
},
{
closed = 1;
nodes = (
"601 272 LINE",
"601 397 LINE",
"133 397 LINE",
"133 272 LINE"
);
}
);
width = 741;
},
{
background = {
paths = (
{
closed = 1;
nodes = (
"735 0 LINE",
"735 670 LINE",
"510 670 LINE",
"510 0 LINE"
);
},
{
closed = 1;
nodes = (
"300 0 LINE",
"300 670 LINE",
"75 670 LINE",
"75 0 LINE"
);
},
{
closed = 1;
nodes = (
"620 247 LINE",
"620 422 LINE",
"223 422 LINE",
"223 247 LINE"
);
}
);
};
layerId = "2D8239A6-199F-4292-A93F-56491AD13939";
paths = (
{
closed = 1;
nodes = (
"719 0 LINE",
"719 670 LINE",
"494 670 LINE",
"494 0 LINE"
);
},
{
closed = 1;
nodes = (
"298 0 LINE",
"298 670 LINE",
"73 670 LINE",
"73 0 LINE"
);
},
{
closed = 1;
nodes = (
"603 247 LINE",
"603 422 LINE",
"224 422 LINE",
"224 247 LINE"
);
}
);
width = 792;
userData = {
RMXScaler = {
width = 97;
};
};
},
{
background = {
paths = (
{
closed = 1;
nodes = (
"629 0 LINE",
"629 670 LINE",
"569 670 LINE",
"569 0 LINE"
);
},
{
closed = 1;
nodes = (
"167 0 LINE",
"167 670 LINE",
"107 670 LINE",
"107 0 LINE"
);
},
{
closed = 1;
nodes = (
"598 317 LINE",
"598 369 LINE",
"142 369 LINE",
"142 317 LINE"
);
}
);
};
layerId = "EAE779D9-56D9-4706-9B6E-8BCD47BDA60B";
paths = (
{
closed = 1;
nodes = (
"735 0 LINE",
"735 670 LINE",
"675 670 LINE",
"675 0 LINE"
);
},
{
closed = 1;
nodes = (
"192 0 LINE",
"192 670 LINE",
"132 670 LINE",
"132 0 LINE"
);
},
{
closed = 1;
nodes = (
"702 317 LINE",
"702 369 LINE",
"171 369 LINE",
"171 317 LINE"
);
}
);
width = 867;
userData = {
RMXScaler = {
width = 108;
};
};
}
);
unicode = 0048;
userData = {
RMXScaler = {
source = H;
};
};
},
{
color = 9;
glyphname = I;
lastChange = "2017-06-29 17:35:38 +0000";
layers = (
{
layerId = "C76CAC8E-7AD6-478C-8F7E-02FEF6F1EA84";
paths = (
{
closed = 1;
nodes = (
"223 0 LINE",
"223 670 LINE",
"75 670 LINE",
"75 0 LINE"
);
}
);
width = 298;
},
{
background = {
paths = (
{
closed = 1;
nodes = (
"300 0 LINE",
"300 670 LINE",
"75 670 LINE",
"75 0 LINE"
);
}
);
};
layerId = "2D8239A6-199F-4292-A93F-56491AD13939";
paths = (
{
closed = 1;
nodes = (
"298 0 LINE",
"298 670 LINE",
"73 670 LINE",
"73 0 LINE"
);
}
);
width = 371;
userData = {
RMXScaler = {
width = 97;
};
};
},
{
background = {
paths = (
{
closed = 1;
nodes = (
"167 0 LINE",
"167 670 LINE",
"107 670 LINE",
"107 0 LINE"
);
}
);
};
layerId = "EAE779D9-56D9-4706-9B6E-8BCD47BDA60B";
paths = (
{
closed = 1;
nodes = (
"192 0 LINE",
"192 670 LINE",
"132 670 LINE",
"132 0 LINE"
);
}
);
width = 324;
userData = {
RMXScaler = {
width = 108;
};
};
}
);
leftMetricsKey = "=H";
rightMetricsKey = "=H";
unicode = 0049;
userData = {
RMXScaler = {
source = I;
};
};
},
{
color = 9;
glyphname = J;
lastChange = "2017-06-29 17:35:38 +0000";
layers = (
{
background = {
paths = (
{
closed = 1;
nodes = (
"109 5 LINE",
"164 -7 OFFCURVE",
"220 -15 OFFCURVE",
"266 -15 CURVE SMOOTH",
"437 -15 OFFCURVE",
"536 61 OFFCURVE",
"536 261 CURVE SMOOTH",
"536 670 LINE",
"388 670 LINE",
"388 289 LINE SMOOTH",
"388 164 OFFCURVE",
"347 110 OFFCURVE",
"251 110 CURVE SMOOTH",
"205 110 OFFCURVE",
"149 118 OFFCURVE",
"109 125 CURVE"
);
}
);
};
layerId = "C76CAC8E-7AD6-478C-8F7E-02FEF6F1EA84";
paths = (
{
closed = 1;
nodes = (
"199 110 OFFCURVE",
"170 146 OFFCURVE",
"159 223 CURVE SMOOTH",
"158 230 LINE",
"10 230 LINE",
"11 213 LINE SMOOTH",
"20 63 OFFCURVE",
"110 -15 OFFCURVE",
"271 -15 CURVE SMOOTH",
"444 -15 OFFCURVE",
"536 61 OFFCURVE",
"536 261 CURVE SMOOTH",
"536 670 LINE",
"388 670 LINE",
"388 259 LINE SMOOTH",
"388 154 OFFCURVE",
"357 110 OFFCURVE",
"276 110 CURVE SMOOTH"
);
}
);
width = 606;
},
{
background = {
paths = (
{
closed = 1;
nodes = (
"260 165 OFFCURVE",
"244 198 OFFCURVE",
"239 258 CURVE SMOOTH",
"238 270 LINE",
"20 270 LINE",
"21 243 LINE SMOOTH",
"27 73 OFFCURVE",
"105 -15 OFFCURVE",
"326 -15 CURVE SMOOTH",
"507 -15 OFFCURVE",
"616 71 OFFCURVE",
"616 271 CURVE SMOOTH",
"616 670 LINE",
"391 670 LINE",
"391 269 LINE SMOOTH",
"391 199 OFFCURVE",
"375 165 OFFCURVE",
"315 165 CURVE SMOOTH"
);
}
);
};
layerId = "2D8239A6-199F-4292-A93F-56491AD13939";
paths = (
{
closed = 1;
nodes = (
"257 165 OFFCURVE",
"244 198 OFFCURVE",
"239 258 CURVE SMOOTH",
"238 270 LINE",
"20 270 LINE",
"21 243 LINE SMOOTH",
"27 73 OFFCURVE",
"101 -15 OFFCURVE",
"321 -15 CURVE SMOOTH",
"497 -15 OFFCURVE",
"604 71 OFFCURVE",
"604 271 CURVE SMOOTH",
"604 670 LINE",
"380 670 LINE",
"380 269 LINE SMOOTH",
"380 199 OFFCURVE",
"365 165 OFFCURVE",
"309 165 CURVE SMOOTH"
);
}
);
width = 672;
userData = {
RMXScaler = {
width = 97;
};
};
},
{
background = {
paths = (
{
closed = 1;
nodes = (
"157 36 OFFCURVE",
"108 94 OFFCURVE",
"103 179 CURVE SMOOTH",
"102 196 LINE",
"40 196 LINE",
"41 178 LINE SMOOTH",
"47 62 OFFCURVE",
"121 -15 OFFCURVE",
"258 -15 CURVE SMOOTH",
"399 -15 OFFCURVE",
"483 50 OFFCURVE",
"483 250 CURVE SMOOTH",
"483 670 LINE",
"424 670 LINE",
"424 248 LINE SMOOTH",
"424 80 OFFCURVE",
"362 36 OFFCURVE",
"257 36 CURVE SMOOTH"
);
}
);
};
layerId = "EAE779D9-56D9-4706-9B6E-8BCD47BDA60B";
paths = (
{
closed = 1;
nodes = (
"179 36 OFFCURVE",
"119 94 OFFCURVE",
"114 179 CURVE SMOOTH",
"113 196 LINE",
"50 196 LINE",
"51 178 LINE SMOOTH",
"57 62 OFFCURVE",
"143 -15 OFFCURVE",
"301 -15 CURVE SMOOTH",
"463 -15 OFFCURVE",
"560 50 OFFCURVE",
"560 250 CURVE SMOOTH",
"560 670 LINE",
"501 670 LINE",
"501 248 LINE SMOOTH",
"501 80 OFFCURVE",
"424 36 OFFCURVE",
"299 36 CURVE SMOOTH"
);
}
);
width = 681;
userData = {
RMXScaler = {
width = 108;
};
};
}
);
rightMetricsKey = U;
unicode = 004A;
userData = {
RMXScaler = {
source = J;
};
};
},
{
color = 9;
glyphname = K;
lastChange = "2017-06-29 17:35:38 +0000";
layers = (
{
background = {
paths = (
{
closed = 1;
nodes = (
"281 272 LINE",
"663 670 LINE",
"485 670 LINE",
"206 369 LINE",
"206 272 LINE"
);
},
{
closed = 1;
nodes = (
"223 0 LINE",
"223 670 LINE",
"75 670 LINE",
"75 0 LINE"
);
},
{
closed = 1;
nodes = (
"668 0 LINE",
"369 380 LINE",
"245 314 LINE",
"495 0 LINE"
);
}
);
};
layerId = "C76CAC8E-7AD6-478C-8F7E-02FEF6F1EA84";
paths = (
{
closed = 1;
nodes = (
"281 272 LINE",
"663 670 LINE",
"485 670 LINE",
"228 393 LINE",
"206 393 LINE",
"206 272 LINE"
);
},
{
closed = 1;
nodes = (
"223 0 LINE",
"223 670 LINE",
"75 670 LINE",
"75 0 LINE"
);
},
{
closed = 1;
nodes = (
"668 0 LINE",
"369 380 LINE",
"245 314 LINE",
"495 0 LINE"
);
}
);
width = 678;
},
{
background = {
paths = (
{
closed = 1;
nodes = (
"435 247 LINE",
"745 670 LINE",
"500 670 LINE",
"307 401 LINE",
"265 401 LINE",
"265 247 LINE"
);
},
{
closed = 1;
nodes = (
"300 0 LINE",
"300 670 LINE",
"75 670 LINE",
"75 0 LINE"
);
},
{
closed = 1;
nodes = (
"750 0 LINE",
"514 409 LINE",
"327 299 LINE",
"500 0 LINE"
);
}
);
};
layerId = "2D8239A6-199F-4292-A93F-56491AD13939";
paths = (
{
closed = 1;
nodes = (
"435 247 LINE",
"730 670 LINE",
"487 670 LINE",
"305 401 LINE",
"262 401 LINE",
"262 247 LINE"
);
},
{
closed = 1;
nodes = (
"298 0 LINE",
"298 670 LINE",
"73 670 LINE",
"73 0 LINE"
);
},
{
closed = 1;
nodes = (
"735 0 LINE",
"511 409 LINE",
"324 299 LINE",
"486 0 LINE"
);
}
);
width = 739;
userData = {
RMXScaler = {
width = 97;
};
};
},
{
background = {
paths = (
{
closed = 1;
nodes = (
"200 317 LINE",
"590 670 LINE",
"510 670 LINE",
"170 358 LINE",
"147 358 LINE",
"147 317 LINE"
);
},
{
closed = 1;
nodes = (
"167 0 LINE",
"167 670 LINE",
"107 670 LINE",
"107 0 LINE"
);
},
{
closed = 1;
nodes = (
"600 0 LINE",
"214 371 LINE",
"174 331 LINE",
"521 0 LINE"
);
}
);
};
layerId = "EAE779D9-56D9-4706-9B6E-8BCD47BDA60B";
paths = (
{
closed = 1;
nodes = (
"229 317 LINE",
"686 670 LINE",
"603 670 LINE",
"195 358 LINE",
"168 358 LINE",
"168 317 LINE"
);
},
{
closed = 1;
nodes = (
"192 0 LINE",
"192 670 LINE",
"132 670 LINE",
"132 0 LINE"
);
},
{
closed = 1;
nodes = (
"698 0 LINE",
"237 371 LINE",
"199 331 LINE",
"616 0 LINE"
);
}
);
width = 737;
userData = {
RMXScaler = {
width = 108;
};
};
}
);
leftMetricsKey = H;
unicode = 004B;
userData = {
RMXScaler = {
source = K;
};
};
},
{
color = 9;
glyphname = L;
lastChange = "2017-06-29 17:35:38 +0000";
layers = (
{
layerId = "C76CAC8E-7AD6-478C-8F7E-02FEF6F1EA84";
paths = (
{
closed = 1;
nodes = (
"223 0 LINE",
"223 670 LINE",
"75 670 LINE",
"75 0 LINE"
);
},
{
closed = 1;
nodes = (
"528 0 LINE",
"528 125 LINE",
"170 125 LINE",
"170 0 LINE"
);
}
);
width = 548;
},
{
background = {
paths = (
{
closed = 1;
nodes = (
"300 0 LINE",
"300 670 LINE",
"75 670 LINE",
"75 0 LINE"
);
},
{
closed = 1;
nodes = (
"580 0 LINE",
"580 180 LINE",
"195 180 LINE",
"195 0 LINE"
);
}
);
};
layerId = "2D8239A6-199F-4292-A93F-56491AD13939";
paths = (
{
closed = 1;
nodes = (
"298 0 LINE",
"298 670 LINE",
"73 670 LINE",
"73 0 LINE"
);
},
{
closed = 1;
nodes = (
"567 0 LINE",
"567 180 LINE",
"192 180 LINE",
"192 0 LINE"
);
}
);
width = 608;
userData = {
RMXScaler = {
width = 97;
};
};
},
{
background = {
paths = (
{
closed = 1;
nodes = (
"167 0 LINE",
"167 670 LINE",
"107 670 LINE",
"107 0 LINE"
);
},
{
closed = 1;
nodes = (
"500 0 LINE",
"500 54 LINE",
"161 54 LINE",
"161 0 LINE"
);
}
);
};
layerId = "EAE779D9-56D9-4706-9B6E-8BCD47BDA60B";
paths = (
{
closed = 1;
nodes = (
"192 0 LINE",
"192 670 LINE",
"132 670 LINE",
"132 0 LINE"
);
},
{
closed = 1;
nodes = (
"585 0 LINE",
"585 54 LINE",
"190 54 LINE",
"190 0 LINE"
);
}
);
width = 618;
userData = {
RMXScaler = {
width = 108;
};
};
}
);
leftMetricsKey = "=H";
unicode = 004C;
userData = {
RMXScaler = {
source = L;
};
};
},
{
color = 9;
glyphname = M;
lastChange = "2017-06-29 17:35:38 +0000";
layers = (
{
background = {
paths = (
{
closed = 1;
nodes = (
"630 670 LINE",
"455 138 LINE",
"475 138 LINE",
"300 670 LINE",
"75 670 LINE",
"75 0 LINE",
"213 0 LINE",
"213 579 LINE",
"198 579 LINE",
"398 0 LINE",
"532 0 LINE",
"732 579 LINE",
"717 579 LINE",
"717 0 LINE",
"855 0 LINE",
"855 670 LINE"
);
}
);
};
layerId = "C76CAC8E-7AD6-478C-8F7E-02FEF6F1EA84";
paths = (
{
closed = 1;
nodes = (
"630 670 LINE",
"469 180 LINE",
"461 180 LINE",
"300 670 LINE",
"75 670 LINE",
"75 0 LINE",
"213 0 LINE",
"213 539 LINE",
"198 516 LINE",
"221 516 LINE",
"398 0 LINE",
"532 0 LINE",
"709 516 LINE",
"732 516 LINE",
"717 539 LINE",
"717 0 LINE",
"855 0 LINE",
"855 670 LINE"
);
}
);
width = 930;
},
{
background = {
paths = (
{
closed = 1;
nodes = (
"647 670 LINE",
"516 244 LINE",
"508 244 LINE",
"377 670 LINE",
"75 670 LINE",
"75 0 LINE",
"270 0 LINE",
"270 479 LINE",
"252 453 LINE",
"277 453 LINE",
"425 0 LINE",
"599 0 LINE",
"747 453 LINE",
"772 453 LINE",
"754 469 LINE",
"754 0 LINE",
"949 0 LINE",
"949 670 LINE"
);
}
);
};
layerId = "2D8239A6-199F-4292-A93F-56491AD13939";
paths = (
{
closed = 1;
nodes = (
"629 670 LINE",
"505 244 LINE",
"497 244 LINE",
"373 670 LINE",
"73 670 LINE",
"73 0 LINE",
"267 0 LINE",
"267 479 LINE",
"249 453 LINE",
"274 453 LINE",
"415 0 LINE",
"587 0 LINE",
"728 453 LINE",
"753 453 LINE",
"735 469 LINE",
"735 0 LINE",
"929 0 LINE",
"929 670 LINE"
);
}
);
width = 1002;
userData = {
RMXScaler = {
width = 97;
};
};
},
{
background = {
paths = (
{
closed = 1;
nodes = (
"652 670 LINE",
"430 70 LINE",
"424 70 LINE",
"202 670 LINE",
"107 670 LINE",
"107 0 LINE",
"162 0 LINE",
"162 614 LINE",
"152 606 LINE",
"169 606 LINE",
"396 0 LINE",
"457 0 LINE",
"684 606 LINE",
"702 606 LINE",
"691 625 LINE",
"691 0 LINE",
"746 0 LINE",
"746 670 LINE"
);
}
);
};
layerId = "EAE779D9-56D9-4706-9B6E-8BCD47BDA60B";
paths = (
{
closed = 1;
nodes = (
"769 670 LINE",
"502 70 LINE",
"496 70 LINE",
"229 670 LINE",
"132 670 LINE",
"132 0 LINE",
"187 0 LINE",
"187 614 LINE",
"177 606 LINE",
"196 606 LINE",
"466 0 LINE",
"529 0 LINE",
"801 606 LINE",
"821 606 LINE",
"810 625 LINE",
"810 0 LINE",
"865 0 LINE",
"865 670 LINE"
);
}
);
width = 997;
userData = {
RMXScaler = {
width = 108;
};
};
}
);
leftMetricsKey = H;
rightMetricsKey = H;
unicode = 004D;
userData = {
RMXScaler = {
source = M;
};
};
},
{
color = 9;
glyphname = N;
lastChange = "2017-06-29 17:35:38 +0000";
layers = (
{
background = {
paths = (
{
closed = 1;
nodes = (
"225 670 LINE",
"75 670 LINE",
"75 0 LINE",
"213 0 LINE",
"213 540 LINE",
"160 540 LINE",
"526 0 LINE",
"676 0 LINE",
"676 670 LINE",
"538 670 LINE",
"538 130 LINE",
"591 130 LINE"
);
}
);
};
layerId = "C76CAC8E-7AD6-478C-8F7E-02FEF6F1EA84";
paths = (
{
closed = 1;
nodes = (
"531 219 LINE",
"225 670 LINE",
"75 670 LINE",
"75 0 LINE",
"213 0 LINE",
"213 470 LINE",
"200 452 LINE",
"219 452 LINE",
"526 0 LINE",
"676 0 LINE",
"676 670 LINE",
"538 670 LINE",
"538 190 LINE",
"560 219 LINE"
);
}
);
width = 751;
},
{
background = {
paths = (
{
closed = 1;
nodes = (
"543 281 LINE",
"310 670 LINE",
"75 670 LINE",
"75 0 LINE",
"280 0 LINE",
"280 417 LINE",
"256 390 LINE",
"287 390 LINE",
"520 0 LINE",
"755 0 LINE",
"755 670 LINE",
"550 670 LINE",
"550 260 LINE",
"572 281 LINE"
);
}
);
};
layerId = "2D8239A6-199F-4292-A93F-56491AD13939";
paths = (
{
closed = 1;
nodes = (
"528 281 LINE",
"308 670 LINE",
"73 670 LINE",
"73 0 LINE",
"278 0 LINE",
"278 417 LINE",
"253 390 LINE",
"284 390 LINE",
"504 0 LINE",
"739 0 LINE",
"739 670 LINE",
"535 670 LINE",
"535 260 LINE",
"556 281 LINE"
);
}
);
width = 812;
userData = {
RMXScaler = {
width = 97;
};
};
},
{
background = {
paths = (
{
closed = 1;
nodes = (
"574 107 LINE",
"155 670 LINE",
"107 670 LINE",
"107 0 LINE",
"161 0 LINE",
"161 582 LINE",
"153 563 LINE",
"166 563 LINE",
"585 0 LINE",
"633 0 LINE",
"633 670 LINE",
"579 670 LINE",
"579 80 LINE",
"598 107 LINE"
);
}
);
};
layerId = "EAE779D9-56D9-4706-9B6E-8BCD47BDA60B";
paths = (
{
closed = 1;
nodes = (
"680 107 LINE",
"177 670 LINE",
"132 670 LINE",
"132 0 LINE",
"186 0 LINE",
"186 582 LINE",
"178 563 LINE",
"191 563 LINE",
"695 0 LINE",
"739 0 LINE",
"739 670 LINE",
"685 670 LINE",
"685 80 LINE",
"708 107 LINE"
);
}
);
width = 871;
userData = {
RMXScaler = {
width = 108;
};
};
}
);
leftMetricsKey = "=H";
rightMetricsKey = "=H";
unicode = 004E;
userData = {
RMXScaler = {
source = N;
};
};
},
{
color = 9;
glyphname = O;
lastChange = "2017-06-29 17:35:38 +0000";
layers = (
{
background = {
paths = (
{
closed = 1;
nodes = (
"612 -15 OFFCURVE",
"733 109 OFFCURVE",
"733 335 CURVE SMOOTH",
"733 562 OFFCURVE",
"612 685 OFFCURVE",
"374 685 CURVE SMOOTH",
"136 685 OFFCURVE",
"15 562 OFFCURVE",
"15 335 CURVE SMOOTH",
"15 109 OFFCURVE",
"136 -15 OFFCURVE",
"374 -15 CURVE SMOOTH"
);
},
{
closed = 1;
nodes = (
"229 110 OFFCURVE",
"168 194 OFFCURVE",
"168 335 CURVE SMOOTH",
"168 476 OFFCURVE",
"229 560 OFFCURVE",
"374 560 CURVE SMOOTH",
"519 560 OFFCURVE",
"580 476 OFFCURVE",
"580 335 CURVE SMOOTH",
"580 194 OFFCURVE",
"519 110 OFFCURVE",
"374 110 CURVE SMOOTH"
);
}
);
};
layerId = "C76CAC8E-7AD6-478C-8F7E-02FEF6F1EA84";
paths = (
{
closed = 1;
nodes = (
"587 -15 OFFCURVE",
"708 109 OFFCURVE",
"708 335 CURVE SMOOTH",
"708 562 OFFCURVE",
"587 685 OFFCURVE",
"374 685 CURVE SMOOTH",
"161 685 OFFCURVE",
"40 562 OFFCURVE",
"40 335 CURVE SMOOTH",
"40 109 OFFCURVE",
"161 -15 OFFCURVE",
"374 -15 CURVE SMOOTH"
);
},
{
closed = 1;
nodes = (
"249 110 OFFCURVE",
"193 194 OFFCURVE",
"193 335 CURVE SMOOTH",
"193 476 OFFCURVE",
"249 560 OFFCURVE",
"374 560 CURVE SMOOTH",
"499 560 OFFCURVE",
"555 476 OFFCURVE",
"555 335 CURVE SMOOTH",
"555 194 OFFCURVE",
"499 110 OFFCURVE",
"374 110 CURVE SMOOTH"
);
}
);
width = 748;
},
{
background = {
paths = (
{
closed = 1;
nodes = (
"635 -15 OFFCURVE",
"754 109 OFFCURVE",
"754 335 CURVE SMOOTH",
"754 562 OFFCURVE",
"635 685 OFFCURVE",
"397 685 CURVE SMOOTH",
"159 685 OFFCURVE",
"40 562 OFFCURVE",
"40 335 CURVE SMOOTH",
"40 109 OFFCURVE",
"159 -15 OFFCURVE",
"397 -15 CURVE SMOOTH"
);
},
{
closed = 1;
nodes = (
"303 165 OFFCURVE",
"268 226 OFFCURVE",
"268 335 CURVE SMOOTH",
"268 444 OFFCURVE",
"303 505 OFFCURVE",
"397 505 CURVE SMOOTH",
"491 505 OFFCURVE",
"526 444 OFFCURVE",
"526 335 CURVE SMOOTH",
"526 226 OFFCURVE",
"491 165 OFFCURVE",
"397 165 CURVE SMOOTH"
);
}
);
};
layerId = "2D8239A6-199F-4292-A93F-56491AD13939";
paths = (
{
closed = 1;
nodes = (
"620 -15 OFFCURVE",
"736 109 OFFCURVE",
"736 335 CURVE SMOOTH",
"736 562 OFFCURVE",
"620 685 OFFCURVE",
"387 685 CURVE SMOOTH",
"154 685 OFFCURVE",
"39 562 OFFCURVE",
"39 335 CURVE SMOOTH",
"39 109 OFFCURVE",
"154 -15 OFFCURVE",
"387 -15 CURVE SMOOTH"
);
},
{
closed = 1;
nodes = (
"299 165 OFFCURVE",
"267 226 OFFCURVE",
"267 335 CURVE SMOOTH",
"267 444 OFFCURVE",
"299 505 OFFCURVE",
"387 505 CURVE SMOOTH",
"476 505 OFFCURVE",
"508 444 OFFCURVE",
"508 335 CURVE SMOOTH",
"508 226 OFFCURVE",
"476 165 OFFCURVE",
"387 165 CURVE SMOOTH"
);
}
);
width = 775;
userData = {
RMXScaler = {
width = 97;
};
};
},
{
background = {
paths = (
{
closed = 1;
nodes = (
"556 -15 OFFCURVE",
"679 109 OFFCURVE",
"679 335 CURVE SMOOTH",
"679 562 OFFCURVE",
"556 685 OFFCURVE",
"371 685 CURVE SMOOTH",
"186 685 OFFCURVE",
"63 562 OFFCURVE",
"63 335 CURVE SMOOTH",
"63 109 OFFCURVE",
"186 -15 OFFCURVE",
"371 -15 CURVE SMOOTH"
);
},
{
closed = 1;
nodes = (
"211 36 OFFCURVE",
"125 146 OFFCURVE",
"125 335 CURVE SMOOTH",
"125 524 OFFCURVE",
"211 634 OFFCURVE",
"371 634 CURVE SMOOTH",
"531 634 OFFCURVE",
"617 524 OFFCURVE",
"617 335 CURVE SMOOTH",
"617 146 OFFCURVE",
"531 36 OFFCURVE",
"371 36 CURVE SMOOTH"
);
}
);
};
layerId = "EAE779D9-56D9-4706-9B6E-8BCD47BDA60B";
paths = (
{
closed = 1;
nodes = (
"649 -15 OFFCURVE",
"793 109 OFFCURVE",
"793 335 CURVE SMOOTH",
"793 562 OFFCURVE",
"649 685 OFFCURVE",
"434 685 CURVE SMOOTH",
"221 685 OFFCURVE",
"77 562 OFFCURVE",
"77 335 CURVE SMOOTH",
"77 109 OFFCURVE",
"221 -15 OFFCURVE",
"434 -15 CURVE SMOOTH"
);
},
{
closed = 1;
nodes = (
"244 36 OFFCURVE",
"139 146 OFFCURVE",
"139 335 CURVE SMOOTH",
"139 524 OFFCURVE",
"244 634 OFFCURVE",
"434 634 CURVE SMOOTH",
"626 634 OFFCURVE",
"729 524 OFFCURVE",
"729 335 CURVE SMOOTH",
"729 146 OFFCURVE",
"626 36 OFFCURVE",
"434 36 CURVE SMOOTH"
);
}
);
width = 870;
userData = {
RMXScaler = {
width = 108;
};
};
}
);
unicode = 004F;
userData = {
RMXScaler = {
source = O;
};
};
},
{
color = 9;
glyphname = P;
lastChange = "2017-06-29 17:35:38 +0000";
layers = (
{
background = {
paths = (
{
closed = 1;
nodes = (
"223 0 LINE",
"223 670 LINE",
"75 670 LINE",
"75 0 LINE"
);
},
{
closed = 1;
nodes = (
"205 329 LINE",
"205 209 LINE",
"369 209 LINE SMOOTH",
"557 209 OFFCURVE",
"626 293 OFFCURVE",
"626 437 CURVE SMOOTH",
"626 582 OFFCURVE",
"557 670 OFFCURVE",
"379 670 CURVE SMOOTH",
"205 670 LINE",
"205 545 LINE",
"344 545 LINE SMOOTH",
"441 545 OFFCURVE",
"483 522 OFFCURVE",
"483 437 CURVE SMOOTH",
"483 352 OFFCURVE",
"441 329 OFFCURVE",
"344 329 CURVE SMOOTH"
);
}
);
};
layerId = "C76CAC8E-7AD6-478C-8F7E-02FEF6F1EA84";
paths = (
{
closed = 1;
nodes = (
"223 0 LINE",
"223 670 LINE",
"75 670 LINE",
"75 0 LINE"
);
},
{
closed = 1;
nodes = (
"205 354 LINE",
"205 234 LINE",
"369 234 LINE SMOOTH",
"557 234 OFFCURVE",
"626 318 OFFCURVE",
"626 452 CURVE SMOOTH",
"626 587 OFFCURVE",
"557 670 OFFCURVE",
"379 670 CURVE SMOOTH",
"205 670 LINE",
"205 545 LINE",
"344 545 LINE SMOOTH",
"441 545 OFFCURVE",
"483 527 OFFCURVE",
"483 452 CURVE SMOOTH",
"483 377 OFFCURVE",
"441 354 OFFCURVE",
"344 354 CURVE SMOOTH"
);
}
);
width = 656;
},
{
background = {
paths = (
{
closed = 1;
nodes = (
"300 0 LINE",
"300 670 LINE",
"75 670 LINE",
"75 0 LINE"
);
},
{
closed = 1;
nodes = (
"282 359 LINE",
"282 199 LINE",
"436 199 LINE SMOOTH",
"624 199 OFFCURVE",
"705 288 OFFCURVE",
"705 432 CURVE SMOOTH",
"705 587 OFFCURVE",
"624 670 OFFCURVE",
"446 670 CURVE SMOOTH",
"282 670 LINE",
"282 505 LINE",
"411 505 LINE SMOOTH",
"468 505 OFFCURVE",
"490 482 OFFCURVE",
"490 432 CURVE SMOOTH",
"490 382 OFFCURVE",
"468 359 OFFCURVE",
"411 359 CURVE SMOOTH"
);
}
);
};
layerId = "2D8239A6-199F-4292-A93F-56491AD13939";
paths = (
{
closed = 1;
nodes = (
"298 0 LINE",
"298 670 LINE",
"73 670 LINE",
"73 0 LINE"
);
},
{
closed = 1;
nodes = (
"280 359 LINE",
"280 199 LINE",
"429 199 LINE SMOOTH",
"611 199 OFFCURVE",
"691 288 OFFCURVE",
"691 432 CURVE SMOOTH",
"691 587 OFFCURVE",
"611 670 OFFCURVE",
"439 670 CURVE SMOOTH",
"280 670 LINE",
"280 505 LINE",
"405 505 LINE SMOOTH",
"457 505 OFFCURVE",
"476 482 OFFCURVE",
"476 432 CURVE SMOOTH",
"476 382 OFFCURVE",
"457 359 OFFCURVE",
"405 359 CURVE SMOOTH"
);
}
);
width = 731;
userData = {
RMXScaler = {
width = 97;
};
};
},
{
background = {
paths = (
{
closed = 1;
nodes = (
"167 0 LINE",
"167 670 LINE",
"107 670 LINE",
"107 0 LINE"
);
},
{
closed = 1;
nodes = (
"149 331 LINE",
"149 282 LINE",
"347 282 LINE SMOOTH",
"535 282 OFFCURVE",
"590 362 OFFCURVE",
"590 475 CURVE SMOOTH",
"590 610 OFFCURVE",
"512 670 OFFCURVE",
"368 670 CURVE SMOOTH",
"149 670 LINE",
"149 619 LINE",
"354 619 LINE SMOOTH",
"485 619 OFFCURVE",
"533 578 OFFCURVE",
"533 475 CURVE SMOOTH",
"533 371 OFFCURVE",
"485 331 OFFCURVE",
"343 331 CURVE SMOOTH"
);
}
);
};
layerId = "EAE779D9-56D9-4706-9B6E-8BCD47BDA60B";
paths = (
{
closed = 1;
nodes = (
"192 0 LINE",
"192 670 LINE",
"132 670 LINE",
"132 0 LINE"
);
},
{
closed = 1;
nodes = (
"172 331 LINE",
"172 282 LINE",
"407 282 LINE SMOOTH",
"627 282 OFFCURVE",
"690 362 OFFCURVE",
"690 475 CURVE SMOOTH",
"690 610 OFFCURVE",
"597 670 OFFCURVE",
"433 670 CURVE SMOOTH",
"172 670 LINE",
"172 619 LINE",
"419 619 LINE SMOOTH",
"576 619 OFFCURVE",
"633 578 OFFCURVE",
"633 475 CURVE SMOOTH",
"633 371 OFFCURVE",
"576 331 OFFCURVE",
"404 331 CURVE SMOOTH"
);
}
);
width = 745;
userData = {
RMXScaler = {
width = 108;
};
};
}
);
leftMetricsKey = H;
unicode = 0050;
userData = {
RMXScaler = {
source = P;
};
};
},
{
color = 9;
glyphname = Q;
lastChange = "2017-06-29 17:35:38 +0000";
layers = (
{
background = {
paths = (
{
closed = 1;
nodes = (
"701 -90 LINE",
"566 92 LINE",
"523 92 LINE",
"436 225 LINE",
"300 225 LINE",
"438 18 LINE",
"473 18 LINE",
"555 -90 LINE"
);
},
{
closed = 1;
nodes = (
"587 -15 OFFCURVE",
"708 109 OFFCURVE",
"708 335 CURVE SMOOTH",
"708 562 OFFCURVE",
"587 685 OFFCURVE",
"374 685 CURVE SMOOTH",
"161 685 OFFCURVE",
"40 562 OFFCURVE",
"40 335 CURVE SMOOTH",
"40 109 OFFCURVE",
"161 -15 OFFCURVE",
"374 -15 CURVE SMOOTH"
);
},
{
closed = 1;
nodes = (
"246 110 OFFCURVE",
"190 189 OFFCURVE",
"190 335 CURVE SMOOTH",
"190 476 OFFCURVE",
"246 560 OFFCURVE",
"374 560 CURVE SMOOTH",
"502 560 OFFCURVE",
"558 476 OFFCURVE",
"558 335 CURVE SMOOTH",
"558 189 OFFCURVE",
"502 110 OFFCURVE",
"374 110 CURVE SMOOTH"
);
}
);
};
layerId = "C76CAC8E-7AD6-478C-8F7E-02FEF6F1EA84";
paths = (
{
closed = 1;
nodes = (
"701 -90 LINE",
"566 92 LINE",
"538 92 LINE",
"446 225 LINE",
"310 225 LINE",
"448 18 LINE",
"473 18 LINE",
"555 -90 LINE"
);
},
{
closed = 1;
nodes = (
"587 -15 OFFCURVE",
"708 109 OFFCURVE",
"708 335 CURVE SMOOTH",
"708 562 OFFCURVE",
"587 685 OFFCURVE",
"374 685 CURVE SMOOTH",
"161 685 OFFCURVE",
"40 562 OFFCURVE",
"40 335 CURVE SMOOTH",
"40 109 OFFCURVE",
"161 -15 OFFCURVE",
"374 -15 CURVE SMOOTH"
);
},
{
closed = 1;
nodes = (
"246 110 OFFCURVE",
"190 189 OFFCURVE",
"190 335 CURVE SMOOTH",
"190 476 OFFCURVE",
"246 560 OFFCURVE",
"374 560 CURVE SMOOTH",
"502 560 OFFCURVE",
"558 476 OFFCURVE",
"558 335 CURVE SMOOTH",
"558 189 OFFCURVE",
"502 110 OFFCURVE",
"374 110 CURVE SMOOTH"
);
}
);
width = 748;
},
{
background = {
paths = (
{
closed = 1;
nodes = (
"746 -80 LINE",
"611 112 LINE",
"553 112 LINE",
"476 245 LINE",
"315 245 LINE",
"443 38 LINE",
"463 38 LINE",
"550 -80 LINE"
);
},
{
closed = 1;
nodes = (
"635 -15 OFFCURVE",
"754 109 OFFCURVE",
"754 335 CURVE SMOOTH",
"754 562 OFFCURVE",
"635 685 OFFCURVE",
"397 685 CURVE SMOOTH",
"159 685 OFFCURVE",
"40 562 OFFCURVE",
"40 335 CURVE SMOOTH",
"40 109 OFFCURVE",
"159 -15 OFFCURVE",
"397 -15 CURVE SMOOTH"
);
},
{
closed = 1;
nodes = (
"298 160 OFFCURVE",
"263 216 OFFCURVE",
"263 335 CURVE SMOOTH",
"263 444 OFFCURVE",
"298 505 OFFCURVE",
"397 505 CURVE SMOOTH",
"496 505 OFFCURVE",
"531 444 OFFCURVE",
"531 335 CURVE SMOOTH",
"531 216 OFFCURVE",
"496 160 OFFCURVE",
"397 160 CURVE SMOOTH"
);
}
);
};
layerId = "2D8239A6-199F-4292-A93F-56491AD13939";
paths = (
{
closed = 1;
nodes = (
"728 -80 LINE",
"597 112 LINE",
"538 112 LINE",
"464 245 LINE",
"306 245 LINE",
"429 38 LINE",
"448 38 LINE",
"533 -80 LINE"
);
},
{
closed = 1;
nodes = (
"620 -15 OFFCURVE",
"736 109 OFFCURVE",
"736 335 CURVE SMOOTH",
"736 562 OFFCURVE",
"620 685 OFFCURVE",
"387 685 CURVE SMOOTH",
"154 685 OFFCURVE",
"39 562 OFFCURVE",
"39 335 CURVE SMOOTH",
"39 109 OFFCURVE",
"154 -15 OFFCURVE",
"387 -15 CURVE SMOOTH"
);
},
{
closed = 1;
nodes = (
"294 160 OFFCURVE",
"262 216 OFFCURVE",
"262 335 CURVE SMOOTH",
"262 444 OFFCURVE",
"294 505 OFFCURVE",
"387 505 CURVE SMOOTH",
"481 505 OFFCURVE",
"513 444 OFFCURVE",
"513 335 CURVE SMOOTH",
"513 216 OFFCURVE",
"481 160 OFFCURVE",
"387 160 CURVE SMOOTH"
);
}
);
width = 775;
userData = {
RMXScaler = {
width = 97;
};
};
},
{
background = {
paths = (
{
closed = 1;
nodes = (
"641 -101 LINE",
"524 42 LINE",
"519 42 LINE",
"389 202 LINE",
"321 202 LINE",
"475 15 LINE",
"480 15 LINE",
"576 -101 LINE"
);
},
{
closed = 1;
nodes = (
"556 -15 OFFCURVE",
"679 109 OFFCURVE",
"679 335 CURVE SMOOTH",
"679 562 OFFCURVE",
"556 685 OFFCURVE",
"371 685 CURVE SMOOTH",
"186 685 OFFCURVE",
"63 562 OFFCURVE",
"63 335 CURVE SMOOTH",
"63 109 OFFCURVE",
"186 -15 OFFCURVE",
"371 -15 CURVE SMOOTH"
);
},
{
closed = 1;
nodes = (
"211 36 OFFCURVE",
"126 147 OFFCURVE",
"126 335 CURVE SMOOTH",
"126 524 OFFCURVE",
"211 634 OFFCURVE",
"371 634 CURVE SMOOTH",
"531 634 OFFCURVE",
"616 524 OFFCURVE",
"616 335 CURVE SMOOTH",
"616 147 OFFCURVE",
"531 36 OFFCURVE",
"371 36 CURVE SMOOTH"
);
}
);
};
layerId = "EAE779D9-56D9-4706-9B6E-8BCD47BDA60B";
paths = (
{
closed = 1;
nodes = (
"744 -101 LINE",
"610 42 LINE",
"606 42 LINE",
"450 202 LINE",
"378 202 LINE",
"560 15 LINE",
"564 15 LINE",
"677 -101 LINE"
);
},
{
closed = 1;
nodes = (
"649 -15 OFFCURVE",
"793 109 OFFCURVE",
"793 335 CURVE SMOOTH",
"793 562 OFFCURVE",
"649 685 OFFCURVE",
"434 685 CURVE SMOOTH",
"221 685 OFFCURVE",
"77 562 OFFCURVE",
"77 335 CURVE SMOOTH",
"77 109 OFFCURVE",
"221 -15 OFFCURVE",
"434 -15 CURVE SMOOTH"
);
},
{
closed = 1;
nodes = (
"244 36 OFFCURVE",
"142 147 OFFCURVE",
"142 335 CURVE SMOOTH",
"142 524 OFFCURVE",
"244 634 OFFCURVE",
"434 634 CURVE SMOOTH",
"626 634 OFFCURVE",
"728 524 OFFCURVE",
"728 335 CURVE SMOOTH",
"728 147 OFFCURVE",
"626 36 OFFCURVE",
"434 36 CURVE SMOOTH"
);
}
);
width = 870;
userData = {
RMXScaler = {
width = 108;
};
};
}
);
leftMetricsKey = O;
rightMetricsKey = O;
unicode = 0051;
userData = {
RMXScaler = {
source = Q;
};
};
},
{
color = 9;
glyphname = R;
lastChange = "2017-06-29 17:35:38 +0000";
layers = (
{
background = {
paths = (
{
closed = 1;
nodes = (
"223 0 LINE",
"223 670 LINE",
"75 670 LINE",
"75 0 LINE"
);
},
{
closed = 1;
nodes = (
"205 364 LINE",
"205 249 LINE",
"356 249 LINE SMOOTH",
"544 249 OFFCURVE",
"626 328 OFFCURVE",
"626 457 CURVE SMOOTH",
"626 587 OFFCURVE",
"557 670 OFFCURVE",
"379 670 CURVE SMOOTH",
"205 670 LINE",
"205 545 LINE",
"344 545 LINE SMOOTH",
"441 545 OFFCURVE",
"483 527 OFFCURVE",
"483 457 CURVE SMOOTH",
"483 387 OFFCURVE",
"441 364 OFFCURVE",
"344 364 CURVE SMOOTH"
);
},
{
closed = 1;
nodes = (
"621 0 LINE",
"426 313 LINE",
"272 313 LINE",
"461 0 LINE"
);
}
);
};
layerId = "C76CAC8E-7AD6-478C-8F7E-02FEF6F1EA84";
paths = (
{
closed = 1;
nodes = (
"223 0 LINE",
"223 670 LINE",
"75 670 LINE",
"75 0 LINE"
);
},
{
closed = 1;
nodes = (
"205 364 LINE",
"205 249 LINE",
"356 249 LINE SMOOTH",
"544 249 OFFCURVE",
"626 328 OFFCURVE",
"626 457 CURVE SMOOTH",
"626 587 OFFCURVE",
"557 670 OFFCURVE",
"379 670 CURVE SMOOTH",
"205 670 LINE",
"205 545 LINE",
"344 545 LINE SMOOTH",
"441 545 OFFCURVE",
"483 527 OFFCURVE",
"483 457 CURVE SMOOTH",
"483 387 OFFCURVE",
"441 364 OFFCURVE",
"344 364 CURVE SMOOTH"
);
},
{
closed = 1;
nodes = (
"621 0 LINE",
"426 313 LINE",
"272 313 LINE",
"461 0 LINE"
);
}
);
width = 671;
},
{
background = {
paths = (
{
closed = 1;
nodes = (
"300 0 LINE",
"300 670 LINE",
"75 670 LINE",
"75 0 LINE"
);
},
{
closed = 1;
nodes = (
"282 374 LINE",
"282 229 LINE",
"436 229 LINE SMOOTH",
"624 229 OFFCURVE",
"705 303 OFFCURVE",
"705 447 CURVE SMOOTH",
"705 592 OFFCURVE",
"624 670 OFFCURVE",
"446 670 CURVE SMOOTH",
"282 670 LINE",
"282 510 LINE",
"411 510 LINE SMOOTH",
"468 510 OFFCURVE",
"490 487 OFFCURVE",
"490 442 CURVE SMOOTH",
"490 397 OFFCURVE",
"468 374 OFFCURVE",
"411 374 CURVE SMOOTH"
);
},
{
closed = 1;
nodes = (
"715 0 LINE",
"534 298 LINE",
"297 298 LINE",
"465 0 LINE"
);
}
);
};
layerId = "2D8239A6-199F-4292-A93F-56491AD13939";
paths = (
{
closed = 1;
nodes = (
"298 0 LINE",
"298 670 LINE",
"73 670 LINE",
"73 0 LINE"
);
},
{
closed = 1;
nodes = (
"280 374 LINE",
"280 229 LINE",
"430 229 LINE SMOOTH",
"612 229 OFFCURVE",
"691 303 OFFCURVE",
"691 447 CURVE SMOOTH",
"691 592 OFFCURVE",
"611 670 OFFCURVE",
"439 670 CURVE SMOOTH",
"280 670 LINE",
"280 510 LINE",
"405 510 LINE SMOOTH",
"457 510 OFFCURVE",
"476 487 OFFCURVE",
"476 442 CURVE SMOOTH",
"476 397 OFFCURVE",
"457 374 OFFCURVE",
"405 374 CURVE SMOOTH"
);
},
{
closed = 1;
nodes = (
"702 0 LINE",
"528 298 LINE",
"290 298 LINE",
"452 0 LINE"
);
}
);
width = 740;
userData = {
RMXScaler = {
width = 97;
};
};
},
{
background = {
paths = (
{
closed = 1;
nodes = (
"167 0 LINE",
"167 670 LINE",
"107 670 LINE",
"107 0 LINE"
);
},
{
closed = 1;
nodes = (
"149 342 LINE",
"149 294 LINE",
"348 294 LINE SMOOTH",
"536 294 OFFCURVE",
"590 384 OFFCURVE",
"590 480 CURVE SMOOTH",
"590 610 OFFCURVE",
"512 670 OFFCURVE",
"368 670 CURVE SMOOTH",
"149 670 LINE",
"149 619 LINE",
"354 619 LINE SMOOTH",
"485 619 OFFCURVE",
"533 578 OFFCURVE",
"533 480 CURVE SMOOTH",
"533 393 OFFCURVE",
"485 342 OFFCURVE",
"343 342 CURVE SMOOTH"
);
},
{
closed = 1;
nodes = (
"586 0 LINE",
"347 308 LINE",
"281 308 LINE",
"517 0 LINE"
);
}
);
};
layerId = "EAE779D9-56D9-4706-9B6E-8BCD47BDA60B";
paths = (
{
closed = 1;
nodes = (
"192 0 LINE",
"192 670 LINE",
"132 670 LINE",
"132 0 LINE"
);
},
{
closed = 1;
nodes = (
"172 342 LINE",
"172 294 LINE",
"409 294 LINE SMOOTH",
"629 294 OFFCURVE",
"690 384 OFFCURVE",
"690 480 CURVE SMOOTH",
"690 610 OFFCURVE",
"597 670 OFFCURVE",
"433 670 CURVE SMOOTH",
"172 670 LINE",
"172 619 LINE",
"419 619 LINE SMOOTH",
"576 619 OFFCURVE",
"633 578 OFFCURVE",
"633 480 CURVE SMOOTH",
"633 393 OFFCURVE",
"576 342 OFFCURVE",
"404 342 CURVE SMOOTH"
);
},
{
closed = 1;
nodes = (
"685 0 LINE",
"400 308 LINE",
"332 308 LINE",
"613 0 LINE"
);
}
);
width = 784;
userData = {
RMXScaler = {
width = 108;
};
};
}
);
leftMetricsKey = H;
unicode = 0052;
userData = {
RMXScaler = {
source = R;
};
};
},
{
color = 9;
glyphname = S;
lastChange = "2017-06-29 17:35:38 +0000";
layers = (
{
background = {
paths = (
{
closed = 1;
nodes = (
"480 -15 OFFCURVE",
"593 47 OFFCURVE",
"593 186 CURVE SMOOTH",
"593 306 OFFCURVE",
"527 355 OFFCURVE",
"384 385 CURVE SMOOTH",
"307 401 LINE SMOOTH",
"226 418 OFFCURVE",
"188 440 OFFCURVE",
"188 491 CURVE SMOOTH",
"188 538 OFFCURVE",
"220 567 OFFCURVE",
"302 567 CURVE SMOOTH",
"387 567 OFFCURVE",
"419 526 OFFCURVE",
"428 476 CURVE SMOOTH",
"430 465 LINE",
"580 465 LINE",
"578 487 LINE SMOOTH",
"567 606 OFFCURVE",
"489 685 OFFCURVE",
"313 685 CURVE SMOOTH",
"145 685 OFFCURVE",
"45 619 OFFCURVE",
"45 491 CURVE SMOOTH",
"45 370 OFFCURVE",
"121 310 OFFCURVE",
"256 283 CURVE SMOOTH",
"332 268 LINE SMOOTH",
"421 250 OFFCURVE",
"449 229 OFFCURVE",
"449 180 CURVE SMOOTH",
"449 133 OFFCURVE",
"415 103 OFFCURVE",
"330 103 CURVE SMOOTH",
"256 103 OFFCURVE",
"206 122 OFFCURVE",
"195 178 CURVE SMOOTH",
"193 188 LINE",
"40 188 LINE",
"41 171 LINE SMOOTH",
"49 41 OFFCURVE",
"157 -15 OFFCURVE",
"317 -15 CURVE SMOOTH"
);
}
);
};
layerId = "C76CAC8E-7AD6-478C-8F7E-02FEF6F1EA84";
paths = (
{
closed = 1;
nodes = (
"480 -15 OFFCURVE",
"593 47 OFFCURVE",
"593 186 CURVE SMOOTH",
"593 306 OFFCURVE",
"527 355 OFFCURVE",
"384 385 CURVE SMOOTH",
"307 401 LINE SMOOTH",
"228 417 OFFCURVE",
"190 440 OFFCURVE",
"190 491 CURVE SMOOTH",
"190 538 OFFCURVE",
"222 567 OFFCURVE",
"302 567 CURVE SMOOTH",
"391 567 OFFCURVE",
"423 526 OFFCURVE",
"432 476 CURVE SMOOTH",
"434 465 LINE",
"580 465 LINE",
"578 487 LINE SMOOTH",
"567 606 OFFCURVE",
"489 685 OFFCURVE",
"313 685 CURVE SMOOTH",
"145 685 OFFCURVE",
"45 619 OFFCURVE",
"45 491 CURVE SMOOTH",
"45 370 OFFCURVE",
"121 310 OFFCURVE",
"256 283 CURVE SMOOTH",
"332 268 LINE SMOOTH",
"420 251 OFFCURVE",
"448 229 OFFCURVE",
"448 180 CURVE SMOOTH",
"448 133 OFFCURVE",
"414 103 OFFCURVE",
"330 103 CURVE SMOOTH",
"252 103 OFFCURVE",
"202 122 OFFCURVE",
"191 178 CURVE SMOOTH",
"189 188 LINE",
"40 188 LINE",
"41 171 LINE SMOOTH",
"49 41 OFFCURVE",
"157 -15 OFFCURVE",
"317 -15 CURVE SMOOTH"
);
}
);
width = 633;
},
{
background = {
paths = (
{
closed = 1;
nodes = (
"593 -16 OFFCURVE",
"691 56 OFFCURVE",
"691 197 CURVE SMOOTH",
"691 316 OFFCURVE",
"638 381 OFFCURVE",
"477 406 CURVE SMOOTH",
"380 421 LINE SMOOTH",
"294 434 OFFCURVE",
"283 445 OFFCURVE",
"283 476 CURVE SMOOTH",
"283 499 OFFCURVE",
"299 520 OFFCURVE",
"375 520 CURVE SMOOTH",
"446 520 OFFCURVE",
"464 498 OFFCURVE",
"468 470 CURVE SMOOTH",
"469 463 LINE",
"689 463 LINE",
"687 479 LINE SMOOTH",
"668 628 OFFCURVE",
"579 685 OFFCURVE",
"368 685 CURVE SMOOTH",
"150 685 OFFCURVE",
"58 613 OFFCURVE",
"58 469 CURVE SMOOTH",
"58 362 OFFCURVE",
"120 285 OFFCURVE",
"279 261 CURVE SMOOTH",
"365 248 LINE SMOOTH",
"454 235 OFFCURVE",
"466 224 OFFCURVE",
"466 192 CURVE SMOOTH",
"466 160 OFFCURVE",
"439 149 OFFCURVE",
"368 149 CURVE SMOOTH",
"293 149 OFFCURVE",
"274 173 OFFCURVE",
"271 201 CURVE SMOOTH",
"270 212 LINE",
"50 212 LINE",
"51 196 LINE SMOOTH",
"61 36 OFFCURVE",
"177 -16 OFFCURVE",
"372 -16 CURVE SMOOTH"
);
}
);
};
layerId = "2D8239A6-199F-4292-A93F-56491AD13939";
paths = (
{
closed = 1;
nodes = (
"585 -16 OFFCURVE",
"679 56 OFFCURVE",
"679 197 CURVE SMOOTH",
"679 316 OFFCURVE",
"629 381 OFFCURVE",
"471 406 CURVE SMOOTH",
"375 421 LINE SMOOTH",
"291 434 OFFCURVE",
"283 445 OFFCURVE",
"283 476 CURVE SMOOTH",
"283 499 OFFCURVE",
"297 520 OFFCURVE",
"370 520 CURVE SMOOTH",
"437 520 OFFCURVE",
"453 498 OFFCURVE",
"457 470 CURVE SMOOTH",
"458 463 LINE",
"678 463 LINE",
"676 479 LINE SMOOTH",
"657 628 OFFCURVE",
"569 685 OFFCURVE",
"362 685 CURVE SMOOTH",
"146 685 OFFCURVE",
"57 613 OFFCURVE",
"57 469 CURVE SMOOTH",
"57 362 OFFCURVE",
"117 285 OFFCURVE",
"273 261 CURVE SMOOTH",
"357 248 LINE SMOOTH",
"443 235 OFFCURVE",
"454 224 OFFCURVE",
"454 192 CURVE SMOOTH",
"454 160 OFFCURVE",
"428 149 OFFCURVE",
"360 149 CURVE SMOOTH",
"288 149 OFFCURVE",
"272 173 OFFCURVE",
"270 201 CURVE SMOOTH",
"269 212 LINE",
"49 212 LINE",
"50 196 LINE SMOOTH",
"60 36 OFFCURVE",
"173 -16 OFFCURVE",
"366 -16 CURVE SMOOTH"
);
}
);
width = 728;
userData = {
RMXScaler = {
width = 97;
};
};
},
{
background = {
paths = (
{
closed = 1;
nodes = (
"456 -14 OFFCURVE",
"569 25 OFFCURVE",
"569 162 CURVE SMOOTH",
"569 283 OFFCURVE",
"478 328 OFFCURVE",
"368 354 CURVE SMOOTH",
"304 369 LINE SMOOTH",
"210 391 OFFCURVE",
"146 428 OFFCURVE",
"146 513 CURVE SMOOTH",
"146 598 OFFCURVE",
"214 636 OFFCURVE",
"320 636 CURVE SMOOTH",
"441 636 OFFCURVE",
"499 590 OFFCURVE",
"510 498 CURVE SMOOTH",
"511 490 LINE",
"572 490 LINE",
"571 499 LINE SMOOTH",
"558 620 OFFCURVE",
"471 685 OFFCURVE",
"319 685 CURVE SMOOTH",
"175 685 OFFCURVE",
"88 617 OFFCURVE",
"88 507 CURVE SMOOTH",
"88 381 OFFCURVE",
"186 339 OFFCURVE",
"297 313 CURVE SMOOTH",
"362 298 LINE SMOOTH",
"454 277 OFFCURVE",
"512 237 OFFCURVE",
"512 157 CURVE SMOOTH",
"512 71 OFFCURVE",
"445 35 OFFCURVE",
"325 35 CURVE SMOOTH",
"213 35 OFFCURVE",
"145 72 OFFCURVE",
"133 154 CURVE SMOOTH",
"132 161 LINE",
"71 161 LINE",
"71 158 LINE SMOOTH",
"71 49 OFFCURVE",
"164 -14 OFFCURVE",
"326 -14 CURVE SMOOTH"
);
}
);
};
layerId = "EAE779D9-56D9-4706-9B6E-8BCD47BDA60B";
paths = (
{
closed = 1;
nodes = (
"533 -14 OFFCURVE",
"665 28 OFFCURVE",
"665 165 CURVE SMOOTH",
"665 286 OFFCURVE",
"556 336 OFFCURVE",
"431 357 CURVE SMOOTH",
"358 369 LINE SMOOTH",
"246 387 OFFCURVE",
"168 428 OFFCURVE",
"168 513 CURVE SMOOTH",
"168 593 OFFCURVE",
"252 636 OFFCURVE",
"378 636 CURVE SMOOTH",
"524 636 OFFCURVE",
"596 590 OFFCURVE",
"608 498 CURVE SMOOTH",
"609 490 LINE",
"671 490 LINE",
"670 499 LINE SMOOTH",
"657 620 OFFCURVE",
"552 685 OFFCURVE",
"377 685 CURVE SMOOTH",
"210 685 OFFCURVE",
"110 617 OFFCURVE",
"110 507 CURVE SMOOTH",
"110 381 OFFCURVE",
"227 334 OFFCURVE",
"355 313 CURVE SMOOTH",
"428 301 LINE SMOOTH",
"537 283 OFFCURVE",
"608 240 OFFCURVE",
"608 160 CURVE SMOOTH",
"608 74 OFFCURVE",
"526 35 OFFCURVE",
"382 35 CURVE SMOOTH",
"247 35 OFFCURVE",
"164 72 OFFCURVE",
"152 154 CURVE SMOOTH",
"151 161 LINE",
"88 161 LINE",
"88 158 LINE SMOOTH",
"88 49 OFFCURVE",
"194 -14 OFFCURVE",
"384 -14 CURVE SMOOTH"
);
}
);
width = 758;
userData = {
RMXScaler = {
width = 108;
};
};
}
);
unicode = 0053;
userData = {
RMXScaler = {
source = S;
};
};
},
{
color = 9;
glyphname = T;
lastChange = "2017-06-29 17:35:38 +0000";
layers = (
{
background = {
paths = (
{
closed = 1;
nodes = (
"360 0 LINE",
"360 620 LINE",
"215 620 LINE",
"215 0 LINE"
);
},
{
closed = 1;
nodes = (
"562 550 LINE",
"562 670 LINE",
"15 670 LINE",
"15 550 LINE"
);
}
);
};
layerId = "C76CAC8E-7AD6-478C-8F7E-02FEF6F1EA84";
paths = (
{
closed = 1;
nodes = (
"363 0 LINE",
"363 620 LINE",
"215 620 LINE",
"215 0 LINE"
);
},
{
closed = 1;
nodes = (
"568 545 LINE",
"568 670 LINE",
"10 670 LINE",
"10 545 LINE"
);
}
);
width = 578;
},
{
background = {
paths = (
{
closed = 1;
nodes = (
"435 0 LINE",
"435 620 LINE",
"210 620 LINE",
"210 0 LINE"
);
},
{
closed = 1;
nodes = (
"630 490 LINE",
"630 670 LINE",
"15 670 LINE",
"15 490 LINE"
);
}
);
};
layerId = "2D8239A6-199F-4292-A93F-56491AD13939";
paths = (
{
closed = 1;
nodes = (
"428 0 LINE",
"428 620 LINE",
"203 620 LINE",
"203 0 LINE"
);
},
{
closed = 1;
nodes = (
"616 490 LINE",
"616 670 LINE",
"15 670 LINE",
"15 490 LINE"
);
}
);
width = 631;
userData = {
RMXScaler = {
width = 97;
};
};
},
{
background = {
paths = (
{
closed = 1;
nodes = (
"285 0 LINE",
"285 631 LINE",
"226 631 LINE",
"226 0 LINE"
);
},
{
closed = 1;
nodes = (
"502 616 LINE",
"502 670 LINE",
"9 670 LINE",
"9 616 LINE"
);
}
);
};
layerId = "EAE779D9-56D9-4706-9B6E-8BCD47BDA60B";
paths = (
{
closed = 1;
nodes = (
"325 0 LINE",
"325 631 LINE",
"266 631 LINE",
"266 0 LINE"
);
},
{
closed = 1;
nodes = (
"581 616 LINE",
"581 670 LINE",
"11 670 LINE",
"11 616 LINE"
);
}
);
width = 592;
userData = {
RMXScaler = {
width = 108;
};
};
}
);
unicode = 0054;
userData = {
RMXScaler = {
source = T;
};
};
},
{
color = 9;
glyphname = U;
lastChange = "2017-06-29 17:35:38 +0000";
layers = (
{
background = {
paths = (
{
closed = 1;
nodes = (
"581 -15 OFFCURVE",
"702 109 OFFCURVE",
"702 335 CURVE SMOOTH",
"702 562 OFFCURVE",
"581 685 OFFCURVE",
"363 685 CURVE SMOOTH",
"145 685 OFFCURVE",
"24 562 OFFCURVE",
"24 335 CURVE SMOOTH",
"24 109 OFFCURVE",
"145 -15 OFFCURVE",
"363 -15 CURVE SMOOTH"
);
},
{
closed = 1;
nodes = (
"233 110 OFFCURVE",
"177 194 OFFCURVE",
"177 335 CURVE SMOOTH",
"177 476 OFFCURVE",
"233 560 OFFCURVE",
"363 560 CURVE SMOOTH",
"493 560 OFFCURVE",
"549 476 OFFCURVE",
"549 335 CURVE SMOOTH",
"549 194 OFFCURVE",
"493 110 OFFCURVE",
"363 110 CURVE SMOOTH"
);
}
);
};
layerId = "C76CAC8E-7AD6-478C-8F7E-02FEF6F1EA84";
paths = (
{
closed = 1;
nodes = (
"70 670 LINE",
"70 295 LINE SMOOTH",
"70 79 OFFCURVE",
"165 -15 OFFCURVE",
"363 -15 CURVE SMOOTH",
"561 -15 OFFCURVE",
"656 79 OFFCURVE",
"656 295 CURVE SMOOTH",
"656 670 LINE",
"508 670 LINE",
"508 305 LINE SMOOTH",
"508 164 OFFCURVE",
"468 110 OFFCURVE",
"363 110 CURVE SMOOTH",
"258 110 OFFCURVE",
"218 164 OFFCURVE",
"218 305 CURVE SMOOTH",
"218 670 LINE"
);
}
);
width = 726;
},
{
background = {
paths = (
{
closed = 1;
nodes = (
"70 670 LINE",
"70 305 LINE SMOOTH",
"70 79 OFFCURVE",
"166 -15 OFFCURVE",
"395 -15 CURVE SMOOTH",
"624 -15 OFFCURVE",
"720 79 OFFCURVE",
"720 305 CURVE SMOOTH",
"720 670 LINE",
"495 670 LINE",
"495 315 LINE SMOOTH",
"495 216 OFFCURVE",
"480 170 OFFCURVE",
"395 170 CURVE SMOOTH",
"310 170 OFFCURVE",
"295 216 OFFCURVE",
"295 315 CURVE SMOOTH",
"295 670 LINE"
);
}
);
};
layerId = "2D8239A6-199F-4292-A93F-56491AD13939";
paths = (
{
closed = 1;
nodes = (
"68 670 LINE",
"68 305 LINE SMOOTH",
"68 79 OFFCURVE",
"161 -15 OFFCURVE",
"386 -15 CURVE SMOOTH",
"611 -15 OFFCURVE",
"704 79 OFFCURVE",
"704 305 CURVE SMOOTH",
"704 670 LINE",
"479 670 LINE",
"479 315 LINE SMOOTH",
"479 216 OFFCURVE",
"467 170 OFFCURVE",
"386 170 CURVE SMOOTH",
"305 170 OFFCURVE",
"293 216 OFFCURVE",
"293 315 CURVE SMOOTH",
"293 670 LINE"
);
}
);
width = 772;
userData = {
RMXScaler = {
width = 97;
};
};
},
{
background = {
paths = (
{
closed = 1;
nodes = (
"98 670 LINE",
"98 272 LINE SMOOTH",
"98 68 OFFCURVE",
"191 -15 OFFCURVE",
"355 -15 CURVE SMOOTH",
"519 -15 OFFCURVE",
"612 68 OFFCURVE",
"612 272 CURVE SMOOTH",
"612 670 LINE",
"552 670 LINE",
"552 282 LINE SMOOTH",
"552 88 OFFCURVE",
"484 36 OFFCURVE",
"355 36 CURVE SMOOTH",
"226 36 OFFCURVE",
"158 88 OFFCURVE",
"158 282 CURVE SMOOTH",
"158 670 LINE"
);
}
);
};
layerId = "EAE779D9-56D9-4706-9B6E-8BCD47BDA60B";
paths = (
{
closed = 1;
nodes = (
"121 670 LINE",
"121 272 LINE SMOOTH",
"121 68 OFFCURVE",
"229 -15 OFFCURVE",
"418 -15 CURVE SMOOTH",
"606 -15 OFFCURVE",
"714 68 OFFCURVE",
"714 272 CURVE SMOOTH",
"714 670 LINE",
"654 670 LINE",
"654 282 LINE SMOOTH",
"654 88 OFFCURVE",
"571 36 OFFCURVE",
"418 36 CURVE SMOOTH",
"264 36 OFFCURVE",
"181 88 OFFCURVE",
"181 282 CURVE SMOOTH",
"181 670 LINE"
);
}
);
width = 835;
userData = {
RMXScaler = {
width = 108;
};
};
}
);
unicode = 0055;
userData = {
RMXScaler = {
source = U;
};
};
},
{
color = 9;
glyphname = V;
lastChange = "2017-06-29 17:35:38 +0000";
layers = (
{
background = {
paths = (
{
closed = 1;
nodes = (
"360 0 LINE",
"163 670 LINE",
"5 670 LINE",
"225 0 LINE"
);
},
{
closed = 1;
nodes = (
"652 670 LINE",
"494 670 LINE",
"297 0 LINE",
"432 0 LINE"
);
}
);
};
layerId = "C76CAC8E-7AD6-478C-8F7E-02FEF6F1EA84";
paths = (
{
closed = 1;
nodes = (
"332 120 LINE",
"325 120 LINE",
"163 670 LINE",
"5 670 LINE",
"225 0 LINE",
"432 0 LINE",
"652 670 LINE",
"494 670 LINE"
);
}
);
width = 657;
},
{
background = {
paths = (
{
closed = 1;
nodes = (
"363 170 LINE",
"352 170 LINE",
"240 670 LINE",
"5 670 LINE",
"194 0 LINE",
"521 0 LINE",
"710 670 LINE",
"475 670 LINE"
);
}
);
};
layerId = "2D8239A6-199F-4292-A93F-56491AD13939";
paths = (
{
closed = 1;
nodes = (
"355 170 LINE",
"344 170 LINE",
"240 670 LINE",
"5 670 LINE",
"186 0 LINE",
"513 0 LINE",
"694 670 LINE",
"459 670 LINE"
);
}
);
width = 699;
userData = {
RMXScaler = {
width = 97;
};
};
},
{
background = {
paths = (
{
closed = 1;
nodes = (
"319 65 LINE",
"312 65 LINE",
"92 670 LINE",
"26 670 LINE",
"280 0 LINE",
"351 0 LINE",
"605 670 LINE",
"539 670 LINE"
);
}
);
};
layerId = "EAE779D9-56D9-4706-9B6E-8BCD47BDA60B";
paths = (
{
closed = 1;
nodes = (
"374 67 LINE",
"365 67 LINE",
"99 670 LINE",
"34 670 LINE",
"335 0 LINE",
"403 0 LINE",
"704 670 LINE",
"639 670 LINE"
);
}
);
width = 738;
userData = {
RMXScaler = {
width = 108;
};
};
}
);
unicode = 0056;
userData = {
RMXScaler = {
source = V;
};
};
},
{
color = 9;
glyphname = W;
lastChange = "2017-06-29 17:35:38 +0000";
layers = (
{
background = {
paths = (
{
closed = 1;
nodes = (
"290 0 LINE",
"163 670 LINE",
"5 670 LINE",
"160 0 LINE"
);
},
{
closed = 1;
nodes = (
"504 670 LINE",
"384 670 LINE",
"247 0 LINE",
"374 0 LINE"
);
},
{
closed = 1;
nodes = (
"720 0 LINE",
"583 670 LINE",
"463 670 LINE",
"593 0 LINE"
);
},
{
closed = 1;
nodes = (
"962 670 LINE",
"804 670 LINE",
"677 0 LINE",
"807 0 LINE"
);
}
);
};
layerId = "C76CAC8E-7AD6-478C-8F7E-02FEF6F1EA84";
paths = (
{
closed = 1;
nodes = (
"701 125 LINE",
"693 125 LINE",
"583 670 LINE",
"384 670 LINE",
"274 125 LINE",
"266 125 LINE",
"163 670 LINE",
"5 670 LINE",
"160 0 LINE",
"374 0 LINE",
"479 545 LINE",
"488 545 LINE",
"593 0 LINE",
"807 0 LINE",
"962 670 LINE",
"804 670 LINE"
);
}
);
width = 967;
},
{
background = {
paths = (
{
closed = 1;
nodes = (
"766 180 LINE",
"757 180 LINE",
"670 670 LINE",
"425 670 LINE",
"339 180 LINE",
"330 180 LINE",
"240 670 LINE",
"5 670 LINE",
"169 0 LINE",
"466 0 LINE",
"544 443 LINE",
"551 443 LINE",
"629 0 LINE",
"926 0 LINE",
"1090 670 LINE",
"855 670 LINE"
);
}
);
};
layerId = "2D8239A6-199F-4292-A93F-56491AD13939";
paths = (
{
closed = 1;
nodes = (
"749 180 LINE",
"740 180 LINE",
"658 670 LINE",
"416 670 LINE",
"335 180 LINE",
"326 180 LINE",
"240 670 LINE",
"5 670 LINE",
"165 0 LINE",
"460 0 LINE",
"533 443 LINE",
"540 443 LINE",
"613 0 LINE",
"909 0 LINE",
"1068 670 LINE",
"834 670 LINE"
);
}
);
width = 1073;
userData = {
RMXScaler = {
width = 97;
};
};
},
{
background = {
paths = (
{
closed = 1;
nodes = (
"686 65 LINE",
"681 65 LINE",
"512 670 LINE",
"433 670 LINE",
"263 65 LINE",
"259 65 LINE",
"91 670 LINE",
"26 670 LINE",
"222 0 LINE",
"301 0 LINE",
"470 607 LINE",
"475 607 LINE",
"644 0 LINE",
"723 0 LINE",
"919 670 LINE",
"854 670 LINE"
);
}
);
};
layerId = "EAE779D9-56D9-4706-9B6E-8BCD47BDA60B";
paths = (
{
closed = 1;
nodes = (
"803 65 LINE",
"797 65 LINE",
"593 670 LINE",
"513 670 LINE",
"308 65 LINE",
"303 65 LINE",
"99 670 LINE",
"34 670 LINE",
"268 0 LINE",
"345 0 LINE",
"550 607 LINE",
"556 607 LINE",
"761 0 LINE",
"838 0 LINE",
"1072 670 LINE",
"1007 670 LINE"
);
}
);
width = 1106;
userData = {
RMXScaler = {
width = 108;
};
};
}
);
leftMetricsKey = V;
rightMetricsKey = V;
unicode = 0057;
userData = {
RMXScaler = {
source = W;
};
};
},
{
color = 9;
glyphname = X;
lastChange = "2017-06-29 17:35:38 +0000";
layers = (
{
background = {
paths = (
{
closed = 1;
nodes = (
"168 0 LINE",
"341 296 LINE",
"407 296 LINE",
"638 670 LINE",
"475 670 LINE",
"307 378 LINE",
"239 378 LINE",
"5 0 LINE"
);
},
{
closed = 1;
nodes = (
"638 0 LINE",
"409 378 LINE",
"342 378 LINE",
"168 670 LINE",
"5 670 LINE",
"229 296 LINE",
"299 296 LINE",
"475 0 LINE"
);
}
);
};
layerId = "C76CAC8E-7AD6-478C-8F7E-02FEF6F1EA84";
paths = (
{
closed = 1;
nodes = (
"168 0 LINE",
"341 296 LINE",
"407 296 LINE",
"638 670 LINE",
"475 670 LINE",
"307 378 LINE",
"239 378 LINE",
"5 0 LINE"
);
},
{
closed = 1;
nodes = (
"638 0 LINE",
"387 414 LINE",
"321 414 LINE",
"168 670 LINE",
"5 670 LINE",
"254 255 LINE",
"324 255 LINE",
"475 0 LINE"
);
}
);
width = 643;
},
{
background = {
paths = (
{
closed = 1;
nodes = (
"260 0 LINE",
"413 317 LINE",
"523 317 LINE",
"719 670 LINE",
"479 670 LINE",
"336 371 LINE",
"227 371 LINE",
"20 0 LINE"
);
},
{
closed = 1;
nodes = (
"721 0 LINE",
"475 452 LINE",
"366 452 LINE",
"262 670 LINE",
"22 670 LINE",
"266 220 LINE",
"375 220 LINE",
"481 0 LINE"
);
}
);
};
layerId = "2D8239A6-199F-4292-A93F-56491AD13939";
paths = (
{
closed = 1;
nodes = (
"260 0 LINE",
"407 317 LINE",
"518 317 LINE",
"705 670 LINE",
"465 670 LINE",
"329 371 LINE",
"219 371 LINE",
"21 0 LINE"
);
},
{
closed = 1;
nodes = (
"707 0 LINE",
"469 452 LINE",
"359 452 LINE",
"263 670 LINE",
"23 670 LINE",
"259 220 LINE",
"368 220 LINE",
"467 0 LINE"
);
}
);
width = 728;
userData = {
RMXScaler = {
width = 97;
};
};
},
{
background = {
paths = (
{
closed = 1;
nodes = (
"120 0 LINE",
"355 321 LINE",
"378 321 LINE",
"632 670 LINE",
"562 670 LINE",
"332 351 LINE",
"310 351 LINE",
"50 0 LINE"
);
},
{
closed = 1;
nodes = (
"639 0 LINE",
"377 361 LINE",
"352 361 LINE",
"126 670 LINE",
"56 670 LINE",
"313 313 LINE",
"338 313 LINE",
"569 0 LINE"
);
}
);
};
layerId = "EAE779D9-56D9-4706-9B6E-8BCD47BDA60B";
paths = (
{
closed = 1;
nodes = (
"127 0 LINE",
"383 321 LINE",
"406 321 LINE",
"682 670 LINE",
"611 670 LINE",
"362 351 LINE",
"338 351 LINE",
"56 0 LINE"
);
},
{
closed = 1;
nodes = (
"690 0 LINE",
"397 369 LINE",
"372 369 LINE",
"134 670 LINE",
"63 670 LINE",
"349 304 LINE",
"373 304 LINE",
"619 0 LINE"
);
}
);
width = 746;
userData = {
RMXScaler = {
width = 108;
};
};
}
);
unicode = 0058;
userData = {
RMXScaler = {
source = X;
};
};
},
{
color = 9;
glyphname = Y;
lastChange = "2017-06-29 17:35:38 +0000";
layers = (
{
background = {
paths = (
{
closed = 1;
nodes = (
"407 0 LINE",
"407 293 LINE",
"401 240 LINE",
"661 670 LINE",
"498 670 LINE",
"312 350 LINE",
"354 350 LINE",
"168 670 LINE",
"5 670 LINE",
"265 240 LINE",
"259 293 LINE",
"259 0 LINE"
);
}
);
};
layerId = "C76CAC8E-7AD6-478C-8F7E-02FEF6F1EA84";
paths = (
{
closed = 1;
nodes = (
"407 0 LINE",
"407 293 LINE",
"401 240 LINE",
"661 670 LINE",
"498 670 LINE",
"336 390 LINE",
"330 390 LINE",
"168 670 LINE",
"5 670 LINE",
"265 240 LINE",
"259 293 LINE",
"259 0 LINE"
);
}
);
width = 666;
},
{
background = {
paths = (
{
closed = 1;
nodes = (
"484 0 LINE",
"484 283 LINE",
"478 230 LINE",
"738 670 LINE",
"503 670 LINE",
"375 444 LINE",
"368 444 LINE",
"240 670 LINE",
"5 670 LINE",
"265 230 LINE",
"259 283 LINE",
"259 0 LINE"
);
}
);
};
layerId = "2D8239A6-199F-4292-A93F-56491AD13939";
paths = (
{
closed = 1;
nodes = (
"476 0 LINE",
"476 283 LINE",
"470 230 LINE",
"723 670 LINE",
"488 670 LINE",
"367 444 LINE",
"360 444 LINE",
"239 670 LINE",
"5 670 LINE",
"257 230 LINE",
"251 283 LINE",
"251 0 LINE"
);
}
);
width = 728;
userData = {
RMXScaler = {
width = 97;
};
};
},
{
background = {
paths = (
{
closed = 1;
nodes = (
"317 0 LINE",
"317 304 LINE",
"311 251 LINE",
"571 670 LINE",
"503 670 LINE",
"289 320 LINE",
"286 320 LINE",
"72 670 LINE",
"4 670 LINE",
"264 251 LINE",
"258 304 LINE",
"258 0 LINE"
);
}
);
};
layerId = "EAE779D9-56D9-4706-9B6E-8BCD47BDA60B";
paths = (
{
closed = 1;
nodes = (
"361 0 LINE",
"361 304 LINE",
"355 251 LINE",
"659 670 LINE",
"590 670 LINE",
"333 320 LINE",
"330 320 LINE",
"75 670 LINE",
"5 670 LINE",
"310 251 LINE",
"302 304 LINE",
"302 0 LINE"
);
}
);
width = 664;
userData = {
RMXScaler = {
width = 108;
};
};
}
);
unicode = 0059;
userData = {
RMXScaler = {
source = Y;
};
};
},
{
color = 9;
glyphname = Z;
lastChange = "2017-06-29 17:35:38 +0000";
layers = (
{
background = {
paths = (
{
closed = 1;
nodes = (
"571 550 LINE",
"571 670 LINE",
"55 670 LINE",
"55 545 LINE",
"399 545 LINE",
"45 120 LINE",
"45 0 LINE",
"571 0 LINE",
"571 125 LINE",
"217 125 LINE"
);
}
);
};
layerId = "C76CAC8E-7AD6-478C-8F7E-02FEF6F1EA84";
paths = (
{
closed = 1;
nodes = (
"222 131 LINE",
"571 550 LINE",
"571 670 LINE",
"55 670 LINE",
"55 545 LINE",
"404 545 LINE",
"393 560 LINE",
"393 538 LINE",
"45 120 LINE",
"45 0 LINE",
"571 0 LINE",
"571 125 LINE",
"212 125 LINE",
"222 112 LINE"
);
}
);
width = 616;
},
{
background = {
paths = (
{
closed = 1;
nodes = (
"348 188 LINE",
"656 495 LINE",
"656 670 LINE",
"70 670 LINE",
"70 490 LINE",
"381 490 LINE",
"368 502 LINE",
"368 482 LINE",
"60 175 LINE",
"60 0 LINE",
"656 0 LINE",
"656 180 LINE",
"333 180 LINE",
"348 163 LINE"
);
}
);
};
layerId = "2D8239A6-199F-4292-A93F-56491AD13939";
paths = (
{
closed = 1;
nodes = (
"348 188 LINE",
"643 495 LINE",
"643 670 LINE",
"69 670 LINE",
"69 490 LINE",
"367 490 LINE",
"354 502 LINE",
"354 482 LINE",
"59 175 LINE",
"59 0 LINE",
"643 0 LINE",
"643 180 LINE",
"333 180 LINE",
"348 163 LINE"
);
}
);
width = 702;
userData = {
RMXScaler = {
width = 97;
};
};
},
{
background = {
paths = (
{
closed = 1;
nodes = (
"136 56 LINE",
"515 621 LINE",
"515 670 LINE",
"73 670 LINE",
"73 616 LINE",
"451 616 LINE",
"442 635 LINE",
"442 614 LINE",
"63 49 LINE",
"63 0 LINE",
"515 0 LINE",
"515 54 LINE",
"132 54 LINE",
"136 45 LINE"
);
}
);
};
layerId = "EAE779D9-56D9-4706-9B6E-8BCD47BDA60B";
paths = (
{
closed = 1;
nodes = (
"154 58 LINE",
"598 621 LINE",
"598 670 LINE",
"89 670 LINE",
"89 616 LINE",
"531 616 LINE",
"521 635 LINE",
"521 612 LINE",
"77 49 LINE",
"77 0 LINE",
"598 0 LINE",
"598 54 LINE",
"139 54 LINE",
"154 45 LINE"
);
}
);
width = 675;
userData = {
RMXScaler = {
width = 108;
};
};
}
);
unicode = 005A;
userData = {
RMXScaler = {
source = Z;
};
};
},
{
color = 9;
glyphname = a;
lastChange = "2017-06-29 17:35:38 +0000";
layers = (
{
background = {
paths = (
{
closed = 1;
nodes = (
"310 -15 OFFCURVE",
"374 20 OFFCURVE",
"403 82 CURVE",
"394 75 LINE",
"421 75 LINE",
"401 84 LINE",
"417 0 LINE",
"538 0 LINE",
"538 344 LINE SMOOTH",
"538 471 OFFCURVE",
"473 540 OFFCURVE",
"309 540 CURVE SMOOTH",
"161 540 OFFCURVE",
"83 484 OFFCURVE",
"68 388 CURVE SMOOTH",
"64 362 LINE",
"209 362 LINE",
"213 377 LINE SMOOTH",
"222 410 OFFCURVE",
"245 430 OFFCURVE",
"306 430 CURVE SMOOTH",
"374 430 OFFCURVE",
"401 403 OFFCURVE",
"401 342 CURVE SMOOTH",
"401 218 LINE SMOOTH",
"401 122 OFFCURVE",
"329 90 OFFCURVE",
"264 90 CURVE SMOOTH",
"205 90 OFFCURVE",
"180 106 OFFCURVE",
"180 145 CURVE SMOOTH",
"180 178 OFFCURVE",
"198 199 OFFCURVE",
"261 211 CURVE SMOOTH",
"410 239 LINE SMOOTH",
"450 247 OFFCURVE",
"487 270 OFFCURVE",
"490 309 CURVE",
"490 370 LINE",
"463 370 LINE",
"461 345 OFFCURVE",
"447 331 OFFCURVE",
"410 325 CURVE SMOOTH",
"226 294 LINE SMOOTH",
"90 271 OFFCURVE",
"40 221 OFFCURVE",
"40 134 CURVE SMOOTH",
"40 32 OFFCURVE",
"103 -15 OFFCURVE",
"224 -15 CURVE SMOOTH"
);
}
);
};
layerId = "C76CAC8E-7AD6-478C-8F7E-02FEF6F1EA84";
paths = (
{
closed = 1;
nodes = (
"324 -13 OFFCURVE",
"373 17 OFFCURVE",
"389 79 CURVE",
"380 72 LINE",
"407 72 LINE",
"395 81 LINE",
"410 0 LINE",
"524 0 LINE",
"524 374 LINE SMOOTH",
"524 481 OFFCURVE",
"447 540 OFFCURVE",
"307 540 CURVE SMOOTH",
"162 540 OFFCURVE",
"79 484 OFFCURVE",
"67 388 CURVE SMOOTH",
"65 372 LINE",
"207 372 LINE",
"209 383 LINE SMOOTH",
"215 415 OFFCURVE",
"246 430 OFFCURVE",
"304 430 CURVE SMOOTH",
"368 430 OFFCURVE",
"390 403 OFFCURVE",
"390 362 CURVE SMOOTH",
"390 178 LINE SMOOTH",
"390 122 OFFCURVE",
"360 89 OFFCURVE",
"273 89 CURVE SMOOTH",
"206 89 OFFCURVE",
"186 114 OFFCURVE",
"186 153 CURVE SMOOTH",
"186 186 OFFCURVE",
"206 209 OFFCURVE",
"251 214 CURVE SMOOTH",
"395 232 LINE SMOOTH",
"435 237 OFFCURVE",
"472 263 OFFCURVE",
"475 302 CURVE",
"475 363 LINE",
"448 363 LINE",
"446 338 OFFCURVE",
"432 323 OFFCURVE",
"395 318 CURVE SMOOTH",
"226 297 LINE SMOOTH",
"97 281 OFFCURVE",
"46 224 OFFCURVE",
"46 137 CURVE SMOOTH",
"46 45 OFFCURVE",
"111 -13 OFFCURVE",
"238 -13 CURVE SMOOTH"
);
}
);
width = 589;
},
{
background = {
paths = (
{
closed = 1;
nodes = (
"333 -13 OFFCURVE",
"392 15 OFFCURVE",
"419 71 CURVE",
"378 67 LINE",
"444 67 LINE",
"421 85 LINE",
"442 0 LINE",
"621 0 LINE",
"621 334 LINE SMOOTH",
"621 486 OFFCURVE",
"531 550 OFFCURVE",
"355 550 CURVE SMOOTH",
"184 550 OFFCURVE",
"101 495 OFFCURVE",
"77 368 CURVE SMOOTH",
"73 347 LINE",
"276 347 LINE",
"278 359 LINE SMOOTH",
"283 388 OFFCURVE",
"306 403 OFFCURVE",
"349 403 CURVE SMOOTH",
"397 403 OFFCURVE",
"416 384 OFFCURVE",
"416 337 CURVE SMOOTH",
"416 192 LINE SMOOTH",
"416 148 OFFCURVE",
"382 118 OFFCURVE",
"324 118 CURVE SMOOTH",
"282 118 OFFCURVE",
"261 131 OFFCURVE",
"261 162 CURVE SMOOTH",
"261 191 OFFCURVE",
"278 205 OFFCURVE",
"322 210 CURVE SMOOTH",
"447 224 LINE SMOOTH",
"487 228 OFFCURVE",
"526 257 OFFCURVE",
"529 294 CURVE",
"529 371 LINE",
"502 371 LINE",
"500 351 OFFCURVE",
"486 335 OFFCURVE",
"449 331 CURVE SMOOTH",
"230 307 LINE SMOOTH",
"100 293 OFFCURVE",
"50 233 OFFCURVE",
"50 146 CURVE SMOOTH",
"50 41 OFFCURVE",
"121 -13 OFFCURVE",
"249 -13 CURVE SMOOTH"
);
}
);
};
layerId = "2D8239A6-199F-4292-A93F-56491AD13939";
paths = (
{
closed = 1;
nodes = (
"324 -13 OFFCURVE",
"382 15 OFFCURVE",
"409 71 CURVE",
"367 67 LINE",
"434 67 LINE",
"411 85 LINE",
"432 0 LINE",
"611 0 LINE",
"611 334 LINE SMOOTH",
"611 486 OFFCURVE",
"522 550 OFFCURVE",
"349 550 CURVE SMOOTH",
"181 550 OFFCURVE",
"100 495 OFFCURVE",
"76 368 CURVE SMOOTH",
"72 347 LINE",
"274 347 LINE",
"276 359 LINE SMOOTH",
"281 388 OFFCURVE",
"302 403 OFFCURVE",
"343 403 CURVE SMOOTH",
"388 403 OFFCURVE",
"406 384 OFFCURVE",
"406 337 CURVE SMOOTH",
"406 192 LINE SMOOTH",
"406 148 OFFCURVE",
"373 118 OFFCURVE",
"319 118 CURVE SMOOTH",
"280 118 OFFCURVE",
"260 131 OFFCURVE",
"260 162 CURVE SMOOTH",
"260 191 OFFCURVE",
"276 205 OFFCURVE",
"318 210 CURVE SMOOTH",
"438 224 LINE SMOOTH",
"477 228 OFFCURVE",
"515 257 OFFCURVE",
"518 294 CURVE",
"518 371 LINE",
"492 371 LINE",
"490 351 OFFCURVE",
"476 335 OFFCURVE",
"440 331 CURVE SMOOTH",
"223 307 LINE SMOOTH",
"97 293 OFFCURVE",
"49 233 OFFCURVE",
"49 146 CURVE SMOOTH",
"49 41 OFFCURVE",
"118 -13 OFFCURVE",
"243 -13 CURVE SMOOTH"
);
}
);
width = 666;
userData = {
RMXScaler = {
width = 97;
};
};
},
{
background = {
paths = (
{
closed = 1;
nodes = (
"341 -15 OFFCURVE",
"398 35 OFFCURVE",
"418 88 CURVE",
"404 82 LINE",
"425 82 LINE",
"416 101 LINE",
"423 0 LINE",
"466 0 LINE",
"466 369 LINE SMOOTH",
"466 475 OFFCURVE",
"409 529 OFFCURVE",
"290 529 CURVE SMOOTH",
"180 529 OFFCURVE",
"120 474 OFFCURVE",
"111 380 CURVE SMOOTH",
"110 370 LINE",
"165 370 LINE",
"166 378 LINE SMOOTH",
"174 444 OFFCURVE",
"204 483 OFFCURVE",
"290 483 CURVE SMOOTH",
"372 483 OFFCURVE",
"414 445 OFFCURVE",
"414 370 CURVE SMOOTH",
"414 182 LINE SMOOTH",
"414 101 OFFCURVE",
"348 30 OFFCURVE",
"252 30 CURVE SMOOTH",
"179 30 OFFCURVE",
"143 67 OFFCURVE",
"143 128 CURVE SMOOTH",
"143 185 OFFCURVE",
"173 223 OFFCURVE",
"245 234 CURVE SMOOTH",
"398 257 LINE SMOOTH",
"438 263 OFFCURVE",
"453 265 OFFCURVE",
"456 306 CURVE",
"456 349 LINE",
"449 349 LINE",
"447 318 OFFCURVE",
"434 303 OFFCURVE",
"396 298 CURVE SMOOTH",
"245 277 LINE SMOOTH",
"136 262 OFFCURVE",
"88 209 OFFCURVE",
"88 122 CURVE SMOOTH",
"88 33 OFFCURVE",
"147 -15 OFFCURVE",
"253 -15 CURVE SMOOTH"
);
}
);
};
layerId = "EAE779D9-56D9-4706-9B6E-8BCD47BDA60B";
paths = (
{
closed = 1;
nodes = (
"387 -15 OFFCURVE",
"473 38 OFFCURVE",
"497 91 CURVE",
"484 85 LINE",
"508 85 LINE",
"498 101 LINE",
"505 0 LINE",
"548 0 LINE",
"548 359 LINE SMOOTH",
"548 475 OFFCURVE",
"478 529 OFFCURVE",
"335 529 CURVE SMOOTH",
"193 529 OFFCURVE",
"124 474 OFFCURVE",
"115 380 CURVE SMOOTH",
"114 370 LINE",
"169 370 LINE",
"170 378 LINE SMOOTH",
"178 444 OFFCURVE",
"215 483 OFFCURVE",
"335 483 CURVE SMOOTH",
"439 483 OFFCURVE",
"496 445 OFFCURVE",
"496 360 CURVE SMOOTH",
"496 182 LINE SMOOTH",
"496 101 OFFCURVE",
"392 30 OFFCURVE",
"279 30 CURVE SMOOTH",
"187 30 OFFCURVE",
"143 67 OFFCURVE",
"143 128 CURVE SMOOTH",
"143 185 OFFCURVE",
"180 222 OFFCURVE",
"284 234 CURVE SMOOTH",
"474 257 LINE SMOOTH",
"522 263 OFFCURVE",
"537 265 OFFCURVE",
"540 306 CURVE",
"540 349 LINE",
"535 349 LINE",
"532 318 OFFCURVE",
"516 303 OFFCURVE",
"472 298 CURVE SMOOTH",
"287 277 LINE SMOOTH",
"144 261 OFFCURVE",
"88 209 OFFCURVE",
"88 122 CURVE SMOOTH",
"88 33 OFFCURVE",
"156 -15 OFFCURVE",
"284 -15 CURVE SMOOTH"
);
}
);
width = 641;
userData = {
RMXScaler = {
width = 108;
};
};
}
);
rightMetricsKey = n;
unicode = 0061;
userData = {
RMXScaler = {
source = a;
};
};
},
{
color = 9;
glyphname = b;
lastChange = "2017-06-29 17:35:38 +0000";
layers = (
{
background = {
paths = (
{
closed = 1;
nodes = (
"213 122 LINE",
"213 730 LINE",
"73 730 LINE",
"73 0 LINE",
"196 0 LINE"
);
},
{
closed = 1;
nodes = (
"184 442 LINE",
"184 81 LINE",
"213 81 LINE",
"243 28 OFFCURVE",
"287 -15 OFFCURVE",
"368 -15 CURVE SMOOTH",
"522 -15 OFFCURVE",
"602 101 OFFCURVE",
"602 264 CURVE SMOOTH",
"602 426 OFFCURVE",
"532 540 OFFCURVE",
"378 540 CURVE SMOOTH",
"280 540 OFFCURVE",
"233 476 OFFCURVE",
"219 442 CURVE"
);
},
{
closed = 1;
nodes = (
"254 107 OFFCURVE",
"213 164 OFFCURVE",
"213 264 CURVE SMOOTH",
"213 364 OFFCURVE",
"254 418 OFFCURVE",
"338 418 CURVE SMOOTH",
"424 418 OFFCURVE",
"457 364 OFFCURVE",
"457 264 CURVE SMOOTH",
"457 164 OFFCURVE",
"424 107 OFFCURVE",
"338 107 CURVE SMOOTH"
);
}
);
};
layerId = "C76CAC8E-7AD6-478C-8F7E-02FEF6F1EA84";
paths = (
{
closed = 1;
nodes = (
"73 730 LINE",
"73 0 LINE",
"196 0 LINE",
"211 85 LINE",
"218 85 LINE",
"249 19 OFFCURVE",
"305 -14 OFFCURVE",
"379 -14 CURVE SMOOTH",
"522 -14 OFFCURVE",
"608 90 OFFCURVE",
"608 263 CURVE SMOOTH",
"608 436 OFFCURVE",
"522 540 OFFCURVE",
"379 540 CURVE SMOOTH",
"305 540 OFFCURVE",
"249 508 OFFCURVE",
"218 446 CURVE",
"213 446 LINE",
"213 730 LINE"
);
},
{
closed = 1;
nodes = (
"256 106 OFFCURVE",
"213 161 OFFCURVE",
"213 263 CURVE SMOOTH",
"213 365 OFFCURVE",
"256 420 OFFCURVE",
"337 420 CURVE SMOOTH",
"422 420 OFFCURVE",
"463 370 OFFCURVE",
"463 263 CURVE SMOOTH",
"463 156 OFFCURVE",
"422 106 OFFCURVE",
"337 106 CURVE SMOOTH"
);
}
);
width = 648;
},
{
background = {
paths = (
{
closed = 1;
nodes = (
"65 730 LINE",
"65 0 LINE",
"255 0 LINE",
"272 80 LINE",
"286 80 LINE",
"307 35 OFFCURVE",
"361 -14 OFFCURVE",
"451 -14 CURVE SMOOTH",
"590 -14 OFFCURVE",
"672 93 OFFCURVE",
"672 268 CURVE SMOOTH",
"672 443 OFFCURVE",
"590 550 OFFCURVE",
"451 550 CURVE SMOOTH",
"361 550 OFFCURVE",
"307 501 OFFCURVE",
"286 456 CURVE",
"280 456 LINE",
"280 730 LINE"
);
},
{
closed = 1;
nodes = (
"309 158 OFFCURVE",
"280 194 OFFCURVE",
"280 268 CURVE SMOOTH",
"280 342 OFFCURVE",
"309 378 OFFCURVE",
"366 378 CURVE SMOOTH",
"426 378 OFFCURVE",
"452 342 OFFCURVE",
"452 268 CURVE SMOOTH",
"452 194 OFFCURVE",
"426 158 OFFCURVE",
"366 158 CURVE SMOOTH"
);
}
);
};
layerId = "2D8239A6-199F-4292-A93F-56491AD13939";
paths = (
{
closed = 1;
nodes = (
"62 730 LINE",
"62 0 LINE",
"252 0 LINE",
"269 80 LINE",
"283 80 LINE",
"302 35 OFFCURVE",
"355 -14 OFFCURVE",
"443 -14 CURVE SMOOTH",
"578 -14 OFFCURVE",
"657 93 OFFCURVE",
"657 268 CURVE SMOOTH",
"657 443 OFFCURVE",
"578 550 OFFCURVE",
"443 550 CURVE SMOOTH",
"355 550 OFFCURVE",
"302 501 OFFCURVE",
"283 456 CURVE",
"277 456 LINE",
"277 730 LINE"
);
},
{
closed = 1;
nodes = (
"304 158 OFFCURVE",
"277 194 OFFCURVE",
"277 268 CURVE SMOOTH",
"277 342 OFFCURVE",
"304 378 OFFCURVE",
"357 378 CURVE SMOOTH",
"413 378 OFFCURVE",
"437 342 OFFCURVE",
"437 268 CURVE SMOOTH",
"437 194 OFFCURVE",
"413 158 OFFCURVE",
"357 158 CURVE SMOOTH"
);
}
);
width = 691;
userData = {
RMXScaler = {
width = 97;
};
};
},
{
background = {
components = (
{
name = d;
transform = "{-1, 0, 0, 1, 598, 0}";
}
);
};
layerId = "EAE779D9-56D9-4706-9B6E-8BCD47BDA60B";
paths = (
{
closed = 1;
nodes = (
"109 730 LINE",
"109 0 LINE",
"150 0 LINE",
"164 96 LINE",
"168 96 LINE",
"197 46 OFFCURVE",
"250 -15 OFFCURVE",
"365 -15 CURVE SMOOTH",
"528 -15 OFFCURVE",
"619 87 OFFCURVE",
"619 257 CURVE SMOOTH",
"619 428 OFFCURVE",
"528 529 OFFCURVE",
"368 529 CURVE SMOOTH",
"241 529 OFFCURVE",
"192 464 OFFCURVE",
"168 425 CURVE",
"164 425 LINE",
"164 730 LINE"
);
},
{
closed = 1;
nodes = (
"233 32 OFFCURVE",
"161 139 OFFCURVE",
"161 257 CURVE SMOOTH",
"161 391 OFFCURVE",
"234 482 OFFCURVE",
"370 482 CURVE SMOOTH",
"496 482 OFFCURVE",
"563 402 OFFCURVE",
"563 257 CURVE SMOOTH",
"563 113 OFFCURVE",
"496 32 OFFCURVE",
"369 32 CURVE SMOOTH"
);
}
);
width = 685;
userData = {
RMXScaler = {
width = 108;
};
};
}
);
leftMetricsKey = h;
rightMetricsKey = "=o";
unicode = 0062;
userData = {
RMXScaler = {
source = b;
};
};
},
{
color = 9;
glyphname = c;
lastChange = "2017-07-04 09:19:39 +0000";
layers = (
{
background = {
paths = (
{
closed = 1;
nodes = (
"437 -15 OFFCURVE",
"523 41 OFFCURVE",
"534 168 CURVE SMOOTH",
"535 180 LINE",
"394 180 LINE",
"393 173 LINE SMOOTH",
"386 125 OFFCURVE",
"363 100 OFFCURVE",
"302 100 CURVE SMOOTH",
"220 100 OFFCURVE",
"186 160 OFFCURVE",
"186 264 CURVE SMOOTH",
"186 368 OFFCURVE",
"220 425 OFFCURVE",
"303 425 CURVE SMOOTH",
"361 425 OFFCURVE",
"386 402 OFFCURVE",
"392 354 CURVE SMOOTH",
"393 347 LINE",
"534 347 LINE",
"533 359 LINE SMOOTH",
"522 486 OFFCURVE",
"436 540 OFFCURVE",
"299 540 CURVE SMOOTH",
"132 540 OFFCURVE",
"40 439 OFFCURVE",
"40 264 CURVE SMOOTH",
"40 88 OFFCURVE",
"132 -15 OFFCURVE",
"298 -15 CURVE SMOOTH"
);
}
);
};
layerId = "C76CAC8E-7AD6-478C-8F7E-02FEF6F1EA84";
paths = (
{
closed = 1;
nodes = (
"438 -15 OFFCURVE",
"535 41 OFFCURVE",
"546 178 CURVE SMOOTH",
"547 190 LINE",
"404 190 LINE",
"403 183 LINE SMOOTH",
"395 125 OFFCURVE",
"360 100 OFFCURVE",
"299 100 CURVE SMOOTH",
"217 100 OFFCURVE",
"186 160 OFFCURVE",
"186 264 CURVE SMOOTH",
"186 368 OFFCURVE",
"216 425 OFFCURVE",
"299 425 CURVE SMOOTH",
"357 425 OFFCURVE",
"395 400 OFFCURVE",
"403 342 CURVE SMOOTH",
"404 335 LINE",
"547 335 LINE",
"546 347 LINE SMOOTH",
"535 484 OFFCURVE",
"436 540 OFFCURVE",
"299 540 CURVE SMOOTH",
"132 540 OFFCURVE",
"40 439 OFFCURVE",
"40 264 CURVE SMOOTH",
"40 88 OFFCURVE",
"132 -15 OFFCURVE",
"299 -15 CURVE SMOOTH"
);
}
);
width = 587;
},
{
background = {
paths = (
{
closed = 1;
nodes = (
"504 -15 OFFCURVE",
"596 60 OFFCURVE",
"604 198 CURVE SMOOTH",
"605 215 LINE",
"406 215 LINE",
"405 208 LINE SMOOTH",
"401 180 OFFCURVE",
"383 155 OFFCURVE",
"332 155 CURVE SMOOTH",
"265 155 OFFCURVE",
"255 215 OFFCURVE",
"255 264 CURVE SMOOTH",
"255 323 OFFCURVE",
"265 380 OFFCURVE",
"333 380 CURVE SMOOTH",
"381 380 OFFCURVE",
"401 355 OFFCURVE",
"405 327 CURVE SMOOTH",
"406 320 LINE",
"605 320 LINE",
"604 337 LINE SMOOTH",
"597 464 OFFCURVE",
"504 550 OFFCURVE",
"323 550 CURVE SMOOTH",
"147 550 OFFCURVE",
"35 449 OFFCURVE",
"35 264 CURVE SMOOTH",
"35 88 OFFCURVE",
"147 -15 OFFCURVE",
"323 -15 CURVE SMOOTH"
);
}
);
};
layerId = "2D8239A6-199F-4292-A93F-56491AD13939";
paths = (
{
closed = 1;
nodes = (
"495 -15 OFFCURVE",
"583 60 OFFCURVE",
"591 198 CURVE SMOOTH",
"592 215 LINE",
"394 215 LINE",
"393 208 LINE SMOOTH",
"390 180 OFFCURVE",
"374 155 OFFCURVE",
"325 155 CURVE SMOOTH",
"262 155 OFFCURVE",
"254 215 OFFCURVE",
"254 264 CURVE SMOOTH",
"254 323 OFFCURVE",
"262 380 OFFCURVE",
"326 380 CURVE SMOOTH",
"372 380 OFFCURVE",
"390 355 OFFCURVE",
"393 327 CURVE SMOOTH",
"394 320 LINE",
"592 320 LINE",
"591 337 LINE SMOOTH",
"584 464 OFFCURVE",
"495 550 OFFCURVE",
"316 550 CURVE SMOOTH",
"144 550 OFFCURVE",
"34 449 OFFCURVE",
"34 264 CURVE SMOOTH",
"34 88 OFFCURVE",
"144 -15 OFFCURVE",
"316 -15 CURVE SMOOTH"
);
}
);
width = 626;
userData = {
RMXScaler = {
width = 97;
};
};
},
{
background = {
paths = (
{
closed = 1;
nodes = (
"400 -15 OFFCURVE",
"473 49 OFFCURVE",
"488 155 CURVE SMOOTH",
"489 162 LINE",
"432 162 LINE",
"430 151 LINE SMOOTH",
"416 74 OFFCURVE",
"367 32 OFFCURVE",
"280 32 CURVE SMOOTH",
"173 32 OFFCURVE",
"111 112 OFFCURVE",
"111 264 CURVE SMOOTH",
"111 402 OFFCURVE",
"173 482 OFFCURVE",
"278 482 CURVE SMOOTH",
"360 482 OFFCURVE",
"407 442 OFFCURVE",
"429 363 CURVE SMOOTH",
"432 352 LINE",
"489 352 LINE",
"487 363 LINE SMOOTH",
"470 455 OFFCURVE",
"405 529 OFFCURVE",
"280 529 CURVE SMOOTH",
"149 529 OFFCURVE",
"54 436 OFFCURVE",
"54 264 CURVE SMOOTH",
"54 78 OFFCURVE",
"149 -15 OFFCURVE",
"280 -15 CURVE SMOOTH"
);
}
);
};
layerId = "EAE779D9-56D9-4706-9B6E-8BCD47BDA60B";
paths = (
{
closed = 1;
nodes = (
"465 -15 OFFCURVE",
"551 49 OFFCURVE",
"566 155 CURVE SMOOTH",
"567 162 LINE",
"510 162 LINE",
"508 151 LINE SMOOTH",
"494 74 OFFCURVE",
"432 32 OFFCURVE",
"326 32 CURVE SMOOTH",
"199 32 OFFCURVE",
"123 112 OFFCURVE",
"123 264 CURVE SMOOTH",
"123 402 OFFCURVE",
"199 482 OFFCURVE",
"324 482 CURVE SMOOTH",
"423 482 OFFCURVE",
"483 444 OFFCURVE",
"505 363 CURVE SMOOTH",
"508 352 LINE",
"567 352 LINE",
"565 363 LINE SMOOTH",
"548 455 OFFCURVE",
"472 529 OFFCURVE",
"326 529 CURVE SMOOTH",
"178 529 OFFCURVE",
"66 436 OFFCURVE",
"66 264 CURVE SMOOTH",
"66 78 OFFCURVE",
"178 -15 OFFCURVE",
"326 -15 CURVE SMOOTH"
);
}
);
width = 633;
userData = {
RMXScaler = {
width = 108;
};
};
}
);
leftMetricsKey = "=o";
rightMetricsKey = o;
unicode = 0063;
userData = {
RMXScaler = {
source = c;
};
};
},
{
glyphname = d;
lastChange = "2017-07-04 09:23:44 +0000";
layers = (
{
background = {
paths = (
{
closed = 1;
nodes = (
"435 446 LINE",
"430 446 LINE",
"399 508 OFFCURVE",
"343 540 OFFCURVE",
"269 540 CURVE SMOOTH",
"126 540 OFFCURVE",
"40 436 OFFCURVE",
"40 263 CURVE SMOOTH",
"40 90 OFFCURVE",
"126 -14 OFFCURVE",
"269 -14 CURVE SMOOTH",
"343 -14 OFFCURVE",
"399 19 OFFCURVE",
"430 85 CURVE",
"437 85 LINE",
"452 0 LINE",
"575 0 LINE",
"575 730 LINE",
"435 730 LINE"
);
},
{
closed = 1;
nodes = (
"226 106 OFFCURVE",
"185 156 OFFCURVE",
"185 263 CURVE SMOOTH",
"185 370 OFFCURVE",
"226 420 OFFCURVE",
"311 420 CURVE SMOOTH",
"392 420 OFFCURVE",
"435 365 OFFCURVE",
"435 263 CURVE SMOOTH",
"435 161 OFFCURVE",
"392 106 OFFCURVE",
"311 106 CURVE SMOOTH"
);
}
);
};
components = (
{
name = b;
transform = "{-1, 0, 0, 1, 648, 0}";
}
);
guideLines = (
{
position = "{946, 418}";
}
);
layerId = "C76CAC8E-7AD6-478C-8F7E-02FEF6F1EA84";
width = 648;
},
{
background = {
paths = (
{
closed = 1;
nodes = (
"414 456 LINE",
"408 456 LINE",
"389 501 OFFCURVE",
"336 550 OFFCURVE",
"248 550 CURVE SMOOTH",
"113 550 OFFCURVE",
"34 443 OFFCURVE",
"34 268 CURVE SMOOTH",
"34 93 OFFCURVE",
"113 -14 OFFCURVE",
"248 -14 CURVE SMOOTH",
"336 -14 OFFCURVE",
"389 35 OFFCURVE",
"408 80 CURVE",
"422 80 LINE",
"439 0 LINE",
"629 0 LINE",
"629 730 LINE",
"414 730 LINE"
);
},
{
closed = 1;
nodes = (
"278 158 OFFCURVE",
"254 194 OFFCURVE",
"254 268 CURVE SMOOTH",
"254 342 OFFCURVE",
"278 378 OFFCURVE",
"334 378 CURVE SMOOTH",
"387 378 OFFCURVE",
"414 342 OFFCURVE",
"414 268 CURVE SMOOTH",
"414 194 OFFCURVE",
"387 158 OFFCURVE",
"334 158 CURVE SMOOTH"
);
}
);
};
components = (
{
name = b;
transform = "{-1, 0, 0, 1, 691, 0}";
}
);
layerId = "2D8239A6-199F-4292-A93F-56491AD13939";
width = 691;
userData = {
RMXScaler = {
width = 97;
};
};
},
{
background = {
paths = (
{
closed = 1;
nodes = (
"452 425 LINE",
"448 425 LINE",
"427 464 OFFCURVE",
"387 529 OFFCURVE",
"281 529 CURVE SMOOTH",
"141 529 OFFCURVE",
"60 428 OFFCURVE",
"60 257 CURVE SMOOTH",
"60 87 OFFCURVE",
"133 -14 OFFCURVE",
"281 -14 CURVE SMOOTH",
"377 -14 OFFCURVE",
"423 48 OFFCURVE",
"448 101 CURVE",
"452 101 LINE",
"465 0 LINE",
"507 0 LINE",
"507 730 LINE",
"452 730 LINE"
);
},
{
closed = 1;
nodes = (
"168 33 OFFCURVE",
"116 113 OFFCURVE",
"116 257 CURVE SMOOTH",
"116 402 OFFCURVE",
"173 482 OFFCURVE",
"281 482 CURVE SMOOTH",
"394 482 OFFCURVE",
"457 381 OFFCURVE",
"457 257 CURVE SMOOTH",
"457 149 OFFCURVE",
"394 33 OFFCURVE",
"281 33 CURVE SMOOTH"
);
}
);
};
components = (
{
name = b;
transform = "{-1, 0, 0, 1, 685, 0}";
}
);
layerId = "EAE779D9-56D9-4706-9B6E-8BCD47BDA60B";
width = 685;
userData = {
RMXScaler = {
width = 108;
};
};
}
);
leftMetricsKey = "=o";
unicode = 0064;
userData = {
RMXScaler = {
source = d;
};
};
},
{
color = 9;
glyphname = e;
lastChange = "2017-06-29 17:35:38 +0000";
layers = (
{
background = {
paths = (
{
closed = 1;
nodes = (
"441 -15 OFFCURVE",
"526 39 OFFCURVE",
"543 136 CURVE SMOOTH",
"545 147 LINE",
"404 147 LINE",
"402 141 LINE SMOOTH",
"393 113 OFFCURVE",
"360 100 OFFCURVE",
"305 100 CURVE SMOOTH",
"224 100 OFFCURVE",
"182 141 OFFCURVE",
"182 225 CURVE SMOOTH",
"182 306 LINE SMOOTH",
"182 387 OFFCURVE",
"233 429 OFFCURVE",
"300 429 CURVE SMOOTH",
"381 429 OFFCURVE",
"410 391 OFFCURVE",
"410 306 CURVE SMOOTH",
"410 287 LINE",
"427 311 LINE",
"148 311 LINE",
"148 221 LINE",
"549 221 LINE",
"549 284 LINE SMOOTH",
"549 442 OFFCURVE",
"472 540 OFFCURVE",
"302 540 CURVE SMOOTH",
"145 540 OFFCURVE",
"40 444 OFFCURVE",
"40 259 CURVE SMOOTH",
"40 93 OFFCURVE",
"125 -15 OFFCURVE",
"306 -15 CURVE SMOOTH"
);
}
);
};
guideLines = (
{
angle = 91.7357;
position = "{529, 225}";
}
);
layerId = "C76CAC8E-7AD6-478C-8F7E-02FEF6F1EA84";
paths = (
{
closed = 1;
nodes = (
"441 -15 OFFCURVE",
"525 39 OFFCURVE",
"543 136 CURVE SMOOTH",
"545 147 LINE",
"404 147 LINE",
"402 141 LINE SMOOTH",
"393 113 OFFCURVE",
"360 100 OFFCURVE",
"305 100 CURVE SMOOTH",
"209 100 OFFCURVE",
"182 143 OFFCURVE",
"182 262 CURVE SMOOTH",
"182 376 OFFCURVE",
"209 429 OFFCURVE",
"300 429 CURVE SMOOTH",
"381 429 OFFCURVE",
"410 391 OFFCURVE",
"410 306 CURVE SMOOTH",
"410 287 LINE",
"427 311 LINE",
"148 311 LINE",
"148 221 LINE",
"549 221 LINE",
"549 284 LINE SMOOTH",
"549 442 OFFCURVE",
"472 540 OFFCURVE",
"302 540 CURVE SMOOTH",
"145 540 OFFCURVE",
"40 444 OFFCURVE",
"40 259 CURVE SMOOTH",
"40 93 OFFCURVE",
"125 -15 OFFCURVE",
"306 -15 CURVE SMOOTH"
);
}
);
width = 589;
},
{
background = {
paths = (
{
closed = 1;
nodes = (
"524 -16 OFFCURVE",
"599 67 OFFCURVE",
"615 172 CURVE SMOOTH",
"617 185 LINE",
"417 185 LINE",
"413 176 LINE SMOOTH",
"402 151 OFFCURVE",
"376 142 OFFCURVE",
"335 142 CURVE SMOOTH",
"257 142 OFFCURVE",
"242 172 OFFCURVE",
"242 275 CURVE SMOOTH",
"242 358 OFFCURVE",
"260 393 OFFCURVE",
"334 393 CURVE SMOOTH",
"394 393 OFFCURVE",
"417 361 OFFCURVE",
"417 313 CURVE SMOOTH",
"417 286 LINE",
"459 316 LINE",
"217 316 LINE",
"217 226 LINE",
"619 226 LINE",
"618 290 LINE SMOOTH",
"615 453 OFFCURVE",
"509 550 OFFCURVE",
"330 550 CURVE SMOOTH",
"147 550 OFFCURVE",
"35 444 OFFCURVE",
"35 267 CURVE SMOOTH",
"35 94 OFFCURVE",
"138 -16 OFFCURVE",
"330 -16 CURVE SMOOTH"
);
}
);
};
layerId = "2D8239A6-199F-4292-A93F-56491AD13939";
paths = (
{
closed = 1;
nodes = (
"516 -16 OFFCURVE",
"587 67 OFFCURVE",
"603 172 CURVE SMOOTH",
"605 185 LINE",
"406 185 LINE",
"402 176 LINE SMOOTH",
"391 151 OFFCURVE",
"367 142 OFFCURVE",
"328 142 CURVE SMOOTH",
"254 142 OFFCURVE",
"240 172 OFFCURVE",
"240 275 CURVE SMOOTH",
"240 358 OFFCURVE",
"257 393 OFFCURVE",
"327 393 CURVE SMOOTH",
"384 393 OFFCURVE",
"406 361 OFFCURVE",
"406 313 CURVE SMOOTH",
"406 286 LINE",
"448 316 LINE",
"217 316 LINE",
"217 226 LINE",
"606 226 LINE",
"605 290 LINE SMOOTH",
"603 453 OFFCURVE",
"497 550 OFFCURVE",
"323 550 CURVE SMOOTH",
"143 550 OFFCURVE",
"34 444 OFFCURVE",
"34 267 CURVE SMOOTH",
"34 94 OFFCURVE",
"135 -16 OFFCURVE",
"323 -16 CURVE SMOOTH"
);
}
);
width = 640;
userData = {
RMXScaler = {
width = 97;
};
};
},
{
background = {
paths = (
{
closed = 1;
nodes = (
"404 -15 OFFCURVE",
"462 45 OFFCURVE",
"483 114 CURVE SMOOTH",
"486 124 LINE",
"429 124 LINE",
"426 116 LINE SMOOTH",
"407 66 OFFCURVE",
"370 32 OFFCURVE",
"283 32 CURVE SMOOTH",
"173 32 OFFCURVE",
"108 112 OFFCURVE",
"108 249 CURVE SMOOTH",
"108 402 OFFCURVE",
"173 482 OFFCURVE",
"283 482 CURVE SMOOTH",
"393 482 OFFCURVE",
"441 395 OFFCURVE",
"441 278 CURVE SMOOTH",
"441 248 LINE",
"451 280 LINE",
"88 280 LINE",
"88 235 LINE",
"491 235 LINE",
"491 280 LINE SMOOTH",
"491 433 OFFCURVE",
"417 529 OFFCURVE",
"283 529 CURVE SMOOTH",
"149 529 OFFCURVE",
"54 436 OFFCURVE",
"54 250 CURVE SMOOTH",
"54 78 OFFCURVE",
"149 -15 OFFCURVE",
"282 -15 CURVE SMOOTH"
);
}
);
};
layerId = "EAE779D9-56D9-4706-9B6E-8BCD47BDA60B";
paths = (
{
closed = 1;
nodes = (
"470 -15 OFFCURVE",
"538 45 OFFCURVE",
"559 114 CURVE SMOOTH",
"562 124 LINE",
"505 124 LINE",
"502 116 LINE SMOOTH",
"482 64 OFFCURVE",
"435 32 OFFCURVE",
"330 32 CURVE SMOOTH",
"200 32 OFFCURVE",
"120 112 OFFCURVE",
"120 249 CURVE SMOOTH",
"120 402 OFFCURVE",
"200 482 OFFCURVE",
"331 482 CURVE SMOOTH",
"463 482 OFFCURVE",
"521 395 OFFCURVE",
"521 278 CURVE SMOOTH",
"521 248 LINE",
"531 280 LINE",
"98 280 LINE",
"98 235 LINE",
"569 235 LINE",
"569 280 LINE SMOOTH",
"569 433 OFFCURVE",
"483 529 OFFCURVE",
"331 529 CURVE SMOOTH",
"176 529 OFFCURVE",
"66 436 OFFCURVE",
"66 250 CURVE SMOOTH",
"66 78 OFFCURVE",
"178 -15 OFFCURVE",
"328 -15 CURVE SMOOTH"
);
}
);
width = 635;
userData = {
RMXScaler = {
width = 108;
};
};
}
);
leftMetricsKey = "=o";
rightMetricsKey = o;
unicode = 0065;
userData = {
RMXScaler = {
source = e;
};
};
},
{
color = 9;
glyphname = f;
lastChange = "2017-06-29 17:35:38 +0000";
layers = (
{
background = {
paths = (
{
closed = 1;
nodes = (
"415 410 LINE",
"415 525 LINE",
"30 525 LINE",
"30 410 LINE"
);
},
{
closed = 1;
nodes = (
"411 739 OFFCURVE",
"357 745 OFFCURVE",
"326 745 CURVE SMOOTH",
"191 745 OFFCURVE",
"120 699 OFFCURVE",
"120 539 CURVE SMOOTH",
"120 0 LINE",
"260 0 LINE",
"260 536 LINE SMOOTH",
"260 613 OFFCURVE",
"273 630 OFFCURVE",
"353 630 CURVE SMOOTH",
"373 630 OFFCURVE",
"416 627 OFFCURVE",
"430 625 CURVE",
"430 735 LINE"
);
}
);
};
layerId = "C76CAC8E-7AD6-478C-8F7E-02FEF6F1EA84";
paths = (
{
closed = 1;
nodes = (
"388 410 LINE",
"388 525 LINE",
"31 525 LINE",
"31 410 LINE"
);
},
{
closed = 1;
nodes = (
"374 742 OFFCURVE",
"337 746 OFFCURVE",
"304 746 CURVE SMOOTH",
"179 746 OFFCURVE",
"120 680 OFFCURVE",
"120 562 CURVE SMOOTH",
"120 0 LINE",
"260 0 LINE",
"260 553 LINE SMOOTH",
"260 612 OFFCURVE",
"285 629 OFFCURVE",
"335 629 CURVE SMOOTH",
"357 629 OFFCURVE",
"383 626 OFFCURVE",
"394 624 CURVE",
"394 738 LINE"
);
}
);
width = 404;
},
{
background = {
paths = (
{
closed = 1;
nodes = (
"457 375 LINE",
"457 535 LINE",
"30 535 LINE",
"30 375 LINE"
);
},
{
closed = 1;
nodes = (
"451 737 OFFCURVE",
"407 745 OFFCURVE",
"346 745 CURVE SMOOTH",
"191 745 OFFCURVE",
"115 709 OFFCURVE",
"115 549 CURVE SMOOTH",
"115 0 LINE",
"330 0 LINE",
"330 526 LINE SMOOTH",
"330 573 OFFCURVE",
"333 590 OFFCURVE",
"383 590 CURVE SMOOTH",
"433 590 OFFCURVE",
"456 585 OFFCURVE",
"470 583 CURVE",
"470 733 LINE"
);
}
);
};
layerId = "2D8239A6-199F-4292-A93F-56491AD13939";
paths = (
{
closed = 1;
nodes = (
"449 375 LINE",
"449 535 LINE",
"29 535 LINE",
"29 375 LINE"
);
},
{
closed = 1;
nodes = (
"444 737 OFFCURVE",
"401 745 OFFCURVE",
"339 745 CURVE SMOOTH",
"186 745 OFFCURVE",
"111 709 OFFCURVE",
"111 549 CURVE SMOOTH",
"111 0 LINE",
"326 0 LINE",
"326 526 LINE SMOOTH",
"326 573 OFFCURVE",
"327 590 OFFCURVE",
"376 590 CURVE SMOOTH",
"427 590 OFFCURVE",
"449 585 OFFCURVE",
"462 583 CURVE",
"462 733 LINE"
);
}
);
width = 461;
userData = {
RMXScaler = {
width = 97;
};
};
},
{
background = {
paths = (
{
closed = 1;
nodes = (
"323 464 LINE",
"323 514 LINE",
"28 514 LINE",
"28 464 LINE"
);
},
{
closed = 1;
nodes = (
"329 742 OFFCURVE",
"308 745 OFFCURVE",
"288 745 CURVE SMOOTH",
"187 745 OFFCURVE",
"128 692 OFFCURVE",
"128 562 CURVE SMOOTH",
"128 0 LINE",
"183 0 LINE",
"183 559 LINE SMOOTH",
"183 656 OFFCURVE",
"211 696 OFFCURVE",
"291 696 CURVE SMOOTH",
"311 696 OFFCURVE",
"335 692 OFFCURVE",
"343 690 CURVE",
"343 738 LINE"
);
}
);
};
layerId = "EAE779D9-56D9-4706-9B6E-8BCD47BDA60B";
paths = (
{
closed = 1;
nodes = (
"370 464 LINE",
"370 514 LINE",
"32 514 LINE",
"32 464 LINE"
);
},
{
closed = 1;
nodes = (
"380 742 OFFCURVE",
"357 745 OFFCURVE",
"335 745 CURVE SMOOTH",
"219 745 OFFCURVE",
"151 692 OFFCURVE",
"151 562 CURVE SMOOTH",
"151 0 LINE",
"206 0 LINE",
"206 559 LINE SMOOTH",
"206 656 OFFCURVE",
"238 696 OFFCURVE",
"335 696 CURVE SMOOTH",
"358 696 OFFCURVE",
"386 692 OFFCURVE",
"396 690 CURVE",
"396 738 LINE"
);
}
);
width = 390;
userData = {
RMXScaler = {
width = 108;
};
};
}
);
unicode = 0066;
userData = {
RMXScaler = {
source = f;
};
};
},
{
color = 9;
glyphname = g;
lastChange = "2017-07-04 10:09:44 +0000";
layers = (
{
background = {
paths = (
{
closed = 1;
nodes = (
"439 434 LINE",
"433 434 LINE",
"413 497 OFFCURVE",
"356 540 OFFCURVE",
"270 540 CURVE SMOOTH",
"116 540 OFFCURVE",
"46 424 OFFCURVE",
"46 276 CURVE SMOOTH",
"46 129 OFFCURVE",
"116 15 OFFCURVE",
"270 15 CURVE SMOOTH",
"368 15 OFFCURVE",
"410 69 OFFCURVE",
"429 103 CURVE",
"435 103 LINE",
"435 35 LINE SMOOTH",
"435 -42 OFFCURVE",
"400 -95 OFFCURVE",
"312 -95 CURVE SMOOTH",
"245 -95 OFFCURVE",
"220 -74 OFFCURVE",
"215 -42 CURVE SMOOTH",
"214 -35 LINE",
"66 -35 LINE",
"67 -52 LINE SMOOTH",
"73 -152 OFFCURVE",
"151 -210 OFFCURVE",
"312 -210 CURVE SMOOTH",
"496 -210 OFFCURVE",
"575 -112 OFFCURVE",
"575 49 CURVE SMOOTH",
"575 525 LINE",
"452 525 LINE"
);
},
{
closed = 1;
nodes = (
"224 137 OFFCURVE",
"191 191 OFFCURVE",
"191 276 CURVE SMOOTH",
"191 361 OFFCURVE",
"224 418 OFFCURVE",
"310 418 CURVE SMOOTH",
"394 418 OFFCURVE",
"435 361 OFFCURVE",
"435 276 CURVE SMOOTH",
"435 191 OFFCURVE",
"394 137 OFFCURVE",
"310 137 CURVE SMOOTH"
);
}
);
};
guideLines = (
{
angle = 270;
position = "{46, 54}";
}
);
layerId = "C76CAC8E-7AD6-478C-8F7E-02FEF6F1EA84";
paths = (
{
closed = 1;
nodes = (
"439 434 LINE",
"433 434 LINE",
"413 497 OFFCURVE",
"353 540 OFFCURVE",
"267 540 CURVE SMOOTH",
"113 540 OFFCURVE",
"40 424 OFFCURVE",
"40 276 CURVE SMOOTH",
"40 129 OFFCURVE",
"113 15 OFFCURVE",
"267 15 CURVE SMOOTH",
"365 15 OFFCURVE",
"410 69 OFFCURVE",
"429 103 CURVE",
"435 103 LINE",
"435 35 LINE SMOOTH",
"435 -42 OFFCURVE",
"400 -95 OFFCURVE",
"312 -95 CURVE SMOOTH",
"245 -95 OFFCURVE",
"220 -74 OFFCURVE",
"215 -42 CURVE SMOOTH",
"214 -35 LINE",
"66 -35 LINE",
"67 -52 LINE SMOOTH",
"73 -152 OFFCURVE",
"151 -210 OFFCURVE",
"312 -210 CURVE SMOOTH",
"496 -210 OFFCURVE",
"575 -112 OFFCURVE",
"575 49 CURVE SMOOTH",
"575 525 LINE",
"452 525 LINE"
);
},
{
closed = 1;
nodes = (
"221 137 OFFCURVE",
"185 191 OFFCURVE",
"185 276 CURVE SMOOTH",
"185 361 OFFCURVE",
"221 418 OFFCURVE",
"307 418 CURVE SMOOTH",
"391 418 OFFCURVE",
"435 361 OFFCURVE",
"435 276 CURVE SMOOTH",
"435 191 OFFCURVE",
"391 137 OFFCURVE",
"307 137 CURVE SMOOTH"
);
}
);
width = 648;
},
{
background = {
paths = (
{
closed = 1;
nodes = (
"426 450 LINE",
"415 450 LINE",
"390 498 OFFCURVE",
"353 550 OFFCURVE",
"263 550 CURVE SMOOTH",
"116 550 OFFCURVE",
"35 442 OFFCURVE",
"35 287 CURVE SMOOTH",
"35 132 OFFCURVE",
"111 35 OFFCURVE",
"253 35 CURVE SMOOTH",
"334 35 OFFCURVE",
"383 67 OFFCURVE",
"413 115 CURVE",
"419 115 LINE",
"419 45 LINE SMOOTH",
"419 -27 OFFCURVE",
"399 -50 OFFCURVE",
"341 -50 CURVE SMOOTH",
"294 -50 OFFCURVE",
"276 -33 OFFCURVE",
"270 -12 CURVE SMOOTH",
"268 -5 LINE",
"50 -5 LINE",
"51 -22 LINE SMOOTH",
"58 -142 OFFCURVE",
"145 -210 OFFCURVE",
"336 -210 CURVE SMOOTH",
"550 -210 OFFCURVE",
"634 -109 OFFCURVE",
"634 82 CURVE SMOOTH",
"634 535 LINE",
"444 535 LINE"
);
},
{
closed = 1;
nodes = (
"279 195 OFFCURVE",
"255 232 OFFCURVE",
"255 287 CURVE SMOOTH",
"255 343 OFFCURVE",
"279 380 OFFCURVE",
"337 380 CURVE SMOOTH",
"395 380 OFFCURVE",
"419 343 OFFCURVE",
"419 287 CURVE SMOOTH",
"419 232 OFFCURVE",
"395 195 OFFCURVE",
"337 195 CURVE SMOOTH"
);
}
);
};
guideLines = (
{
angle = 270;
position = "{35, 54}";
}
);
layerId = "2D8239A6-199F-4292-A93F-56491AD13939";
paths = (
{
closed = 1;
nodes = (
"413 450 LINE",
"402 450 LINE",
"377 498 OFFCURVE",
"343 550 OFFCURVE",
"256 550 CURVE SMOOTH",
"114 550 OFFCURVE",
"34 442 OFFCURVE",
"34 287 CURVE SMOOTH",
"34 132 OFFCURVE",
"108 35 OFFCURVE",
"245 35 CURVE SMOOTH",
"322 35 OFFCURVE",
"370 67 OFFCURVE",
"400 115 CURVE",
"406 115 LINE",
"406 45 LINE SMOOTH",
"406 -27 OFFCURVE",
"388 -50 OFFCURVE",
"334 -50 CURVE SMOOTH",
"290 -50 OFFCURVE",
"273 -33 OFFCURVE",
"267 -12 CURVE SMOOTH",
"265 -5 LINE",
"48 -5 LINE",
"49 -22 LINE SMOOTH",
"57 -142 OFFCURVE",
"141 -210 OFFCURVE",
"329 -210 CURVE SMOOTH",
"539 -210 OFFCURVE",
"621 -109 OFFCURVE",
"621 82 CURVE SMOOTH",
"621 535 LINE",
"431 535 LINE"
);
},
{
closed = 1;
nodes = (
"276 195 OFFCURVE",
"254 232 OFFCURVE",
"254 287 CURVE SMOOTH",
"254 343 OFFCURVE",
"276 380 OFFCURVE",
"330 380 CURVE SMOOTH",
"384 380 OFFCURVE",
"406 343 OFFCURVE",
"406 287 CURVE SMOOTH",
"406 232 OFFCURVE",
"384 195 OFFCURVE",
"330 195 CURVE SMOOTH"
);
}
);
width = 678;
userData = {
RMXScaler = {
width = 97;
};
};
},
{
background = {
components = (
{
name = b;
transform = "{-1, 0, 0, -1, 635, 514}";
}
);
};
layerId = "EAE779D9-56D9-4706-9B6E-8BCD47BDA60B";
paths = (
{
closed = 1;
nodes = (
"521 418 LINE",
"516 418 LINE",
"494 458 OFFCURVE",
"444 529 OFFCURVE",
"318 529 CURVE SMOOTH",
"161 529 OFFCURVE",
"66 428 OFFCURVE",
"66 269 CURVE SMOOTH",
"66 97 OFFCURVE",
"151 -5 OFFCURVE",
"318 -5 CURVE SMOOTH",
"430 -5 OFFCURVE",
"485 58 OFFCURVE",
"515 111 CURVE",
"521 111 LINE",
"521 39 LINE SMOOTH",
"521 -114 OFFCURVE",
"445 -162 OFFCURVE",
"325 -162 CURVE SMOOTH",
"236 -162 OFFCURVE",
"173 -134 OFFCURVE",
"152 -75 CURVE SMOOTH",
"150 -69 LINE",
"89 -69 LINE",
"91 -77 LINE SMOOTH",
"116 -171 OFFCURVE",
"214 -210 OFFCURVE",
"325 -210 CURVE SMOOTH",
"477 -210 OFFCURVE",
"576 -140 OFFCURVE",
"576 37 CURVE SMOOTH",
"576 514 LINE",
"535 514 LINE"
);
},
{
closed = 1;
nodes = (
"190 42 OFFCURVE",
"122 123 OFFCURVE",
"122 269 CURVE SMOOTH",
"122 402 OFFCURVE",
"190 482 OFFCURVE",
"313 482 CURVE SMOOTH",
"449 482 OFFCURVE",
"525 381 OFFCURVE",
"525 269 CURVE SMOOTH",
"525 159 OFFCURVE",
"449 42 OFFCURVE",
"313 42 CURVE SMOOTH"
);
}
);
width = 674;
userData = {
RMXScaler = {
width = 108;
};
};
}
);
leftMetricsKey = "=o";
rightMetricsKey = "=|n";
unicode = 0067;
userData = {
RMXScaler = {
source = g;
};
};
},
{
color = 9;
glyphname = h;
lastChange = "2017-06-29 17:35:38 +0000";
layers = (
{
background = {
paths = (
{
closed = 1;
nodes = (
"213 0 LINE",
"213 288 LINE SMOOTH",
"213 363 OFFCURVE",
"259 415 OFFCURVE",
"332 415 CURVE SMOOTH",
"404 415 OFFCURVE",
"430 379 OFFCURVE",
"430 302 CURVE SMOOTH",
"430 0 LINE",
"570 0 LINE",
"570 350 LINE SMOOTH",
"570 471 OFFCURVE",
"514 540 OFFCURVE",
"397 540 CURVE SMOOTH",
"292 540 OFFCURVE",
"249 493 OFFCURVE",
"212 421 CURVE",
"230 434 LINE",
"195 434 LINE",
"214 424 LINE",
"214 730 LINE",
"73 730 LINE",
"73 0 LINE"
);
}
);
};
layerId = "C76CAC8E-7AD6-478C-8F7E-02FEF6F1EA84";
paths = (
{
closed = 1;
nodes = (
"213 0 LINE",
"213 288 LINE SMOOTH",
"213 368 OFFCURVE",
"259 415 OFFCURVE",
"332 415 CURVE SMOOTH",
"398 415 OFFCURVE",
"426 381 OFFCURVE",
"426 302 CURVE SMOOTH",
"426 0 LINE",
"566 0 LINE",
"566 350 LINE SMOOTH",
"566 471 OFFCURVE",
"509 540 OFFCURVE",
"392 540 CURVE SMOOTH",
"293 540 OFFCURVE",
"247 494 OFFCURVE",
"210 424 CURVE",
"230 437 LINE",
"195 437 LINE",
"213 433 LINE",
"213 730 LINE",
"73 730 LINE",
"73 0 LINE"
);
}
);
width = 631;
},
{
background = {
paths = (
{
closed = 1;
nodes = (
"280 0 LINE",
"280 278 LINE SMOOTH",
"280 328 OFFCURVE",
"314 360 OFFCURVE",
"367 360 CURVE SMOOTH",
"415 360 OFFCURVE",
"430 336 OFFCURVE",
"430 290 CURVE SMOOTH",
"430 0 LINE",
"645 0 LINE",
"645 346 LINE SMOOTH",
"645 469 OFFCURVE",
"598 550 OFFCURVE",
"467 550 CURVE SMOOTH",
"359 550 OFFCURVE",
"309 490 OFFCURVE",
"272 401 CURVE",
"295 434 LINE",
"260 434 LINE",
"280 410 LINE",
"280 730 LINE",
"65 730 LINE",
"65 0 LINE"
);
}
);
};
layerId = "2D8239A6-199F-4292-A93F-56491AD13939";
paths = (
{
closed = 1;
nodes = (
"277 0 LINE",
"277 278 LINE SMOOTH",
"277 328 OFFCURVE",
"309 360 OFFCURVE",
"359 360 CURVE SMOOTH",
"404 360 OFFCURVE",
"417 336 OFFCURVE",
"417 290 CURVE SMOOTH",
"417 0 LINE",
"632 0 LINE",
"632 346 LINE SMOOTH",
"632 469 OFFCURVE",
"587 550 OFFCURVE",
"459 550 CURVE SMOOTH",
"354 550 OFFCURVE",
"305 490 OFFCURVE",
"269 401 CURVE",
"291 434 LINE",
"257 434 LINE",
"277 410 LINE",
"277 730 LINE",
"62 730 LINE",
"62 0 LINE"
);
}
);
width = 687;
userData = {
RMXScaler = {
width = 97;
};
};
},
{
background = {
paths = (
{
closed = 1;
nodes = (
"155 0 LINE",
"155 278 LINE SMOOTH",
"155 401 OFFCURVE",
"242 477 OFFCURVE",
"344 477 CURVE SMOOTH",
"441 477 OFFCURVE",
"489 434 OFFCURVE",
"489 318 CURVE SMOOTH",
"489 0 LINE",
"544 0 LINE",
"544 335 LINE SMOOTH",
"544 463 OFFCURVE",
"468 529 OFFCURVE",
"349 529 CURVE SMOOTH",
"235 529 OFFCURVE",
"166 455 OFFCURVE",
"143 382 CURVE",
"180 420 LINE",
"140 420 LINE",
"156 400 LINE",
"142 514 LINE",
"100 514 LINE",
"100 0 LINE"
);
}
);
};
layerId = "EAE779D9-56D9-4706-9B6E-8BCD47BDA60B";
paths = (
{
closed = 1;
nodes = (
"164 0 LINE",
"164 278 LINE SMOOTH",
"164 401 OFFCURVE",
"260 477 OFFCURVE",
"372 477 CURVE SMOOTH",
"478 477 OFFCURVE",
"531 434 OFFCURVE",
"531 318 CURVE SMOOTH",
"531 0 LINE",
"586 0 LINE",
"586 335 LINE SMOOTH",
"586 463 OFFCURVE",
"503 529 OFFCURVE",
"374 529 CURVE SMOOTH",
"250 529 OFFCURVE",
"179 458 OFFCURVE",
"152 385 CURVE",
"191 420 LINE",
"148 420 LINE",
"164 400 LINE",
"164 730 LINE",
"109 730 LINE",
"109 0 LINE"
);
}
);
width = 679;
userData = {
RMXScaler = {
width = 108;
};
};
}
);
rightMetricsKey = "=n";
unicode = 0068;
userData = {
RMXScaler = {
source = h;
};
};
},
{
color = 9;
glyphname = i;
lastChange = "2017-06-29 17:35:38 +0000";
layers = (
{
background = {
paths = (
{
closed = 1;
nodes = (
"213 0 LINE",
"213 525 LINE",
"73 525 LINE",
"73 0 LINE"
);
},
{
closed = 1;
nodes = (
"204 588 OFFCURVE",
"228 622 OFFCURVE",
"228 667 CURVE SMOOTH",
"228 723 OFFCURVE",
"194 746 OFFCURVE",
"143 746 CURVE SMOOTH",
"82 746 OFFCURVE",
"58 712 OFFCURVE",
"58 667 CURVE SMOOTH",
"58 611 OFFCURVE",
"92 588 OFFCURVE",
"143 588 CURVE SMOOTH"
);
}
);
};
layerId = "C76CAC8E-7AD6-478C-8F7E-02FEF6F1EA84";
paths = (
{
closed = 1;
nodes = (
"213 0 LINE",
"213 525 LINE",
"73 525 LINE",
"73 0 LINE"
);
},
{
closed = 1;
nodes = (
"194 588 OFFCURVE",
"228 610 OFFCURVE",
"228 664 CURVE SMOOTH",
"228 718 OFFCURVE",
"194 740 OFFCURVE",
"143 740 CURVE SMOOTH",
"92 740 OFFCURVE",
"58 718 OFFCURVE",
"58 664 CURVE SMOOTH",
"58 610 OFFCURVE",
"92 588 OFFCURVE",
"143 588 CURVE SMOOTH"
);
}
);
width = 286;
},
{
background = {
paths = (
{
closed = 1;
nodes = (
"276 0 LINE",
"276 535 LINE",
"61 535 LINE",
"61 0 LINE"
);
},
{
closed = 1;
nodes = (
"247 601 OFFCURVE",
"290 637 OFFCURVE",
"290 701 CURVE SMOOTH",
"290 765 OFFCURVE",
"247 801 OFFCURVE",
"169 801 CURVE SMOOTH",
"90 801 OFFCURVE",
"47 765 OFFCURVE",
"47 701 CURVE SMOOTH",
"47 637 OFFCURVE",
"90 601 OFFCURVE",
"169 601 CURVE SMOOTH"
);
}
);
};
layerId = "2D8239A6-199F-4292-A93F-56491AD13939";
paths = (
{
closed = 1;
nodes = (
"273 0 LINE",
"273 535 LINE",
"58 535 LINE",
"58 0 LINE"
);
},
{
closed = 1;
nodes = (
"245 601 OFFCURVE",
"287 637 OFFCURVE",
"287 701 CURVE SMOOTH",
"287 765 OFFCURVE",
"245 801 OFFCURVE",
"167 801 CURVE SMOOTH",
"87 801 OFFCURVE",
"45 765 OFFCURVE",
"45 701 CURVE SMOOTH",
"45 637 OFFCURVE",
"87 601 OFFCURVE",
"167 601 CURVE SMOOTH"
);
}
);
width = 332;
userData = {
RMXScaler = {
width = 97;
};
};
},
{
background = {
paths = (
{
closed = 1;
nodes = (
"150 0 LINE",
"150 514 LINE",
"95 514 LINE",
"95 0 LINE"
);
},
{
closed = 1;
nodes = (
"147 584 OFFCURVE",
"165 598 OFFCURVE",
"165 627 CURVE SMOOTH",
"165 656 OFFCURVE",
"147 670 OFFCURVE",
"122 670 CURVE SMOOTH",
"97 670 OFFCURVE",
"80 656 OFFCURVE",
"80 627 CURVE SMOOTH",
"80 598 OFFCURVE",
"97 584 OFFCURVE",
"122 584 CURVE SMOOTH"
);
}
);
};
layerId = "EAE779D9-56D9-4706-9B6E-8BCD47BDA60B";
paths = (
{
closed = 1;
nodes = (
"159 0 LINE",
"159 514 LINE",
"104 514 LINE",
"104 0 LINE"
);
},
{
closed = 1;
nodes = (
"158 584 OFFCURVE",
"176 598 OFFCURVE",
"176 627 CURVE SMOOTH",
"176 656 OFFCURVE",
"158 670 OFFCURVE",
"132 670 CURVE SMOOTH",
"106 670 OFFCURVE",
"89 656 OFFCURVE",
"89 627 CURVE SMOOTH",
"89 598 OFFCURVE",
"106 584 OFFCURVE",
"132 584 CURVE SMOOTH"
);
}
);
width = 262;
userData = {
RMXScaler = {
width = 108;
};
};
}
);
unicode = 0069;
userData = {
RMXScaler = {
source = i;
};
};
},
{
color = 9;
glyphname = j;
lastChange = "2017-06-29 17:35:38 +0000";
layers = (
{
background = {
paths = (
{
closed = 1;
nodes = (
"-29 -200 LINE",
"-13 -205 OFFCURVE",
"22 -210 OFFCURVE",
"48 -210 CURVE SMOOTH",
"164 -210 OFFCURVE",
"213 -154 OFFCURVE",
"213 -34 CURVE SMOOTH",
"213 525 LINE",
"73 525 LINE",
"73 -26 LINE SMOOTH",
"73 -81 OFFCURVE",
"52 -95 OFFCURVE",
"16 -95 CURVE SMOOTH",
"3 -95 OFFCURVE",
"-16 -94 OFFCURVE",
"-29 -93 CURVE"
);
},
{
closed = 1;
nodes = (
"194 588 OFFCURVE",
"228 610 OFFCURVE",
"228 664 CURVE SMOOTH",
"228 718 OFFCURVE",
"194 740 OFFCURVE",
"143 740 CURVE SMOOTH",
"92 740 OFFCURVE",
"58 718 OFFCURVE",
"58 664 CURVE SMOOTH",
"58 610 OFFCURVE",
"92 588 OFFCURVE",
"143 588 CURVE SMOOTH"
);
}
);
};
layerId = "C76CAC8E-7AD6-478C-8F7E-02FEF6F1EA84";
paths = (
{
closed = 1;
nodes = (
"-49 -200 LINE",
"-33 -205 OFFCURVE",
"12 -210 OFFCURVE",
"38 -210 CURVE SMOOTH",
"164 -210 OFFCURVE",
"213 -134 OFFCURVE",
"213 -4 CURVE SMOOTH",
"213 525 LINE",
"73 525 LINE",
"73 4 LINE SMOOTH",
"73 -71 OFFCURVE",
"52 -95 OFFCURVE",
"-4 -95 CURVE SMOOTH",
"-17 -95 OFFCURVE",
"-36 -94 OFFCURVE",
"-49 -93 CURVE"
);
},
{
closed = 1;
nodes = (
"194 588 OFFCURVE",
"228 610 OFFCURVE",
"228 664 CURVE SMOOTH",
"228 718 OFFCURVE",
"194 740 OFFCURVE",
"143 740 CURVE SMOOTH",
"92 740 OFFCURVE",
"58 718 OFFCURVE",
"58 664 CURVE SMOOTH",
"58 610 OFFCURVE",
"92 588 OFFCURVE",
"143 588 CURVE SMOOTH"
);
}
);
width = 286;
},
{
background = {
paths = (
{
closed = 1;
nodes = (
"-60 -195 LINE",
"-31 -202 OFFCURVE",
"11 -210 OFFCURVE",
"67 -210 CURVE SMOOTH",
"228 -210 OFFCURVE",
"287 -134 OFFCURVE",
"287 36 CURVE SMOOTH",
"287 535 LINE",
"72 535 LINE",
"72 39 LINE SMOOTH",
"72 -26 OFFCURVE",
"51 -50 OFFCURVE",
"-5 -50 CURVE SMOOTH",
"-21 -50 OFFCURVE",
"-43 -47 OFFCURVE",
"-60 -44 CURVE"
);
},
{
closed = 1;
nodes = (
"258 601 OFFCURVE",
"301 637 OFFCURVE",
"301 701 CURVE SMOOTH",
"301 765 OFFCURVE",
"258 801 OFFCURVE",
"180 801 CURVE SMOOTH",
"101 801 OFFCURVE",
"58 765 OFFCURVE",
"58 701 CURVE SMOOTH",
"58 637 OFFCURVE",
"101 601 OFFCURVE",
"180 601 CURVE SMOOTH"
);
}
);
};
layerId = "2D8239A6-199F-4292-A93F-56491AD13939";
paths = (
{
closed = 1;
nodes = (
"-59 -195 LINE",
"-30 -202 OFFCURVE",
"11 -210 OFFCURVE",
"68 -210 CURVE SMOOTH",
"227 -210 OFFCURVE",
"285 -134 OFFCURVE",
"285 36 CURVE SMOOTH",
"285 535 LINE",
"70 535 LINE",
"70 39 LINE SMOOTH",
"70 -26 OFFCURVE",
"50 -50 OFFCURVE",
"-5 -50 CURVE SMOOTH",
"-21 -50 OFFCURVE",
"-42 -47 OFFCURVE",
"-59 -44 CURVE"
);
},
{
closed = 1;
nodes = (
"256 601 OFFCURVE",
"298 637 OFFCURVE",
"298 701 CURVE SMOOTH",
"298 765 OFFCURVE",
"256 801 OFFCURVE",
"178 801 CURVE SMOOTH",
"99 801 OFFCURVE",
"56 765 OFFCURVE",
"56 701 CURVE SMOOTH",
"56 637 OFFCURVE",
"99 601 OFFCURVE",
"178 601 CURVE SMOOTH"
);
}
);
width = 343;
userData = {
RMXScaler = {
width = 97;
};
};
},
{
background = {
paths = (
{
closed = 1;
nodes = (
"-10 -204 LINE",
"2 -207 OFFCURVE",
"21 -210 OFFCURVE",
"35 -210 CURVE SMOOTH",
"126 -210 OFFCURVE",
"164 -165 OFFCURVE",
"164 -50 CURVE SMOOTH",
"164 514 LINE",
"109 514 LINE",
"109 -50 LINE SMOOTH",
"109 -136 OFFCURVE",
"90 -161 OFFCURVE",
"30 -161 CURVE SMOOTH",
"18 -161 OFFCURVE",
"1 -159 OFFCURVE",
"-10 -157 CURVE"
);
},
{
closed = 1;
nodes = (
"161 584 OFFCURVE",
"179 598 OFFCURVE",
"179 627 CURVE SMOOTH",
"179 656 OFFCURVE",
"161 670 OFFCURVE",
"136 670 CURVE SMOOTH",
"112 670 OFFCURVE",
"94 656 OFFCURVE",
"94 627 CURVE SMOOTH",
"94 598 OFFCURVE",
"112 584 OFFCURVE",
"136 584 CURVE SMOOTH"
);
}
);
};
layerId = "EAE779D9-56D9-4706-9B6E-8BCD47BDA60B";
paths = (
{
closed = 1;
nodes = (
"-9 -204 LINE",
"4 -207 OFFCURVE",
"23 -210 OFFCURVE",
"37 -210 CURVE SMOOTH",
"134 -210 OFFCURVE",
"174 -165 OFFCURVE",
"174 -50 CURVE SMOOTH",
"174 514 LINE",
"119 514 LINE",
"119 -50 LINE SMOOTH",
"119 -136 OFFCURVE",
"99 -161 OFFCURVE",
"34 -161 CURVE SMOOTH",
"21 -161 OFFCURVE",
"3 -159 OFFCURVE",
"-9 -157 CURVE"
);
},
{
closed = 1;
nodes = (
"173 584 OFFCURVE",
"192 598 OFFCURVE",
"192 627 CURVE SMOOTH",
"192 656 OFFCURVE",
"173 670 OFFCURVE",
"147 670 CURVE SMOOTH",
"123 670 OFFCURVE",
"104 656 OFFCURVE",
"104 627 CURVE SMOOTH",
"104 598 OFFCURVE",
"123 584 OFFCURVE",
"147 584 CURVE SMOOTH"
);
}
);
width = 278;
userData = {
RMXScaler = {
width = 108;
};
};
}
);
rightMetricsKey = "=i";
unicode = 006A;
userData = {
RMXScaler = {
source = j;
};
};
},
{
color = 9;
glyphname = k;
lastChange = "2017-06-29 17:35:38 +0000";
layers = (
{
guideLines = (
{
angle = 46.5765;
position = "{329, 273}";
},
{
angle = 124.957;
position = "{392, 0}";
}
);
layerId = "C76CAC8E-7AD6-478C-8F7E-02FEF6F1EA84";
paths = (
{
closed = 1;
nodes = (
"286 221 LINE",
"563 525 LINE",
"403 525 LINE",
"219 323 LINE",
"186 323 LINE",
"186 221 LINE"
);
},
{
closed = 1;
nodes = (
"213 0 LINE",
"213 730 LINE",
"73 730 LINE",
"73 0 LINE"
);
},
{
closed = 1;
nodes = (
"573 0 LINE",
"359 319 LINE",
"240 253 LINE",
"413 0 LINE"
);
}
);
width = 593;
},
{
background = {
paths = (
{
closed = 1;
nodes = (
"415 201 LINE",
"650 535 LINE",
"415 535 LINE",
"286 346 LINE",
"245 346 LINE",
"245 201 LINE"
);
},
{
closed = 1;
nodes = (
"280 0 LINE",
"280 730 LINE",
"65 730 LINE",
"65 0 LINE"
);
},
{
closed = 1;
nodes = (
"660 0 LINE",
"476 339 LINE",
"287 253 LINE",
"425 0 LINE"
);
}
);
};
layerId = "2D8239A6-199F-4292-A93F-56491AD13939";
paths = (
{
closed = 1;
nodes = (
"413 201 LINE",
"638 535 LINE",
"403 535 LINE",
"283 346 LINE",
"242 346 LINE",
"242 201 LINE"
);
},
{
closed = 1;
nodes = (
"277 0 LINE",
"277 730 LINE",
"62 730 LINE",
"62 0 LINE"
);
},
{
closed = 1;
nodes = (
"647 0 LINE",
"471 339 LINE",
"282 253 LINE",
"413 0 LINE"
);
}
);
width = 651;
userData = {
RMXScaler = {
width = 97;
};
};
},
{
background = {
paths = (
{
closed = 1;
nodes = (
"169 244 LINE",
"464 514 LINE",
"386 514 LINE",
"150 295 LINE",
"129 295 LINE",
"129 244 LINE"
);
},
{
closed = 1;
nodes = (
"147 0 LINE",
"147 730 LINE",
"92 730 LINE",
"92 0 LINE"
);
},
{
closed = 1;
nodes = (
"474 0 LINE",
"194 297 LINE",
"154 259 LINE",
"401 0 LINE"
);
}
);
};
layerId = "EAE779D9-56D9-4706-9B6E-8BCD47BDA60B";
paths = (
{
closed = 1;
nodes = (
"189 252 LINE",
"532 514 LINE",
"454 514 LINE",
"167 295 LINE",
"144 295 LINE",
"144 252 LINE"
);
},
{
closed = 1;
nodes = (
"164 0 LINE",
"164 730 LINE",
"109 730 LINE",
"109 0 LINE"
);
},
{
closed = 1;
nodes = (
"543 0 LINE",
"204 295 LINE",
"164 267 LINE",
"469 0 LINE"
);
}
);
width = 570;
userData = {
RMXScaler = {
width = 108;
};
};
}
);
leftMetricsKey = h;
unicode = 006B;
userData = {
RMXScaler = {
source = k;
};
};
},
{
color = 9;
glyphname = l;
lastChange = "2017-06-29 17:35:38 +0000";
layers = (
{
background = {
paths = (
{
closed = 1;
nodes = (
"112 0 LINE",
"112 730 LINE",
"94 730 LINE",
"94 0 LINE"
);
}
);
};
layerId = "C76CAC8E-7AD6-478C-8F7E-02FEF6F1EA84";
paths = (
{
closed = 1;
nodes = (
"213 0 LINE",
"213 730 LINE",
"73 730 LINE",
"73 0 LINE"
);
}
);
width = 286;
},
{
background = {
paths = (
{
closed = 1;
nodes = (
"280 0 LINE",
"280 730 LINE",
"65 730 LINE",
"65 0 LINE"
);
}
);
};
layerId = "2D8239A6-199F-4292-A93F-56491AD13939";
paths = (
{
closed = 1;
nodes = (
"277 0 LINE",
"277 730 LINE",
"62 730 LINE",
"62 0 LINE"
);
}
);
width = 334;
userData = {
RMXScaler = {
width = 97;
};
};
},
{
background = {
paths = (
{
closed = 1;
nodes = (
"147 0 LINE",
"147 730 LINE",
"92 730 LINE",
"92 0 LINE"
);
}
);
};
layerId = "EAE779D9-56D9-4706-9B6E-8BCD47BDA60B";
paths = (
{
closed = 1;
nodes = (
"164 0 LINE",
"164 730 LINE",
"109 730 LINE",
"109 0 LINE"
);
}
);
width = 262;
userData = {
RMXScaler = {
width = 108;
};
};
}
);
leftMetricsKey = h;
rightMetricsKey = "=|n";
unicode = 006C;
userData = {
RMXScaler = {
source = l;
};
};
},
{
color = 9;
glyphname = m;
lastChange = "2017-06-29 17:35:38 +0000";
layers = (
{
background = {
paths = (
{
closed = 1;
nodes = (
"197 436 LINE",
"197 408 LINE",
"233 408 LINE",
"233 436 LINE"
);
},
{
closed = 1;
nodes = (
"533 429 LINE",
"533 401 LINE",
"569 401 LINE",
"569 429 LINE"
);
},
{
closed = 1;
nodes = (
"645 540 OFFCURVE",
"584 502 OFFCURVE",
"551 414 CURVE",
"537 491 OFFCURVE",
"481 540 OFFCURVE",
"390 540 CURVE SMOOTH",
"299 540 OFFCURVE",
"243 499 OFFCURVE",
"215 418 CURVE",
"196 525 LINE",
"73 525 LINE",
"73 0 LINE",
"213 0 LINE",
"213 308 LINE SMOOTH",
"213 373 OFFCURVE",
"252 413 OFFCURVE",
"325 413 CURVE SMOOTH",
"392 413 OFFCURVE",
"416 379 OFFCURVE",
"416 322 CURVE SMOOTH",
"416 0 LINE",
"556 0 LINE",
"556 308 LINE SMOOTH",
"556 373 OFFCURVE",
"595 413 OFFCURVE",
"668 413 CURVE SMOOTH",
"735 413 OFFCURVE",
"759 379 OFFCURVE",
"759 322 CURVE SMOOTH",
"759 0 LINE",
"899 0 LINE",
"899 370 LINE SMOOTH",
"899 471 OFFCURVE",
"841 540 OFFCURVE",
"733 540 CURVE SMOOTH"
);
}
);
};
layerId = "C76CAC8E-7AD6-478C-8F7E-02FEF6F1EA84";
paths = (
{
closed = 1;
nodes = (
"621 540 OFFCURVE",
"571 494 OFFCURVE",
"533 387 CURVE",
"591 421 LINE",
"497 421 LINE",
"548 388 LINE",
"537 486 OFFCURVE",
"486 540 OFFCURVE",
"387 540 CURVE SMOOTH",
"280 540 OFFCURVE",
"242 487 OFFCURVE",
"203 406 CURVE",
"262 434 LINE",
"166 434 LINE",
"218 390 LINE",
"196 525 LINE",
"73 525 LINE",
"73 0 LINE",
"213 0 LINE",
"213 288 LINE SMOOTH",
"213 363 OFFCURVE",
"259 415 OFFCURVE",
"322 415 CURVE SMOOTH",
"389 415 OFFCURVE",
"415 379 OFFCURVE",
"415 302 CURVE SMOOTH",
"415 0 LINE",
"555 0 LINE",
"555 288 LINE SMOOTH",
"555 363 OFFCURVE",
"601 415 OFFCURVE",
"664 415 CURVE SMOOTH",
"731 415 OFFCURVE",
"757 379 OFFCURVE",
"757 302 CURVE SMOOTH",
"757 0 LINE",
"897 0 LINE",
"897 350 LINE SMOOTH",
"897 471 OFFCURVE",
"841 540 OFFCURVE",
"729 540 CURVE SMOOTH"
);
}
);
width = 962;
},
{
background = {
paths = (
{
closed = 1;
nodes = (
"693 550 OFFCURVE",
"647 493 OFFCURVE",
"613 391 CURVE",
"663 420 LINE",
"573 420 LINE",
"623 388 LINE",
"613 486 OFFCURVE",
"563 550 OFFCURVE",
"453 550 CURVE SMOOTH",
"343 550 OFFCURVE",
"301 488 OFFCURVE",
"263 397 CURVE",
"316 426 LINE",
"225 426 LINE",
"278 382 LINE",
"250 535 LINE",
"60 535 LINE",
"60 0 LINE",
"275 0 LINE",
"275 280 LINE SMOOTH",
"275 330 OFFCURVE",
"315 360 OFFCURVE",
"355 360 CURVE SMOOTH",
"390 360 OFFCURVE",
"410 340 OFFCURVE",
"410 290 CURVE SMOOTH",
"410 0 LINE",
"625 0 LINE",
"625 280 LINE SMOOTH",
"625 330 OFFCURVE",
"665 360 OFFCURVE",
"705 360 CURVE SMOOTH",
"740 360 OFFCURVE",
"760 340 OFFCURVE",
"760 290 CURVE SMOOTH",
"760 0 LINE",
"975 0 LINE",
"975 346 LINE SMOOTH",
"975 469 OFFCURVE",
"928 550 OFFCURVE",
"803 550 CURVE SMOOTH"
);
}
);
};
layerId = "2D8239A6-199F-4292-A93F-56491AD13939";
paths = (
{
closed = 1;
nodes = (
"678 550 OFFCURVE",
"634 493 OFFCURVE",
"601 391 CURVE",
"649 420 LINE",
"562 420 LINE",
"611 388 LINE",
"601 486 OFFCURVE",
"553 550 OFFCURVE",
"445 550 CURVE SMOOTH",
"338 550 OFFCURVE",
"297 488 OFFCURVE",
"260 397 CURVE",
"311 426 LINE",
"223 426 LINE",
"275 382 LINE",
"247 535 LINE",
"57 535 LINE",
"57 0 LINE",
"272 0 LINE",
"272 280 LINE SMOOTH",
"272 330 OFFCURVE",
"310 360 OFFCURVE",
"347 360 CURVE SMOOTH",
"378 360 OFFCURVE",
"397 340 OFFCURVE",
"397 290 CURVE SMOOTH",
"397 0 LINE",
"612 0 LINE",
"612 280 LINE SMOOTH",
"612 330 OFFCURVE",
"650 360 OFFCURVE",
"687 360 CURVE SMOOTH",
"718 360 OFFCURVE",
"737 340 OFFCURVE",
"737 290 CURVE SMOOTH",
"737 0 LINE",
"952 0 LINE",
"952 346 LINE SMOOTH",
"952 469 OFFCURVE",
"908 550 OFFCURVE",
"785 550 CURVE SMOOTH"
);
}
);
width = 1007;
userData = {
RMXScaler = {
width = 97;
};
};
},
{
background = {
paths = (
{
closed = 1;
nodes = (
"145 0 LINE",
"145 278 LINE SMOOTH",
"145 401 OFFCURVE",
"232 477 OFFCURVE",
"334 477 CURVE SMOOTH",
"431 477 OFFCURVE",
"479 434 OFFCURVE",
"479 318 CURVE SMOOTH",
"479 0 LINE",
"534 0 LINE",
"534 335 LINE SMOOTH",
"534 463 OFFCURVE",
"458 529 OFFCURVE",
"339 529 CURVE SMOOTH",
"225 529 OFFCURVE",
"156 455 OFFCURVE",
"133 382 CURVE",
"170 420 LINE",
"130 420 LINE",
"146 400 LINE",
"132 514 LINE",
"90 514 LINE",
"90 0 LINE"
);
}
);
};
layerId = "EAE779D9-56D9-4706-9B6E-8BCD47BDA60B";
paths = (
{
closed = 1;
nodes = (
"647 529 OFFCURVE",
"571 457 OFFCURVE",
"544 385 CURVE",
"579 417 LINE",
"542 417 LINE",
"560 394 LINE",
"532 485 OFFCURVE",
"466 529 OFFCURVE",
"356 529 CURVE SMOOTH",
"239 529 OFFCURVE",
"168 455 OFFCURVE",
"141 385 CURVE",
"176 420 LINE",
"141 420 LINE",
"154 400 LINE",
"139 514 LINE",
"98 514 LINE",
"98 0 LINE",
"153 0 LINE",
"153 278 LINE SMOOTH",
"153 401 OFFCURVE",
"247 477 OFFCURVE",
"353 477 CURVE SMOOTH",
"453 477 OFFCURVE",
"506 432 OFFCURVE",
"506 316 CURVE SMOOTH",
"506 0 LINE",
"561 0 LINE",
"561 278 LINE SMOOTH",
"561 401 OFFCURVE",
"654 477 OFFCURVE",
"761 477 CURVE SMOOTH",
"861 477 OFFCURVE",
"914 432 OFFCURVE",
"914 316 CURVE SMOOTH",
"914 0 LINE",
"969 0 LINE",
"969 345 LINE SMOOTH",
"969 473 OFFCURVE",
"886 529 OFFCURVE",
"762 529 CURVE SMOOTH"
);
}
);
width = 1062;
userData = {
RMXScaler = {
width = 108;
};
};
}
);
leftMetricsKey = "=n";
rightMetricsKey = "=n";
unicode = 006D;
userData = {
RMXScaler = {
source = m;
};
};
},
{
color = 9;
glyphname = n;
lastChange = "2017-06-29 17:35:38 +0000";
layers = (
{
background = {
paths = (
{
closed = 1;
nodes = (
"213 0 LINE",
"213 292 LINE SMOOTH",
"213 368 OFFCURVE",
"257 415 OFFCURVE",
"332 415 CURVE SMOOTH",
"398 415 OFFCURVE",
"426 381 OFFCURVE",
"426 302 CURVE SMOOTH",
"426 0 LINE",
"566 0 LINE",
"566 350 LINE SMOOTH",
"566 471 OFFCURVE",
"511 540 OFFCURVE",
"393 540 CURVE SMOOTH",
"292 540 OFFCURVE",
"247 493 OFFCURVE",
"210 421 CURVE",
"230 434 LINE",
"195 434 LINE",
"213 424 LINE",
"196 525 LINE",
"73 525 LINE",
"73 0 LINE"
);
}
);
};
guideLines = (
{
angle = 90;
position = "{213, 288}";
}
);
layerId = "C76CAC8E-7AD6-478C-8F7E-02FEF6F1EA84";
paths = (
{
closed = 1;
nodes = (
"213 0 LINE",
"213 288 LINE SMOOTH",
"213 368 OFFCURVE",
"259 415 OFFCURVE",
"335 415 CURVE SMOOTH",
"398 415 OFFCURVE",
"426 381 OFFCURVE",
"426 302 CURVE SMOOTH",
"426 0 LINE",
"566 0 LINE",
"566 350 LINE SMOOTH",
"566 471 OFFCURVE",
"509 540 OFFCURVE",
"392 540 CURVE SMOOTH",
"293 540 OFFCURVE",
"247 494 OFFCURVE",
"210 424 CURVE",
"230 437 LINE",
"195 437 LINE",
"213 427 LINE",
"196 525 LINE",
"73 525 LINE",
"73 0 LINE"
);
}
);
width = 631;
},
{
background = {
paths = (
{
closed = 1;
nodes = (
"275 0 LINE",
"275 278 LINE SMOOTH",
"275 330 OFFCURVE",
"312 360 OFFCURVE",
"362 360 CURVE SMOOTH",
"410 360 OFFCURVE",
"425 336 OFFCURVE",
"425 290 CURVE SMOOTH",
"425 0 LINE",
"640 0 LINE",
"640 346 LINE SMOOTH",
"640 469 OFFCURVE",
"593 550 OFFCURVE",
"463 550 CURVE SMOOTH",
"351 550 OFFCURVE",
"299 487 OFFCURVE",
"262 393 CURVE",
"285 426 LINE",
"255 426 LINE",
"275 402 LINE",
"250 535 LINE",
"60 535 LINE",
"60 0 LINE"
);
}
);
};
layerId = "2D8239A6-199F-4292-A93F-56491AD13939";
paths = (
{
closed = 1;
nodes = (
"272 0 LINE",
"272 278 LINE SMOOTH",
"272 330 OFFCURVE",
"307 360 OFFCURVE",
"353 360 CURVE SMOOTH",
"399 360 OFFCURVE",
"412 336 OFFCURVE",
"412 290 CURVE SMOOTH",
"412 0 LINE",
"627 0 LINE",
"627 346 LINE SMOOTH",
"627 469 OFFCURVE",
"582 550 OFFCURVE",
"455 550 CURVE SMOOTH",
"345 550 OFFCURVE",
"294 487 OFFCURVE",
"259 393 CURVE",
"281 426 LINE",
"252 426 LINE",
"272 402 LINE",
"247 535 LINE",
"57 535 LINE",
"57 0 LINE"
);
}
);
width = 682;
userData = {
RMXScaler = {
width = 97;
};
};
},
{
background = {
paths = (
{
closed = 1;
nodes = (
"145 0 LINE",
"145 278 LINE SMOOTH",
"145 391 OFFCURVE",
"220 477 OFFCURVE",
"322 477 CURVE SMOOTH",
"409 477 OFFCURVE",
"457 432 OFFCURVE",
"457 316 CURVE SMOOTH",
"457 0 LINE",
"512 0 LINE",
"512 345 LINE SMOOTH",
"512 473 OFFCURVE",
"436 529 OFFCURVE",
"327 529 CURVE SMOOTH",
"223 529 OFFCURVE",
"167 470 OFFCURVE",
"134 395 CURVE",
"170 420 LINE",
"130 420 LINE",
"146 400 LINE",
"132 514 LINE",
"90 514 LINE",
"90 0 LINE"
);
}
);
};
layerId = "EAE779D9-56D9-4706-9B6E-8BCD47BDA60B";
paths = (
{
closed = 1;
nodes = (
"153 0 LINE",
"153 278 LINE SMOOTH",
"153 401 OFFCURVE",
"249 477 OFFCURVE",
"361 477 CURVE SMOOTH",
"467 477 OFFCURVE",
"520 434 OFFCURVE",
"520 318 CURVE SMOOTH",
"520 0 LINE",
"575 0 LINE",
"575 335 LINE SMOOTH",
"575 463 OFFCURVE",
"492 529 OFFCURVE",
"363 529 CURVE SMOOTH",
"239 529 OFFCURVE",
"164 455 OFFCURVE",
"140 382 CURVE",
"180 420 LINE",
"137 420 LINE",
"154 400 LINE",
"139 514 LINE",
"98 514 LINE",
"98 0 LINE"
);
}
);
width = 668;
userData = {
RMXScaler = {
width = 108;
};
};
}
);
unicode = 006E;
userData = {
RMXScaler = {
source = n;
};
};
},
{
color = 9;
glyphname = o;
lastChange = "2017-06-29 17:35:38 +0000";
layers = (
{
background = {
paths = (
{
closed = 1;
nodes = (
"483 -15 OFFCURVE",
"574 86 OFFCURVE",
"574 263 CURVE SMOOTH",
"574 439 OFFCURVE",
"483 540 OFFCURVE",
"307 540 CURVE SMOOTH",
"131 540 OFFCURVE",
"40 439 OFFCURVE",
"40 263 CURVE SMOOTH",
"40 86 OFFCURVE",
"131 -15 OFFCURVE",
"307 -15 CURVE SMOOTH"
);
},
{
closed = 1;
nodes = (
"220 100 OFFCURVE",
"185 157 OFFCURVE",
"185 263 CURVE SMOOTH",
"185 368 OFFCURVE",
"220 425 OFFCURVE",
"307 425 CURVE SMOOTH",
"394 425 OFFCURVE",
"429 368 OFFCURVE",
"429 263 CURVE SMOOTH",
"429 157 OFFCURVE",
"394 100 OFFCURVE",
"307 100 CURVE SMOOTH"
);
}
);
};
layerId = "C76CAC8E-7AD6-478C-8F7E-02FEF6F1EA84";
paths = (
{
closed = 1;
nodes = (
"483 -15 OFFCURVE",
"574 86 OFFCURVE",
"574 263 CURVE SMOOTH",
"574 439 OFFCURVE",
"483 540 OFFCURVE",
"307 540 CURVE SMOOTH",
"131 540 OFFCURVE",
"40 439 OFFCURVE",
"40 263 CURVE SMOOTH",
"40 86 OFFCURVE",
"131 -15 OFFCURVE",
"307 -15 CURVE SMOOTH"
);
},
{
closed = 1;
nodes = (
"220 100 OFFCURVE",
"185 157 OFFCURVE",
"185 263 CURVE SMOOTH",
"185 368 OFFCURVE",
"220 425 OFFCURVE",
"307 425 CURVE SMOOTH",
"394 425 OFFCURVE",
"429 368 OFFCURVE",
"429 263 CURVE SMOOTH",
"429 157 OFFCURVE",
"394 100 OFFCURVE",
"307 100 CURVE SMOOTH"
);
}
);
width = 614;
},
{
background = {
paths = (
{
closed = 1;
nodes = (
"532 -15 OFFCURVE",
"639 88 OFFCURVE",
"639 268 CURVE SMOOTH",
"639 447 OFFCURVE",
"532 550 OFFCURVE",
"337 550 CURVE SMOOTH",
"142 550 OFFCURVE",
"35 447 OFFCURVE",
"35 268 CURVE SMOOTH",
"35 88 OFFCURVE",
"142 -15 OFFCURVE",
"337 -15 CURVE SMOOTH"
);
},
{
closed = 1;
nodes = (
"276 150 OFFCURVE",
"255 187 OFFCURVE",
"255 268 CURVE SMOOTH",
"255 348 OFFCURVE",
"276 385 OFFCURVE",
"337 385 CURVE SMOOTH",
"398 385 OFFCURVE",
"419 348 OFFCURVE",
"419 268 CURVE SMOOTH",
"419 187 OFFCURVE",
"398 150 OFFCURVE",
"337 150 CURVE SMOOTH"
);
}
);
};
guideLines = (
{
position = "{337, 380}";
}
);
layerId = "2D8239A6-199F-4292-A93F-56491AD13939";
paths = (
{
closed = 1;
nodes = (
"521 -15 OFFCURVE",
"626 88 OFFCURVE",
"626 268 CURVE SMOOTH",
"626 447 OFFCURVE",
"521 550 OFFCURVE",
"330 550 CURVE SMOOTH",
"139 550 OFFCURVE",
"34 447 OFFCURVE",
"34 268 CURVE SMOOTH",
"34 88 OFFCURVE",
"139 -15 OFFCURVE",
"330 -15 CURVE SMOOTH"
);
},
{
closed = 1;
nodes = (
"273 150 OFFCURVE",
"254 187 OFFCURVE",
"254 268 CURVE SMOOTH",
"254 348 OFFCURVE",
"273 385 OFFCURVE",
"330 385 CURVE SMOOTH",
"387 385 OFFCURVE",
"406 348 OFFCURVE",
"406 268 CURVE SMOOTH",
"406 187 OFFCURVE",
"387 150 OFFCURVE",
"330 150 CURVE SMOOTH"
);
}
);
width = 660;
userData = {
RMXScaler = {
width = 97;
};
};
},
{
background = {
paths = (
{
closed = 1;
nodes = (
"418 -15 OFFCURVE",
"514 78 OFFCURVE",
"514 257 CURVE SMOOTH",
"514 436 OFFCURVE",
"418 529 OFFCURVE",
"284 529 CURVE SMOOTH",
"150 529 OFFCURVE",
"55 436 OFFCURVE",
"55 257 CURVE SMOOTH",
"55 78 OFFCURVE",
"150 -15 OFFCURVE",
"284 -15 CURVE SMOOTH"
);
},
{
closed = 1;
nodes = (
"174 32 OFFCURVE",
"111 112 OFFCURVE",
"111 257 CURVE SMOOTH",
"111 402 OFFCURVE",
"174 482 OFFCURVE",
"284 482 CURVE SMOOTH",
"394 482 OFFCURVE",
"457 402 OFFCURVE",
"457 257 CURVE SMOOTH",
"457 112 OFFCURVE",
"394 32 OFFCURVE",
"284 32 CURVE SMOOTH"
);
}
);
};
layerId = "EAE779D9-56D9-4706-9B6E-8BCD47BDA60B";
paths = (
{
closed = 1;
nodes = (
"483 -15 OFFCURVE",
"595 78 OFFCURVE",
"595 257 CURVE SMOOTH",
"595 436 OFFCURVE",
"483 529 OFFCURVE",
"331 529 CURVE SMOOTH",
"178 529 OFFCURVE",
"66 436 OFFCURVE",
"66 257 CURVE SMOOTH",
"66 78 OFFCURVE",
"178 -15 OFFCURVE",
"331 -15 CURVE SMOOTH"
);
},
{
closed = 1;
nodes = (
"199 32 OFFCURVE",
"122 112 OFFCURVE",
"122 257 CURVE SMOOTH",
"122 402 OFFCURVE",
"199 482 OFFCURVE",
"331 482 CURVE SMOOTH",
"462 482 OFFCURVE",
"539 402 OFFCURVE",
"539 257 CURVE SMOOTH",
"539 112 OFFCURVE",
"462 32 OFFCURVE",
"331 32 CURVE SMOOTH"
);
}
);
width = 661;
userData = {
RMXScaler = {
width = 108;
};
};
}
);
unicode = 006F;
userData = {
RMXScaler = {
source = o;
};
};
},
{
glyphname = p;
lastChange = "2017-07-04 09:23:44 +0000";
layers = (
{
background = {
paths = (
{
closed = 1;
nodes = (
"213 79 LINE",
"218 79 LINE",
"249 17 OFFCURVE",
"305 -15 OFFCURVE",
"379 -15 CURVE SMOOTH",
"522 -15 OFFCURVE",
"608 89 OFFCURVE",
"608 262 CURVE SMOOTH",
"608 435 OFFCURVE",
"522 539 OFFCURVE",
"379 539 CURVE SMOOTH",
"305 539 OFFCURVE",
"249 506 OFFCURVE",
"218 440 CURVE",
"211 440 LINE",
"196 525 LINE",
"73 525 LINE",
"73 -205 LINE",
"213 -205 LINE"
);
},
{
closed = 1;
nodes = (
"422 419 OFFCURVE",
"463 369 OFFCURVE",
"463 262 CURVE SMOOTH",
"463 155 OFFCURVE",
"422 105 OFFCURVE",
"337 105 CURVE SMOOTH",
"256 105 OFFCURVE",
"213 160 OFFCURVE",
"213 262 CURVE SMOOTH",
"213 364 OFFCURVE",
"256 419 OFFCURVE",
"337 419 CURVE SMOOTH"
);
}
);
};
components = (
{
name = b;
transform = "{1, 0, 0, -1, 0, 525}";
}
);
layerId = "C76CAC8E-7AD6-478C-8F7E-02FEF6F1EA84";
width = 648;
},
{
background = {
paths = (
{
closed = 1;
nodes = (
"275 79 LINE",
"281 79 LINE",
"302 34 OFFCURVE",
"356 -15 OFFCURVE",
"446 -15 CURVE SMOOTH",
"585 -15 OFFCURVE",
"667 92 OFFCURVE",
"667 267 CURVE SMOOTH",
"667 442 OFFCURVE",
"585 549 OFFCURVE",
"446 549 CURVE SMOOTH",
"356 549 OFFCURVE",
"302 500 OFFCURVE",
"281 455 CURVE",
"267 455 LINE",
"250 535 LINE",
"60 535 LINE",
"60 -195 LINE",
"275 -195 LINE"
);
},
{
closed = 1;
nodes = (
"421 377 OFFCURVE",
"447 341 OFFCURVE",
"447 267 CURVE SMOOTH",
"447 193 OFFCURVE",
"421 157 OFFCURVE",
"361 157 CURVE SMOOTH",
"304 157 OFFCURVE",
"275 193 OFFCURVE",
"275 267 CURVE SMOOTH",
"275 341 OFFCURVE",
"304 377 OFFCURVE",
"361 377 CURVE SMOOTH"
);
}
);
};
components = (
{
name = b;
transform = "{1, 0, 0, -1, 0, 535}";
}
);
layerId = "2D8239A6-199F-4292-A93F-56491AD13939";
width = 691;
userData = {
RMXScaler = {
width = 97;
};
};
},
{
background = {
components = (
{
name = d;
transform = "{-1, 0, 0, -1, 607, 514}";
}
);
};
components = (
{
name = b;
transform = "{1, 0, 0, -1, 0, 514}";
}
);
layerId = "EAE779D9-56D9-4706-9B6E-8BCD47BDA60B";
width = 685;
userData = {
RMXScaler = {
width = 108;
};
};
}
);
leftMetricsKey = "=n";
rightMetricsKey = "=o";
unicode = 0070;
userData = {
RMXScaler = {
source = p;
};
};
},
{
glyphname = q;
lastChange = "2017-07-04 09:23:44 +0000";
layers = (
{
background = {
paths = (
{
closed = 1;
nodes = (
"575 -205 LINE",
"575 525 LINE",
"452 525 LINE",
"437 440 LINE",
"430 440 LINE",
"399 506 OFFCURVE",
"343 539 OFFCURVE",
"269 539 CURVE SMOOTH",
"126 539 OFFCURVE",
"40 435 OFFCURVE",
"40 262 CURVE SMOOTH",
"40 89 OFFCURVE",
"126 -15 OFFCURVE",
"269 -15 CURVE SMOOTH",
"343 -15 OFFCURVE",
"399 17 OFFCURVE",
"430 79 CURVE",
"435 79 LINE",
"435 -205 LINE"
);
},
{
closed = 1;
nodes = (
"392 419 OFFCURVE",
"435 364 OFFCURVE",
"435 262 CURVE SMOOTH",
"435 160 OFFCURVE",
"392 105 OFFCURVE",
"311 105 CURVE SMOOTH",
"226 105 OFFCURVE",
"185 155 OFFCURVE",
"185 262 CURVE SMOOTH",
"185 369 OFFCURVE",
"226 419 OFFCURVE",
"311 419 CURVE SMOOTH"
);
}
);
};
components = (
{
name = b;
transform = "{-1, 0, 0, -1, 648, 525}";
}
);
layerId = "C76CAC8E-7AD6-478C-8F7E-02FEF6F1EA84";
width = 648;
},
{
background = {
paths = (
{
closed = 1;
nodes = (
"642 -195 LINE",
"642 535 LINE",
"452 535 LINE",
"435 455 LINE",
"421 455 LINE",
"400 500 OFFCURVE",
"346 549 OFFCURVE",
"256 549 CURVE SMOOTH",
"117 549 OFFCURVE",
"35 442 OFFCURVE",
"35 267 CURVE SMOOTH",
"35 92 OFFCURVE",
"117 -15 OFFCURVE",
"256 -15 CURVE SMOOTH",
"346 -15 OFFCURVE",
"400 34 OFFCURVE",
"421 79 CURVE",
"427 79 LINE",
"427 -195 LINE"
);
},
{
closed = 1;
nodes = (
"398 377 OFFCURVE",
"427 341 OFFCURVE",
"427 267 CURVE SMOOTH",
"427 193 OFFCURVE",
"398 157 OFFCURVE",
"341 157 CURVE SMOOTH",
"281 157 OFFCURVE",
"255 193 OFFCURVE",
"255 267 CURVE SMOOTH",
"255 341 OFFCURVE",
"281 377 OFFCURVE",
"341 377 CURVE SMOOTH"
);
}
);
};
components = (
{
name = b;
transform = "{-1, 0, 0, -1, 691, 535}";
}
);
layerId = "2D8239A6-199F-4292-A93F-56491AD13939";
width = 691;
userData = {
RMXScaler = {
width = 97;
};
};
},
{
background = {
components = (
{
name = d;
transform = "{1, 0, 0, -1, 0, 514}";
}
);
};
components = (
{
name = b;
transform = "{-1, 0, 0, -1, 685, 514}";
}
);
layerId = "EAE779D9-56D9-4706-9B6E-8BCD47BDA60B";
width = 685;
userData = {
RMXScaler = {
width = 108;
};
};
}
);
leftMetricsKey = "=o";
rightMetricsKey = "=|n";
unicode = 0071;
userData = {
RMXScaler = {
source = q;
};
};
},
{
color = 9;
glyphname = r;
lastChange = "2017-06-29 17:35:38 +0000";
layers = (
{
background = {
paths = (
{
closed = 1;
nodes = (
"233 431 LINE",
"198 431 LINE",
"213 426 LINE",
"196 525 LINE",
"73 525 LINE",
"73 0 LINE",
"213 0 LINE",
"213 291 LINE SMOOTH",
"213 366 OFFCURVE",
"273 405 OFFCURVE",
"349 405 CURVE SMOOTH",
"371 405 OFFCURVE",
"390 403 OFFCURVE",
"406 400 CURVE",
"406 534 LINE",
"394 537 OFFCURVE",
"369 538 OFFCURVE",
"357 538 CURVE SMOOTH",
"273 538 OFFCURVE",
"222 486 OFFCURVE",
"199 354 CURVE"
);
}
);
};
layerId = "C76CAC8E-7AD6-478C-8F7E-02FEF6F1EA84";
paths = (
{
closed = 1;
nodes = (
"233 431 LINE",
"198 431 LINE",
"213 426 LINE",
"196 525 LINE",
"73 525 LINE",
"73 0 LINE",
"213 0 LINE",
"213 291 LINE SMOOTH",
"213 366 OFFCURVE",
"273 405 OFFCURVE",
"349 405 CURVE SMOOTH",
"371 405 OFFCURVE",
"390 403 OFFCURVE",
"406 400 CURVE",
"406 533 LINE",
"393 536 OFFCURVE",
"376 538 OFFCURVE",
"357 538 CURVE SMOOTH",
"273 538 OFFCURVE",
"222 486 OFFCURVE",
"199 354 CURVE"
);
}
);
width = 426;
},
{
background = {
paths = (
{
closed = 1;
nodes = (
"293 421 LINE",
"258 421 LINE",
"272 416 LINE",
"250 535 LINE",
"60 535 LINE",
"60 0 LINE",
"275 0 LINE",
"275 243 LINE SMOOTH",
"275 308 OFFCURVE",
"325 350 OFFCURVE",
"401 350 CURVE SMOOTH",
"423 350 OFFCURVE",
"442 348 OFFCURVE",
"458 345 CURVE",
"458 543 LINE",
"446 548 OFFCURVE",
"421 550 OFFCURVE",
"409 550 CURVE SMOOTH",
"305 550 OFFCURVE",
"278 478 OFFCURVE",
"266 344 CURVE"
);
}
);
};
layerId = "2D8239A6-199F-4292-A93F-56491AD13939";
paths = (
{
closed = 1;
nodes = (
"289 421 LINE",
"255 421 LINE",
"269 416 LINE",
"247 535 LINE",
"57 535 LINE",
"57 0 LINE",
"272 0 LINE",
"272 243 LINE SMOOTH",
"272 308 OFFCURVE",
"320 350 OFFCURVE",
"393 350 CURVE SMOOTH",
"415 350 OFFCURVE",
"433 348 OFFCURVE",
"449 345 CURVE",
"449 543 LINE",
"437 548 OFFCURVE",
"412 550 OFFCURVE",
"401 550 CURVE SMOOTH",
"299 550 OFFCURVE",
"274 478 OFFCURVE",
"264 344 CURVE"
);
}
);
width = 468;
userData = {
RMXScaler = {
width = 97;
};
};
},
{
background = {
paths = (
{
closed = 1;
nodes = (
"145 0 LINE",
"145 278 LINE SMOOTH",
"145 401 OFFCURVE",
"232 477 OFFCURVE",
"334 477 CURVE SMOOTH",
"431 477 OFFCURVE",
"479 434 OFFCURVE",
"479 318 CURVE SMOOTH",
"479 0 LINE",
"534 0 LINE",
"534 335 LINE SMOOTH",
"534 463 OFFCURVE",
"458 529 OFFCURVE",
"339 529 CURVE SMOOTH",
"225 529 OFFCURVE",
"156 455 OFFCURVE",
"133 382 CURVE",
"170 420 LINE",
"130 420 LINE",
"146 400 LINE",
"132 514 LINE",
"90 514 LINE",
"90 0 LINE"
);
}
);
};
layerId = "EAE779D9-56D9-4706-9B6E-8BCD47BDA60B";
paths = (
{
closed = 1;
nodes = (
"180 420 LINE",
"137 420 LINE",
"154 400 LINE",
"139 514 LINE",
"98 514 LINE",
"98 0 LINE",
"153 0 LINE",
"153 278 LINE SMOOTH",
"153 396 OFFCURVE",
"231 474 OFFCURVE",
"345 474 CURVE SMOOTH",
"359 474 OFFCURVE",
"382 471 OFFCURVE",
"393 468 CURVE",
"393 521 LINE",
"377 526 OFFCURVE",
"360 529 OFFCURVE",
"336 529 CURVE SMOOTH",
"242 529 OFFCURVE",
"181 475 OFFCURVE",
"145 395 CURVE"
);
}
);
width = 398;
userData = {
RMXScaler = {
width = 108;
};
};
}
);
leftMetricsKey = "=n";
unicode = 0072;
userData = {
RMXScaler = {
source = r;
};
};
},
{
color = 9;
glyphname = s;
lastChange = "2017-06-29 17:35:38 +0000";
layers = (
{
background = {
paths = (
{
closed = 1;
nodes = (
"435 -14 OFFCURVE",
"531 31 OFFCURVE",
"531 145 CURVE SMOOTH",
"531 234 OFFCURVE",
"484 291 OFFCURVE",
"376 310 CURVE SMOOTH",
"280 327 LINE SMOOTH",
"220 338 OFFCURVE",
"202 352 OFFCURVE",
"202 384 CURVE SMOOTH",
"202 421 OFFCURVE",
"230 435 OFFCURVE",
"292 435 CURVE SMOOTH",
"352 435 OFFCURVE",
"374 419 OFFCURVE",
"380 384 CURVE SMOOTH",
"382 373 LINE",
"522 373 LINE",
"519 395 LINE SMOOTH",
"506 493 OFFCURVE",
"436 540 OFFCURVE",
"290 540 CURVE SMOOTH",
"146 540 OFFCURVE",
"62 491 OFFCURVE",
"62 383 CURVE SMOOTH",
"62 292 OFFCURVE",
"120 234 OFFCURVE",
"224 215 CURVE SMOOTH",
"319 198 LINE SMOOTH",
"373 188 OFFCURVE",
"391 173 OFFCURVE",
"391 144 CURVE SMOOTH",
"391 107 OFFCURVE",
"365 91 OFFCURVE",
"300 91 CURVE SMOOTH",
"235 91 OFFCURVE",
"205 106 OFFCURVE",
"197 147 CURVE SMOOTH",
"195 157 LINE",
"55 157 LINE",
"56 140 LINE SMOOTH",
"62 30 OFFCURVE",
"146 -14 OFFCURVE",
"297 -14 CURVE SMOOTH"
);
}
);
};
layerId = "C76CAC8E-7AD6-478C-8F7E-02FEF6F1EA84";
paths = (
{
closed = 1;
nodes = (
"419 -13 OFFCURVE",
"517 41 OFFCURVE",
"517 155 CURVE SMOOTH",
"517 245 OFFCURVE",
"471 289 OFFCURVE",
"368 306 CURVE SMOOTH",
"263 323 LINE SMOOTH",
"212 331 OFFCURVE",
"194 348 OFFCURVE",
"194 379 CURVE SMOOTH",
"194 416 OFFCURVE",
"224 435 OFFCURVE",
"281 435 CURVE SMOOTH",
"336 435 OFFCURVE",
"361 419 OFFCURVE",
"367 384 CURVE SMOOTH",
"369 373 LINE",
"510 373 LINE",
"507 395 LINE SMOOTH",
"494 493 OFFCURVE",
"420 540 OFFCURVE",
"279 540 CURVE SMOOTH",
"141 540 OFFCURVE",
"56 482 OFFCURVE",
"56 374 CURVE SMOOTH",
"56 283 OFFCURVE",
"112 238 OFFCURVE",
"207 221 CURVE SMOOTH",
"311 203 LINE SMOOTH",
"360 194 OFFCURVE",
"378 178 OFFCURVE",
"378 149 CURVE SMOOTH",
"378 112 OFFCURVE",
"349 92 OFFCURVE",
"289 92 CURVE SMOOTH",
"230 92 OFFCURVE",
"197 106 OFFCURVE",
"189 147 CURVE SMOOTH",
"187 157 LINE",
"45 157 LINE",
"47 140 LINE SMOOTH",
"60 31 OFFCURVE",
"151 -13 OFFCURVE",
"286 -13 CURVE SMOOTH"
);
}
);
width = 562;
},
{
background = {
paths = (
{
closed = 1;
nodes = (
"486 -16 OFFCURVE",
"584 36 OFFCURVE",
"583 157 CURVE SMOOTH",
"583 251 OFFCURVE",
"528 305 OFFCURVE",
"406 326 CURVE SMOOTH",
"319 341 LINE SMOOTH",
"273 349 OFFCURVE",
"262 360 OFFCURVE",
"262 381 CURVE SMOOTH",
"262 404 OFFCURVE",
"278 415 OFFCURVE",
"314 415 CURVE SMOOTH",
"350 415 OFFCURVE",
"368 403 OFFCURVE",
"372 375 CURVE SMOOTH",
"373 368 LINE",
"580 368 LINE",
"578 384 LINE SMOOTH",
"563 503 OFFCURVE",
"471 550 OFFCURVE",
"307 550 CURVE SMOOTH",
"132 550 OFFCURVE",
"43 493 OFFCURVE",
"43 375 CURVE SMOOTH",
"43 277 OFFCURVE",
"95 229 OFFCURVE",
"228 206 CURVE SMOOTH",
"304 193 LINE SMOOTH",
"353 185 OFFCURVE",
"365 174 OFFCURVE",
"365 152 CURVE SMOOTH",
"365 130 OFFCURVE",
"348 119 OFFCURVE",
"307 119 CURVE SMOOTH",
"272 119 OFFCURVE",
"253 133 OFFCURVE",
"250 161 CURVE SMOOTH",
"249 172 LINE",
"35 172 LINE",
"36 156 LINE SMOOTH",
"44 26 OFFCURVE",
"151 -16 OFFCURVE",
"311 -16 CURVE SMOOTH"
);
}
);
};
layerId = "2D8239A6-199F-4292-A93F-56491AD13939";
paths = (
{
closed = 1;
nodes = (
"477 -16 OFFCURVE",
"571 36 OFFCURVE",
"571 157 CURVE SMOOTH",
"571 251 OFFCURVE",
"517 304 OFFCURVE",
"397 326 CURVE SMOOTH",
"315 341 LINE SMOOTH",
"270 349 OFFCURVE",
"260 360 OFFCURVE",
"260 381 CURVE SMOOTH",
"260 404 OFFCURVE",
"274 415 OFFCURVE",
"307 415 CURVE SMOOTH",
"341 415 OFFCURVE",
"357 403 OFFCURVE",
"361 375 CURVE SMOOTH",
"362 368 LINE",
"569 368 LINE",
"567 384 LINE SMOOTH",
"552 503 OFFCURVE",
"461 550 OFFCURVE",
"300 550 CURVE SMOOTH",
"127 550 OFFCURVE",
"41 493 OFFCURVE",
"41 375 CURVE SMOOTH",
"41 277 OFFCURVE",
"91 230 OFFCURVE",
"223 206 CURVE SMOOTH",
"295 193 LINE SMOOTH",
"342 185 OFFCURVE",
"353 174 OFFCURVE",
"353 152 CURVE SMOOTH",
"353 130 OFFCURVE",
"337 119 OFFCURVE",
"299 119 CURVE SMOOTH",
"267 119 OFFCURVE",
"251 133 OFFCURVE",
"248 161 CURVE SMOOTH",
"247 172 LINE",
"33 172 LINE",
"34 156 LINE SMOOTH",
"42 26 OFFCURVE",
"146 -16 OFFCURVE",
"304 -16 CURVE SMOOTH"
);
}
);
width = 604;
userData = {
RMXScaler = {
width = 97;
};
};
},
{
background = {
paths = (
{
closed = 1;
nodes = (
"401 -15 OFFCURVE",
"484 17 OFFCURVE",
"487 123 CURVE SMOOTH",
"489 208 OFFCURVE",
"436 249 OFFCURVE",
"338 273 CURVE SMOOTH",
"247 296 LINE SMOOTH",
"174 314 OFFCURVE",
"141 339 OFFCURVE",
"141 392 CURVE SMOOTH",
"141 450 OFFCURVE",
"188 482 OFFCURVE",
"277 482 CURVE SMOOTH",
"362 482 OFFCURVE",
"409 452 OFFCURVE",
"417 387 CURVE SMOOTH",
"418 379 LINE",
"473 379 LINE",
"472 389 LINE SMOOTH",
"463 477 OFFCURVE",
"402 529 OFFCURVE",
"277 529 CURVE SMOOTH",
"164 529 OFFCURVE",
"89 479 OFFCURVE",
"89 392 CURVE SMOOTH",
"89 299 OFFCURVE",
"154 267 OFFCURVE",
"231 248 CURVE SMOOTH",
"337 222 LINE SMOOTH",
"403 206 OFFCURVE",
"435 178 OFFCURVE",
"435 121 CURVE SMOOTH",
"435 52 OFFCURVE",
"376 31 OFFCURVE",
"288 31 CURVE SMOOTH",
"191 31 OFFCURVE",
"143 65 OFFCURVE",
"136 131 CURVE SMOOTH",
"135 140 LINE",
"80 140 LINE",
"80 137 LINE SMOOTH",
"80 40 OFFCURVE",
"154 -15 OFFCURVE",
"289 -15 CURVE SMOOTH"
);
}
);
};
layerId = "EAE779D9-56D9-4706-9B6E-8BCD47BDA60B";
paths = (
{
closed = 1;
nodes = (
"449 -15 OFFCURVE",
"539 32 OFFCURVE",
"541 138 CURVE SMOOTH",
"543 223 OFFCURVE",
"487 265 OFFCURVE",
"363 280 CURVE SMOOTH",
"266 292 LINE SMOOTH",
"168 304 OFFCURVE",
"133 335 OFFCURVE",
"133 388 CURVE SMOOTH",
"133 446 OFFCURVE",
"190 482 OFFCURVE",
"299 482 CURVE SMOOTH",
"409 482 OFFCURVE",
"463 442 OFFCURVE",
"470 387 CURVE SMOOTH",
"471 379 LINE",
"526 379 LINE",
"525 389 LINE SMOOTH",
"517 467 OFFCURVE",
"450 529 OFFCURVE",
"299 529 CURVE SMOOTH",
"167 529 OFFCURVE",
"81 475 OFFCURVE",
"81 388 CURVE SMOOTH",
"81 295 OFFCURVE",
"151 256 OFFCURVE",
"251 244 CURVE SMOOTH",
"365 230 LINE SMOOTH",
"456 219 OFFCURVE",
"490 193 OFFCURVE",
"490 136 CURVE SMOOTH",
"490 67 OFFCURVE",
"424 31 OFFCURVE",
"311 31 CURVE SMOOTH",
"187 31 OFFCURVE",
"132 85 OFFCURVE",
"127 131 CURVE SMOOTH",
"126 140 LINE",
"71 140 LINE",
"71 137 LINE SMOOTH",
"71 60 OFFCURVE",
"149 -15 OFFCURVE",
"312 -15 CURVE SMOOTH"
);
}
);
width = 613;
userData = {
RMXScaler = {
width = 108;
};
};
}
);
unicode = 0073;
userData = {
RMXScaler = {
source = s;
};
};
},
{
color = 9;
glyphname = t;
lastChange = "2017-06-29 17:35:38 +0000";
layers = (
{
background = {
paths = (
{
closed = 1;
nodes = (
"10 410 LINE",
"393 410 LINE",
"393 525 LINE",
"10 525 LINE"
);
},
{
closed = 1;
nodes = (
"388 111 LINE",
"378 109 OFFCURVE",
"340 106 OFFCURVE",
"320 106 CURVE SMOOTH",
"270 106 OFFCURVE",
"245 128 OFFCURVE",
"245 190 CURVE SMOOTH",
"245 665 LINE",
"129 665 LINE",
"105 525 LINE",
"105 167 LINE SMOOTH",
"105 47 OFFCURVE",
"164 -9 OFFCURVE",
"289 -9 CURVE SMOOTH",
"330 -9 OFFCURVE",
"369 -3 OFFCURVE",
"388 1 CURVE"
);
}
);
};
layerId = "C76CAC8E-7AD6-478C-8F7E-02FEF6F1EA84";
paths = (
{
closed = 1;
nodes = (
"10 410 LINE",
"393 410 LINE",
"393 525 LINE",
"10 525 LINE"
);
},
{
closed = 1;
nodes = (
"388 111 LINE",
"378 109 OFFCURVE",
"340 106 OFFCURVE",
"320 106 CURVE SMOOTH",
"270 106 OFFCURVE",
"245 128 OFFCURVE",
"245 190 CURVE SMOOTH",
"245 665 LINE",
"129 665 LINE",
"105 525 LINE",
"105 167 LINE SMOOTH",
"105 47 OFFCURVE",
"164 -9 OFFCURVE",
"289 -9 CURVE SMOOTH",
"330 -9 OFFCURVE",
"369 -3 OFFCURVE",
"388 1 CURVE"
);
}
);
width = 423;
},
{
background = {
paths = (
{
closed = 1;
nodes = (
"10 375 LINE",
"425 375 LINE",
"425 535 LINE",
"10 535 LINE"
);
},
{
closed = 1;
nodes = (
"425 165 LINE",
"407 162 OFFCURVE",
"383 161 OFFCURVE",
"369 161 CURVE SMOOTH",
"319 161 OFFCURVE",
"305 178 OFFCURVE",
"305 227 CURVE SMOOTH",
"305 665 LINE",
"120 665 LINE",
"90 535 LINE",
"90 167 LINE SMOOTH",
"90 47 OFFCURVE",
"149 -9 OFFCURVE",
"295 -9 CURVE SMOOTH",
"345 -9 OFFCURVE",
"401 -1 OFFCURVE",
"425 4 CURVE"
);
}
);
};
layerId = "2D8239A6-199F-4292-A93F-56491AD13939";
paths = (
{
closed = 1;
nodes = (
"10 375 LINE",
"415 375 LINE",
"415 535 LINE",
"10 535 LINE"
);
},
{
closed = 1;
nodes = (
"416 165 LINE",
"398 162 OFFCURVE",
"376 161 OFFCURVE",
"362 161 CURVE SMOOTH",
"314 161 OFFCURVE",
"301 178 OFFCURVE",
"301 227 CURVE SMOOTH",
"301 665 LINE",
"116 665 LINE",
"86 535 LINE",
"86 167 LINE SMOOTH",
"86 47 OFFCURVE",
"144 -9 OFFCURVE",
"287 -9 CURVE SMOOTH",
"336 -9 OFFCURVE",
"392 -1 OFFCURVE",
"416 4 CURVE"
);
}
);
width = 466;
userData = {
RMXScaler = {
width = 97;
};
};
},
{
background = {
paths = (
{
closed = 1;
nodes = (
"9 464 LINE",
"343 464 LINE",
"343 514 LINE",
"9 514 LINE"
);
},
{
closed = 1;
nodes = (
"343 47 LINE",
"324 44 OFFCURVE",
"298 39 OFFCURVE",
"271 39 CURVE SMOOTH",
"208 39 OFFCURVE",
"174 66 OFFCURVE",
"174 147 CURVE SMOOTH",
"174 665 LINE",
"134 665 LINE",
"119 514 LINE",
"119 146 LINE SMOOTH",
"119 36 OFFCURVE",
"168 -10 OFFCURVE",
"269 -10 CURVE SMOOTH",
"300 -10 OFFCURVE",
"330 -3 OFFCURVE",
"343 0 CURVE"
);
}
);
};
layerId = "EAE779D9-56D9-4706-9B6E-8BCD47BDA60B";
paths = (
{
closed = 1;
nodes = (
"11 464 LINE",
"396 464 LINE",
"396 514 LINE",
"11 514 LINE"
);
},
{
closed = 1;
nodes = (
"397 47 LINE",
"373 44 OFFCURVE",
"345 39 OFFCURVE",
"312 39 CURVE SMOOTH",
"237 39 OFFCURVE",
"197 66 OFFCURVE",
"197 147 CURVE SMOOTH",
"197 665 LINE",
"158 665 LINE",
"142 514 LINE",
"142 146 LINE SMOOTH",
"142 36 OFFCURVE",
"198 -10 OFFCURVE",
"313 -10 CURVE SMOOTH",
"349 -10 OFFCURVE",
"383 -3 OFFCURVE",
"397 0 CURVE"
);
}
);
width = 429;
userData = {
RMXScaler = {
width = 108;
};
};
}
);
unicode = 0074;
userData = {
RMXScaler = {
source = t;
};
};
},
{
color = 9;
glyphname = u;
lastChange = "2017-06-29 17:35:38 +0000";
layers = (
{
background = {
components = (
{
name = n;
transform = "{-1, 0, 0, -1, 629, 525}";
}
);
};
layerId = "C76CAC8E-7AD6-478C-8F7E-02FEF6F1EA84";
paths = (
{
closed = 1;
nodes = (
"406 525 LINE",
"406 237 LINE SMOOTH",
"406 157 OFFCURVE",
"360 110 OFFCURVE",
"294 110 CURVE SMOOTH",
"236 110 OFFCURVE",
"208 144 OFFCURVE",
"208 223 CURVE SMOOTH",
"208 525 LINE",
"68 525 LINE",
"68 175 LINE SMOOTH",
"68 54 OFFCURVE",
"125 -15 OFFCURVE",
"237 -15 CURVE SMOOTH",
"326 -15 OFFCURVE",
"372 31 OFFCURVE",
"409 101 CURVE",
"389 88 LINE",
"424 88 LINE",
"406 98 LINE",
"423 0 LINE",
"546 0 LINE",
"546 525 LINE"
);
}
);
width = 619;
},
{
background = {
paths = (
{
closed = 1;
nodes = (
"410 535 LINE",
"410 257 LINE SMOOTH",
"410 205 OFFCURVE",
"373 175 OFFCURVE",
"328 175 CURVE SMOOTH",
"285 175 OFFCURVE",
"270 199 OFFCURVE",
"270 245 CURVE SMOOTH",
"270 535 LINE",
"55 535 LINE",
"55 189 LINE SMOOTH",
"55 66 OFFCURVE",
"102 -15 OFFCURVE",
"232 -15 CURVE SMOOTH",
"339 -15 OFFCURVE",
"386 48 OFFCURVE",
"423 142 CURVE",
"400 109 LINE",
"430 109 LINE",
"410 133 LINE",
"435 0 LINE",
"625 0 LINE",
"625 535 LINE"
);
}
);
};
layerId = "2D8239A6-199F-4292-A93F-56491AD13939";
paths = (
{
closed = 1;
nodes = (
"398 535 LINE",
"398 257 LINE SMOOTH",
"398 205 OFFCURVE",
"363 175 OFFCURVE",
"321 175 CURVE SMOOTH",
"280 175 OFFCURVE",
"267 199 OFFCURVE",
"267 245 CURVE SMOOTH",
"267 535 LINE",
"52 535 LINE",
"52 189 LINE SMOOTH",
"52 66 OFFCURVE",
"97 -15 OFFCURVE",
"224 -15 CURVE SMOOTH",
"330 -15 OFFCURVE",
"375 48 OFFCURVE",
"411 142 CURVE",
"389 109 LINE",
"417 109 LINE",
"398 133 LINE",
"423 0 LINE",
"613 0 LINE",
"613 535 LINE"
);
}
);
width = 670;
userData = {
RMXScaler = {
width = 97;
};
};
},
{
background = {
paths = (
{
closed = 1;
nodes = (
"429 514 LINE",
"429 236 LINE SMOOTH",
"429 123 OFFCURVE",
"356 37 OFFCURVE",
"259 37 CURVE SMOOTH",
"174 37 OFFCURVE",
"130 82 OFFCURVE",
"130 198 CURVE SMOOTH",
"130 514 LINE",
"75 514 LINE",
"75 169 LINE SMOOTH",
"75 41 OFFCURVE",
"147 -15 OFFCURVE",
"254 -15 CURVE SMOOTH",
"353 -15 OFFCURVE",
"407 44 OFFCURVE",
"440 119 CURVE",
"404 94 LINE",
"444 94 LINE",
"428 114 LINE",
"441 0 LINE",
"484 0 LINE",
"484 514 LINE"
);
}
);
};
layerId = "EAE779D9-56D9-4706-9B6E-8BCD47BDA60B";
paths = (
{
closed = 1;
nodes = (
"499 514 LINE",
"499 236 LINE SMOOTH",
"499 113 OFFCURVE",
"403 37 OFFCURVE",
"302 37 CURVE SMOOTH",
"201 37 OFFCURVE",
"148 80 OFFCURVE",
"148 196 CURVE SMOOTH",
"148 514 LINE",
"93 514 LINE",
"93 179 LINE SMOOTH",
"93 51 OFFCURVE",
"176 -15 OFFCURVE",
"299 -15 CURVE SMOOTH",
"412 -15 OFFCURVE",
"488 59 OFFCURVE",
"512 132 CURVE",
"471 94 LINE",
"515 94 LINE",
"498 114 LINE",
"513 0 LINE",
"554 0 LINE",
"554 514 LINE"
);
}
);
width = 652;
userData = {
RMXScaler = {
width = 108;
};
};
}
);
rightMetricsKey = "=|n";
unicode = 0075;
userData = {
RMXScaler = {
source = u;
};
};
},
{
color = 9;
glyphname = v;
lastChange = "2017-06-29 17:35:38 +0000";
layers = (
{
background = {
paths = (
{
closed = 0;
nodes = (
"382 0 LINE",
"570 525 LINE",
"420 525 LINE",
"279 79 LINE"
);
}
);
};
layerId = "C76CAC8E-7AD6-478C-8F7E-02FEF6F1EA84";
paths = (
{
closed = 1;
nodes = (
"279 79 LINE",
"337 120 LINE",
"240 120 LINE",
"299 79 LINE",
"157 525 LINE",
"7 525 LINE",
"196 0 LINE",
"382 0 LINE",
"571 525 LINE",
"421 525 LINE"
);
}
);
width = 578;
},
{
background = {
paths = (
{
closed = 1;
nodes = (
"315 136 LINE",
"366 170 LINE",
"269 170 LINE",
"324 136 LINE",
"225 535 LINE",
"0 535 LINE",
"176 0 LINE",
"463 0 LINE",
"639 535 LINE",
"414 535 LINE"
);
}
);
};
layerId = "2D8239A6-199F-4292-A93F-56491AD13939";
paths = (
{
closed = 1;
nodes = (
"308 136 LINE",
"357 170 LINE",
"263 170 LINE",
"316 136 LINE",
"224 535 LINE",
"-1 535 LINE",
"169 0 LINE",
"456 0 LINE",
"625 535 LINE",
"401 535 LINE"
);
}
);
width = 624;
userData = {
RMXScaler = {
width = 97;
};
};
},
{
background = {
paths = (
{
closed = 1;
nodes = (
"232 38 LINE",
"259 63 LINE",
"222 63 LINE",
"247 38 LINE",
"69 514 LINE",
"9 514 LINE",
"210 0 LINE",
"269 0 LINE",
"470 514 LINE",
"410 514 LINE"
);
}
);
};
layerId = "EAE779D9-56D9-4706-9B6E-8BCD47BDA60B";
paths = (
{
closed = 1;
nodes = (
"267 38 LINE",
"295 63 LINE",
"258 63 LINE",
"283 38 LINE",
"71 514 LINE",
"11 514 LINE",
"248 0 LINE",
"303 0 LINE",
"540 514 LINE",
"480 514 LINE"
);
}
);
width = 551;
userData = {
RMXScaler = {
width = 108;
};
};
}
);
unicode = 0076;
userData = {
RMXScaler = {
source = v;
};
};
},
{
color = 9;
glyphname = w;
lastChange = "2017-06-29 17:35:38 +0000";
layers = (
{
background = {
paths = (
{
closed = 1;
nodes = (
"331 0 LINE",
"440 371 LINE",
"412 371 LINE",
"521 0 LINE",
"681 0 LINE",
"840 525 LINE",
"689 525 LINE",
"545 12 LINE",
"631 12 LINE",
"492 525 LINE",
"360 525 LINE",
"248 112 LINE",
"279 112 LINE",
"163 525 LINE",
"12 525 LINE",
"171 0 LINE"
);
}
);
};
layerId = "C76CAC8E-7AD6-478C-8F7E-02FEF6F1EA84";
paths = (
{
closed = 1;
nodes = (
"622 113 LINE",
"659 130 LINE",
"564 130 LINE",
"621 113 LINE",
"528 525 LINE",
"346 525 LINE",
"256 113 LINE",
"313 130 LINE",
"218 130 LINE",
"255 113 LINE",
"157 525 LINE",
"7 525 LINE",
"159 0 LINE",
"342 0 LINE",
"443 432 LINE",
"385 395 LINE",
"479 395 LINE",
"431 431 LINE",
"532 0 LINE",
"715 0 LINE",
"867 525 LINE",
"717 525 LINE"
);
}
);
width = 874;
},
{
background = {
paths = (
{
closed = 1;
nodes = (
"627 113 LINE",
"679 170 LINE",
"584 170 LINE",
"641 113 LINE",
"561 535 LINE",
"359 535 LINE",
"282 113 LINE",
"339 170 LINE",
"244 170 LINE",
"296 113 LINE",
"230 535 LINE",
"0 535 LINE",
"132 0 LINE",
"398 0 LINE",
"476 442 LINE",
"408 335 LINE",
"502 335 LINE",
"444 441 LINE",
"522 0 LINE",
"788 0 LINE",
"920 535 LINE",
"690 535 LINE"
);
}
);
};
layerId = "2D8239A6-199F-4292-A93F-56491AD13939";
paths = (
{
closed = 1;
nodes = (
"608 113 LINE",
"660 170 LINE",
"568 170 LINE",
"623 113 LINE",
"547 535 LINE",
"349 535 LINE",
"275 113 LINE",
"331 170 LINE",
"239 170 LINE",
"290 113 LINE",
"229 535 LINE",
"-1 535 LINE",
"125 0 LINE",
"390 0 LINE",
"464 442 LINE",
"397 335 LINE",
"489 335 LINE",
"431 441 LINE",
"505 0 LINE",
"770 0 LINE",
"897 535 LINE",
"667 535 LINE"
);
}
);
width = 896;
userData = {
RMXScaler = {
width = 97;
};
};
},
{
background = {
paths = (
{
closed = 1;
nodes = (
"542 44 LINE",
"553 60 LINE",
"535 60 LINE",
"548 44 LINE",
"414 514 LINE",
"344 514 LINE",
"206 27 LINE",
"233 60 LINE",
"192 60 LINE",
"223 26 LINE",
"74 514 LINE",
"14 514 LINE",
"178 0 LINE",
"248 0 LINE",
"385 484 LINE",
"363 457 LINE",
"394 457 LINE",
"373 484 LINE",
"510 0 LINE",
"580 0 LINE",
"744 514 LINE",
"684 514 LINE"
);
}
);
};
layerId = "EAE779D9-56D9-4706-9B6E-8BCD47BDA60B";
paths = (
{
closed = 1;
nodes = (
"631 44 LINE",
"640 60 LINE",
"628 60 LINE",
"639 44 LINE",
"472 514 LINE",
"402 514 LINE",
"229 27 LINE",
"258 60 LINE",
"216 60 LINE",
"252 26 LINE",
"71 514 LINE",
"11 514 LINE",
"205 0 LINE",
"273 0 LINE",
"443 484 LINE",
"422 457 LINE",
"452 457 LINE",
"429 484 LINE",
"601 0 LINE",
"669 0 LINE",
"863 514 LINE",
"803 514 LINE"
);
}
);
width = 874;
userData = {
RMXScaler = {
width = 108;
};
};
}
);
leftMetricsKey = v;
rightMetricsKey = v;
unicode = 0077;
userData = {
RMXScaler = {
source = w;
};
};
},
{
color = 9;
glyphname = x;
lastChange = "2017-06-29 17:35:38 +0000";
layers = (
{
background = {
paths = (
{
closed = 1;
nodes = (
"160 0 LINE",
"281 224 LINE",
"354 224 LINE",
"528 525 LINE",
"373 525 LINE",
"257 306 LINE",
"182 306 LINE",
"5 0 LINE"
);
},
{
closed = 1;
nodes = (
"528 0 LINE",
"354 306 LINE",
"274 306 LINE",
"160 525 LINE",
"5 525 LINE",
"174 224 LINE",
"252 224 LINE",
"373 0 LINE"
);
}
);
};
layerId = "C76CAC8E-7AD6-478C-8F7E-02FEF6F1EA84";
paths = (
{
closed = 1;
nodes = (
"160 0 LINE",
"281 224 LINE",
"354 224 LINE",
"528 525 LINE",
"373 525 LINE",
"257 306 LINE",
"182 306 LINE",
"5 0 LINE"
);
},
{
closed = 1;
nodes = (
"528 0 LINE",
"342 327 LINE",
"263 327 LINE",
"160 525 LINE",
"5 525 LINE",
"192 192 LINE",
"269 192 LINE",
"373 0 LINE"
);
}
);
width = 533;
},
{
background = {
paths = (
{
closed = 1;
nodes = (
"231 0 LINE",
"359 250 LINE",
"463 250 LINE",
"634 535 LINE",
"408 535 LINE",
"290 304 LINE",
"187 304 LINE",
"5 0 LINE"
);
},
{
closed = 1;
nodes = (
"636 0 LINE",
"414 370 LINE",
"318 370 LINE",
"233 535 LINE",
"7 535 LINE",
"227 168 LINE",
"324 168 LINE",
"410 0 LINE"
);
}
);
};
guideLines = (
{
angle = 90;
position = "{324, 265}";
}
);
layerId = "2D8239A6-199F-4292-A93F-56491AD13939";
paths = (
{
closed = 1;
nodes = (
"230 0 LINE",
"355 250 LINE",
"459 250 LINE",
"624 535 LINE",
"399 535 LINE",
"284 304 LINE",
"182 304 LINE",
"5 0 LINE"
);
},
{
closed = 1;
nodes = (
"626 0 LINE",
"408 370 LINE",
"313 370 LINE",
"232 535 LINE",
"7 535 LINE",
"223 168 LINE",
"319 168 LINE",
"401 0 LINE"
);
}
);
width = 631;
userData = {
RMXScaler = {
width = 97;
};
};
},
{
background = {
paths = (
{
closed = 1;
nodes = (
"101 0 LINE",
"244 221 LINE",
"264 221 LINE",
"457 514 LINE",
"392 514 LINE",
"235 265 LINE",
"215 265 LINE",
"36 0 LINE"
);
},
{
closed = 1;
nodes = (
"457 0 LINE",
"266 285 LINE",
"246 285 LINE",
"101 514 LINE",
"36 514 LINE",
"222 229 LINE",
"242 229 LINE",
"392 0 LINE"
);
}
);
};
layerId = "EAE779D9-56D9-4706-9B6E-8BCD47BDA60B";
paths = (
{
closed = 1;
nodes = (
"111 0 LINE",
"281 221 LINE",
"299 221 LINE",
"526 514 LINE",
"461 514 LINE",
"272 265 LINE",
"254 265 LINE",
"45 0 LINE"
);
},
{
closed = 1;
nodes = (
"526 0 LINE",
"300 285 LINE",
"284 285 LINE",
"111 514 LINE",
"45 514 LINE",
"263 229 LINE",
"279 229 LINE",
"461 0 LINE"
);
}
);
width = 571;
userData = {
RMXScaler = {
width = 108;
};
};
}
);
unicode = 0078;
userData = {
RMXScaler = {
source = x;
};
};
},
{
color = 9;
glyphname = y;
lastChange = "2017-07-04 09:24:03 +0000";
layers = (
{
guideLines = (
{
angle = 90;
position = "{285, 393}";
}
);
layerId = "C76CAC8E-7AD6-478C-8F7E-02FEF6F1EA84";
paths = (
{
closed = 1;
nodes = (
"285 81 LINE",
"343 124 LINE",
"246 124 LINE",
"304 81 LINE",
"157 525 LINE",
"7 525 LINE",
"202 0 LINE",
"307 0 LINE",
"278 43 LINE",
"242 -59 OFFCURVE",
"211 -95 OFFCURVE",
"139 -95 CURVE SMOOTH",
"115 -95 OFFCURVE",
"81 -92 OFFCURVE",
"52 -87 CURVE",
"52 -199 LINE",
"85 -206 OFFCURVE",
"109 -210 OFFCURVE",
"152 -210 CURVE SMOOTH",
"294 -210 OFFCURVE",
"345 -124 OFFCURVE",
"387 0 CURVE SMOOTH",
"563 525 LINE",
"413 525 LINE"
);
}
);
width = 570;
},
{
background = {
paths = (
{
closed = 1;
nodes = (
"321 136 LINE",
"372 170 LINE",
"275 170 LINE",
"330 136 LINE",
"225 535 LINE",
"0 535 LINE",
"182 0 LINE",
"321 0 LINE",
"293 14 LINE",
"269 -40 OFFCURVE",
"237 -50 OFFCURVE",
"165 -50 CURVE SMOOTH",
"140 -50 OFFCURVE",
"106 -47 OFFCURVE",
"80 -44 CURVE",
"80 -195 LINE",
"116 -204 OFFCURVE",
"161 -210 OFFCURVE",
"207 -210 CURVE SMOOTH",
"358 -210 OFFCURVE",
"426 -142 OFFCURVE",
"469 0 CURVE SMOOTH",
"631 535 LINE",
"406 535 LINE"
);
}
);
};
guideLines = (
{
angle = 90;
position = "{316, 393}";
}
);
layerId = "2D8239A6-199F-4292-A93F-56491AD13939";
paths = (
{
closed = 1;
nodes = (
"314 136 LINE",
"363 170 LINE",
"269 170 LINE",
"322 136 LINE",
"224 535 LINE",
"-1 535 LINE",
"174 0 LINE",
"312 0 LINE",
"285 14 LINE",
"263 -40 OFFCURVE",
"232 -50 OFFCURVE",
"162 -50 CURVE SMOOTH",
"138 -50 OFFCURVE",
"105 -47 OFFCURVE",
"80 -44 CURVE",
"80 -195 LINE",
"115 -204 OFFCURVE",
"160 -210 OFFCURVE",
"205 -210 CURVE SMOOTH",
"352 -210 OFFCURVE",
"420 -142 OFFCURVE",
"462 0 CURVE SMOOTH",
"618 535 LINE",
"393 535 LINE"
);
}
);
width = 617;
userData = {
RMXScaler = {
width = 97;
};
};
},
{
background = {
paths = (
{
closed = 1;
nodes = (
"259 38 LINE",
"286 63 LINE",
"249 63 LINE",
"274 38 LINE",
"80 514 LINE",
"20 514 LINE",
"238 0 LINE",
"295 0 LINE",
"513 514 LINE",
"453 514 LINE"
);
}
);
};
layerId = "EAE779D9-56D9-4706-9B6E-8BCD47BDA60B";
paths = (
{
closed = 1;
nodes = (
"287 38 LINE",
"306 53 LINE",
"269 53 LINE",
"294 38 LINE",
"82 514 LINE",
"22 514 LINE",
"253 0 LINE",
"279 0 LINE",
"284 30 LINE",
"224 -117 OFFCURVE",
"171 -161 OFFCURVE",
"100 -161 CURVE SMOOTH",
"85 -161 OFFCURVE",
"57 -159 OFFCURVE",
"32 -155 CURVE",
"32 -204 LINE",
"44 -206 OFFCURVE",
"79 -210 OFFCURVE",
"98 -210 CURVE SMOOTH",
"212 -210 OFFCURVE",
"262 -142 OFFCURVE",
"325 0 CURVE SMOOTH",
"551 514 LINE",
"491 514 LINE"
);
}
);
width = 562;
userData = {
RMXScaler = {
width = 108;
};
};
}
);
rightMetricsKey = "=v";
unicode = 0079;
userData = {
RMXScaler = {
source = y;
};
};
},
{
color = 9;
glyphname = z;
lastChange = "2017-06-29 17:35:38 +0000";
layers = (
{
background = {
paths = (
{
closed = 1;
nodes = (
"471 415 LINE",
"471 525 LINE",
"55 525 LINE",
"55 410 LINE",
"299 410 LINE",
"45 110 LINE",
"45 0 LINE",
"471 0 LINE",
"471 115 LINE",
"217 115 LINE"
);
}
);
};
layerId = "C76CAC8E-7AD6-478C-8F7E-02FEF6F1EA84";
paths = (
{
closed = 1;
nodes = (
"221 120 LINE",
"471 415 LINE",
"471 525 LINE",
"55 525 LINE",
"55 410 LINE",
"304 410 LINE",
"293 424 LINE",
"293 403 LINE",
"45 110 LINE",
"45 0 LINE",
"471 0 LINE",
"471 115 LINE",
"202 115 LINE",
"221 101 LINE"
);
}
);
width = 516;
},
{
background = {
paths = (
{
closed = 1;
nodes = (
"327 167 LINE",
"546 380 LINE",
"546 535 LINE",
"60 535 LINE",
"60 375 LINE",
"281 375 LINE",
"270 386 LINE",
"270 369 LINE",
"50 155 LINE",
"50 0 LINE",
"546 0 LINE",
"546 160 LINE",
"315 160 LINE",
"327 148 LINE"
);
}
);
};
layerId = "2D8239A6-199F-4292-A93F-56491AD13939";
paths = (
{
closed = 1;
nodes = (
"326 167 LINE",
"536 380 LINE",
"536 535 LINE",
"59 535 LINE",
"59 375 LINE",
"271 375 LINE",
"260 386 LINE",
"260 369 LINE",
"49 155 LINE",
"49 0 LINE",
"536 0 LINE",
"536 160 LINE",
"315 160 LINE",
"326 148 LINE"
);
}
);
width = 585;
userData = {
RMXScaler = {
width = 97;
};
};
},
{
background = {
paths = (
{
closed = 1;
nodes = (
"114 53 LINE",
"398 469 LINE",
"398 514 LINE",
"61 514 LINE",
"61 464 LINE",
"346 464 LINE",
"335 481 LINE",
"335 460 LINE",
"51 45 LINE",
"51 0 LINE",
"393 0 LINE",
"393 50 LINE",
"87 50 LINE",
"114 34 LINE"
);
}
);
};
layerId = "EAE779D9-56D9-4706-9B6E-8BCD47BDA60B";
paths = (
{
closed = 1;
nodes = (
"130 53 LINE",
"480 469 LINE",
"480 514 LINE",
"72 514 LINE",
"72 464 LINE",
"422 464 LINE",
"410 481 LINE",
"410 460 LINE",
"60 45 LINE",
"60 0 LINE",
"474 0 LINE",
"474 50 LINE",
"98 50 LINE",
"130 34 LINE"
);
}
);
width = 540;
userData = {
RMXScaler = {
width = 108;
};
};
}
);
unicode = 007A;
userData = {
RMXScaler = {
source = z;
};
};
},
{
color = 7;
glyphname = y.001;
lastChange = "2017-07-04 09:33:34 +0000";
layers = (
{
background = {
paths = (
{
closed = 1;
nodes = (
"279 79 LINE",
"337 120 LINE",
"240 120 LINE",
"299 79 LINE",
"157 525 LINE",
"7 525 LINE",
"196 0 LINE",
"382 0 LINE",
"571 525 LINE",
"421 525 LINE"
);
}
);
};
guideLines = (
{
angle = 90;
position = "{285, 393}";
}
);
layerId = "C76CAC8E-7AD6-478C-8F7E-02FEF6F1EA84";
paths = (
{
closed = 1;
nodes = (
"292 120 LINE",
"286 120 LINE",
"157 525 LINE",
"7 525 LINE",
"196 0 LINE",
"297 0 LINE",
"268 43 LINE",
"171 -195 LINE",
"311 -195 LINE",
"571 525 LINE",
"421 525 LINE"
);
}
);
width = 578;
},
{
background = {
paths = (
{
closed = 1;
nodes = (
"308 136 LINE",
"357 170 LINE",
"263 170 LINE",
"316 136 LINE",
"224 535 LINE",
"-1 535 LINE",
"169 0 LINE",
"456 0 LINE",
"625 535 LINE",
"401 535 LINE"
);
}
);
};
guideLines = (
{
angle = 90;
position = "{316, 393}";
}
);
layerId = "2D8239A6-199F-4292-A93F-56491AD13939";
paths = (
{
closed = 1;
nodes = (
"316 170 LINE",
"308 170 LINE",
"224 535 LINE",
"-1 535 LINE",
"169 0 LINE",
"311 0 LINE",
"271 24 LINE",
"187 -195 LINE",
"395 -195 LINE",
"625 535 LINE",
"400 535 LINE"
);
}
);
width = 624;
},
{
background = {
paths = (
{
closed = 1;
nodes = (
"267 38 LINE",
"295 63 LINE",
"258 63 LINE",
"283 38 LINE",
"71 514 LINE",
"11 514 LINE",
"248 0 LINE",
"303 0 LINE",
"540 514 LINE",
"480 514 LINE"
);
}
);
};
layerId = "EAE779D9-56D9-4706-9B6E-8BCD47BDA60B";
paths = (
{
closed = 1;
nodes = (
"280 55 LINE",
"273 55 LINE",
"71 514 LINE",
"11 514 LINE",
"239 0 LINE",
"266 0 LINE",
"266 17 LINE",
"168 -195 LINE",
"225 -195 LINE",
"540 514 LINE",
"480 514 LINE"
);
}
);
width = 551;
}
);
leftMetricsKey = "=v";
rightMetricsKey = "=v";
},
{
glyphname = colon;
lastChange = "2017-06-29 17:28:26 +0000";
layers = (
{
background = {
paths = (
{
closed = 1;
nodes = (
"160 -10 OFFCURVE",
"192 14 OFFCURVE",
"192 66 CURVE SMOOTH",
"192 117 OFFCURVE",
"160 141 OFFCURVE",
"111 141 CURVE SMOOTH",
"62 141 OFFCURVE",
"30 117 OFFCURVE",
"30 66 CURVE SMOOTH",
"30 14 OFFCURVE",
"62 -10 OFFCURVE",
"111 -10 CURVE SMOOTH"
);
},
{
closed = 1;
nodes = (
"160 384 OFFCURVE",
"192 408 OFFCURVE",
"192 459 CURVE SMOOTH",
"192 511 OFFCURVE",
"160 535 OFFCURVE",
"111 535 CURVE SMOOTH",
"62 535 OFFCURVE",
"30 511 OFFCURVE",
"30 459 CURVE SMOOTH",
"30 408 OFFCURVE",
"62 384 OFFCURVE",
"111 384 CURVE SMOOTH"
);
}
);
};
components = (
{
name = period;
},
{
name = period;
transform = "{1, 0, 0, 1, 0, 399}";
}
);
layerId = "C76CAC8E-7AD6-478C-8F7E-02FEF6F1EA84";
width = 222;
},
{
background = {
paths = (
{
closed = 1;
nodes = (
"270 157 OFFCURVE",
"225 197 OFFCURVE",
"155 197 CURVE SMOOTH",
"85 197 OFFCURVE",
"40 157 OFFCURVE",
"40 91 CURVE SMOOTH",
"40 25 OFFCURVE",
"85 -15 OFFCURVE",
"155 -15 CURVE SMOOTH",
"225 -15 OFFCURVE",
"270 25 OFFCURVE",
"270 91 CURVE SMOOTH"
);
},
{
closed = 1;
nodes = (
"270 510 OFFCURVE",
"225 550 OFFCURVE",
"155 550 CURVE SMOOTH",
"85 550 OFFCURVE",
"40 510 OFFCURVE",
"40 444 CURVE SMOOTH",
"40 378 OFFCURVE",
"85 338 OFFCURVE",
"155 338 CURVE SMOOTH",
"225 338 OFFCURVE",
"270 378 OFFCURVE",
"270 444 CURVE SMOOTH"
);
}
);
};
components = (
{
name = period;
},
{
name = period;
transform = "{1, 0, 0, 1, 0, 353}";
}
);
layerId = "2D8239A6-199F-4292-A93F-56491AD13939";
width = 310;
},
{
components = (
{
name = period;
},
{
name = period;
transform = "{1, 0, 0, 1, 0, 438}";
}
);
layerId = "EAE779D9-56D9-4706-9B6E-8BCD47BDA60B";
width = 143;
}
);
unicode = 003A;
},
{
color = 7;
glyphname = comma;
lastChange = "2017-06-29 17:28:26 +0000";
layers = (
{
background = {
paths = (
{
closed = 1;
nodes = (
"62 141 OFFCURVE",
"30 117 OFFCURVE",
"30 66 CURVE SMOOTH",
"30 14 OFFCURVE",
"62 -10 OFFCURVE",
"111 -10 CURVE",
"92 19 LINE",
"91 -34 OFFCURVE",
"58 -110 OFFCURVE",
"26 -164 CURVE",
"108 -164 LINE",
"138 -123 OFFCURVE",
"192 -45 OFFCURVE",
"192 46 CURVE SMOOTH",
"192 97 OFFCURVE",
"170 141 OFFCURVE",
"111 141 CURVE SMOOTH"
);
}
);
};
layerId = "C76CAC8E-7AD6-478C-8F7E-02FEF6F1EA84";
paths = (
{
closed = 1;
nodes = (
"62 141 OFFCURVE",
"30 117 OFFCURVE",
"30 66 CURVE SMOOTH",
"30 14 OFFCURVE",
"62 -10 OFFCURVE",
"111 -10 CURVE",
"99 19 LINE",
"98 -34 OFFCURVE",
"58 -111 OFFCURVE",
"26 -165 CURVE",
"118 -165 LINE",
"148 -124 OFFCURVE",
"192 -45 OFFCURVE",
"192 46 CURVE SMOOTH",
"192 97 OFFCURVE",
"170 141 OFFCURVE",
"111 141 CURVE SMOOTH"
);
}
);
width = 222;
},
{
background = {
paths = (
{
closed = 1;
nodes = (
"85 197 OFFCURVE",
"40 157 OFFCURVE",
"40 91 CURVE SMOOTH",
"40 25 OFFCURVE",
"84 -14 OFFCURVE",
"153 -15 CURVE",
"125 19 LINE",
"114 -34 OFFCURVE",
"83 -110 OFFCURVE",
"54 -164 CURVE",
"176 -164 LINE",
"216 -113 OFFCURVE",
"270 -30 OFFCURVE",
"270 71 CURVE SMOOTH",
"270 157 OFFCURVE",
"225 197 OFFCURVE",
"155 197 CURVE SMOOTH"
);
}
);
};
layerId = "2D8239A6-199F-4292-A93F-56491AD13939";
paths = (
{
closed = 1;
nodes = (
"85 197 OFFCURVE",
"40 157 OFFCURVE",
"40 91 CURVE SMOOTH",
"40 25 OFFCURVE",
"84 -14 OFFCURVE",
"153 -15 CURVE",
"127 19 LINE",
"116 -34 OFFCURVE",
"83 -121 OFFCURVE",
"54 -175 CURVE",
"190 -175 LINE",
"229 -114 OFFCURVE",
"270 -20 OFFCURVE",
"270 71 CURVE SMOOTH",
"270 157 OFFCURVE",
"225 197 OFFCURVE",
"155 197 CURVE SMOOTH"
);
}
);
width = 310;
},
{
background = {
paths = (
{
closed = 1;
nodes = (
"95 -5 OFFCURVE",
"113 9 OFFCURVE",
"113 38 CURVE SMOOTH",
"113 67 OFFCURVE",
"95 81 OFFCURVE",
"71 81 CURVE SMOOTH",
"47 81 OFFCURVE",
"30 67 OFFCURVE",
"30 38 CURVE SMOOTH",
"30 9 OFFCURVE",
"47 -5 OFFCURVE",
"71 -5 CURVE SMOOTH"
);
}
);
};
layerId = "EAE779D9-56D9-4706-9B6E-8BCD47BDA60B";
paths = (
{
closed = 1;
nodes = (
"47 81 OFFCURVE",
"30 67 OFFCURVE",
"30 38 CURVE SMOOTH",
"30 2 OFFCURVE",
"53 -6 OFFCURVE",
"84 -5 CURVE",
"74 19 LINE",
"74 -34 OFFCURVE",
"49 -110 OFFCURVE",
"26 -154 CURVE",
"67 -154 LINE",
"87 -116 OFFCURVE",
"113 -45 OFFCURVE",
"113 26 CURVE SMOOTH",
"113 64 OFFCURVE",
"96 81 OFFCURVE",
"70 81 CURVE SMOOTH"
);
}
);
width = 143;
}
);
unicode = 002C;
},
{
color = 7;
glyphname = period;
lastChange = "2017-06-29 17:28:26 +0000";
layers = (
{
layerId = "C76CAC8E-7AD6-478C-8F7E-02FEF6F1EA84";
paths = (
{
closed = 1;
nodes = (
"160 -10 OFFCURVE",
"192 14 OFFCURVE",
"192 66 CURVE SMOOTH",
"192 117 OFFCURVE",
"160 141 OFFCURVE",
"111 141 CURVE SMOOTH",
"62 141 OFFCURVE",
"30 117 OFFCURVE",
"30 66 CURVE SMOOTH",
"30 14 OFFCURVE",
"62 -10 OFFCURVE",
"111 -10 CURVE SMOOTH"
);
}
);
width = 222;
},
{
background = {
paths = (
{
closed = 1;
nodes = (
"249 154 OFFCURVE",
"209 192 OFFCURVE",
"147 192 CURVE SMOOTH",
"85 192 OFFCURVE",
"45 154 OFFCURVE",
"45 96 CURVE SMOOTH",
"45 38 OFFCURVE",
"85 0 OFFCURVE",
"147 0 CURVE SMOOTH",
"209 0 OFFCURVE",
"249 38 OFFCURVE",
"249 96 CURVE SMOOTH"
);
}
);
};
layerId = "2D8239A6-199F-4292-A93F-56491AD13939";
paths = (
{
closed = 1;
nodes = (
"225 -15 OFFCURVE",
"270 25 OFFCURVE",
"270 91 CURVE SMOOTH",
"270 157 OFFCURVE",
"225 197 OFFCURVE",
"155 197 CURVE SMOOTH",
"85 197 OFFCURVE",
"40 157 OFFCURVE",
"40 91 CURVE SMOOTH",
"40 25 OFFCURVE",
"85 -15 OFFCURVE",
"155 -15 CURVE SMOOTH"
);
}
);
width = 310;
},
{
background = {
paths = (
{
closed = 1;
nodes = (
"90 -4 OFFCURVE",
"108 2 OFFCURVE",
"108 38 CURVE SMOOTH",
"108 72 OFFCURVE",
"90 78 OFFCURVE",
"65 78 CURVE SMOOTH",
"40 78 OFFCURVE",
"23 72 OFFCURVE",
"23 38 CURVE SMOOTH",
"23 2 OFFCURVE",
"40 -4 OFFCURVE",
"65 -4 CURVE SMOOTH"
);
}
);
};
layerId = "EAE779D9-56D9-4706-9B6E-8BCD47BDA60B";
paths = (
{
closed = 1;
nodes = (
"95 -5 OFFCURVE",
"113 9 OFFCURVE",
"113 38 CURVE SMOOTH",
"113 67 OFFCURVE",
"95 81 OFFCURVE",
"71 81 CURVE SMOOTH",
"47 81 OFFCURVE",
"30 67 OFFCURVE",
"30 38 CURVE SMOOTH",
"30 9 OFFCURVE",
"47 -5 OFFCURVE",
"71 -5 CURVE SMOOTH"
);
}
);
width = 143;
}
);
unicode = 002E;
},
{
glyphname = semicolon;
lastChange = "2017-06-29 17:28:26 +0000";
layers = (
{
background = {
paths = (
{
closed = 1;
nodes = (
"160 384 OFFCURVE",
"192 408 OFFCURVE",
"192 459 CURVE SMOOTH",
"192 511 OFFCURVE",
"160 535 OFFCURVE",
"111 535 CURVE SMOOTH",
"62 535 OFFCURVE",
"30 511 OFFCURVE",
"30 459 CURVE SMOOTH",
"30 408 OFFCURVE",
"62 384 OFFCURVE",
"111 384 CURVE SMOOTH"
);
},
{
closed = 1;
nodes = (
"62 141 OFFCURVE",
"30 117 OFFCURVE",
"30 66 CURVE SMOOTH",
"30 14 OFFCURVE",
"62 -10 OFFCURVE",
"111 -10 CURVE",
"92 19 LINE",
"91 -34 OFFCURVE",
"58 -110 OFFCURVE",
"26 -164 CURVE",
"108 -164 LINE",
"138 -123 OFFCURVE",
"192 -45 OFFCURVE",
"192 46 CURVE SMOOTH",
"192 97 OFFCURVE",
"170 141 OFFCURVE",
"111 141 CURVE SMOOTH"
);
}
);
};
components = (
{
name = comma;
},
{
name = period;
transform = "{1, 0, 0, 1, 0, 399}";
}
);
layerId = "C76CAC8E-7AD6-478C-8F7E-02FEF6F1EA84";
width = 222;
},
{
background = {
paths = (
{
closed = 1;
nodes = (
"225 338 OFFCURVE",
"270 378 OFFCURVE",
"270 444 CURVE SMOOTH",
"270 510 OFFCURVE",
"225 550 OFFCURVE",
"155 550 CURVE SMOOTH",
"85 550 OFFCURVE",
"40 510 OFFCURVE",
"40 444 CURVE SMOOTH",
"40 378 OFFCURVE",
"85 338 OFFCURVE",
"155 338 CURVE SMOOTH"
);
},
{
closed = 1;
nodes = (
"85 197 OFFCURVE",
"40 157 OFFCURVE",
"40 91 CURVE SMOOTH",
"40 25 OFFCURVE",
"84 -14 OFFCURVE",
"153 -15 CURVE",
"125 19 LINE",
"114 -34 OFFCURVE",
"83 -110 OFFCURVE",
"54 -164 CURVE",
"176 -164 LINE",
"216 -113 OFFCURVE",
"270 -30 OFFCURVE",
"270 71 CURVE SMOOTH",
"270 157 OFFCURVE",
"225 197 OFFCURVE",
"155 197 CURVE SMOOTH"
);
}
);
};
components = (
{
name = comma;
},
{
name = period;
transform = "{1, 0, 0, 1, 0, 353}";
}
);
layerId = "2D8239A6-199F-4292-A93F-56491AD13939";
width = 310;
},
{
components = (
{
name = comma;
},
{
name = period;
transform = "{1, 0, 0, 1, 0, 451}";
}
);
layerId = "EAE779D9-56D9-4706-9B6E-8BCD47BDA60B";
width = 143;
}
);
unicode = 003B;
},
{
color = 7;
glyphname = braceleft;
lastChange = "2017-06-29 17:28:26 +0000";
layers = (
{
background = {
paths = (
{
closed = 1;
nodes = (
"20 292 LINE",
"93 275 OFFCURVE",
"121 227 OFFCURVE",
"121 156 CURVE SMOOTH",
"121 93 OFFCURVE",
"95 5 OFFCURVE",
"95 -45 CURVE SMOOTH",
"95 -191 OFFCURVE",
"163 -210 OFFCURVE",
"311 -210 CURVE",
"318 -135 LINE",
"253 -135 OFFCURVE",
"229 -123 OFFCURVE",
"229 -46 CURVE SMOOTH",
"229 13 OFFCURVE",
"245 101 OFFCURVE",
"245 156 CURVE SMOOTH",
"245 242 OFFCURVE",
"204 306 OFFCURVE",
"116 324 CURVE",
"116 317 LINE",
"204 335 OFFCURVE",
"245 399 OFFCURVE",
"245 485 CURVE SMOOTH",
"245 541 OFFCURVE",
"230 622 OFFCURVE",
"229 681 CURVE SMOOTH",
"228 758 OFFCURVE",
"253 770 OFFCURVE",
"318 770 CURVE",
"311 845 LINE",
"163 845 OFFCURVE",
"95 836 OFFCURVE",
"95 690 CURVE SMOOTH",
"95 639 OFFCURVE",
"121 549 OFFCURVE",
"121 485 CURVE SMOOTH",
"121 414 OFFCURVE",
"93 367 OFFCURVE",
"20 350 CURVE"
);
}
);
};
layerId = "C76CAC8E-7AD6-478C-8F7E-02FEF6F1EA84";
paths = (
{
closed = 1;
nodes = (
"20 289 LINE",
"93 272 OFFCURVE",
"121 244 OFFCURVE",
"121 173 CURVE SMOOTH",
"121 110 OFFCURVE",
"95 5 OFFCURVE",
"95 -65 CURVE SMOOTH",
"95 -191 OFFCURVE",
"170 -210 OFFCURVE",
"318 -210 CURVE",
"318 -135 LINE",
"259 -135 OFFCURVE",
"235 -123 OFFCURVE",
"235 -46 CURVE SMOOTH",
"235 13 OFFCURVE",
"256 108 OFFCURVE",
"256 173 CURVE SMOOTH",
"256 259 OFFCURVE",
"210 303 OFFCURVE",
"116 321 CURVE",
"116 314 LINE",
"210 332 OFFCURVE",
"256 376 OFFCURVE",
"256 462 CURVE SMOOTH",
"256 518 OFFCURVE",
"236 622 OFFCURVE",
"235 681 CURVE SMOOTH",
"234 758 OFFCURVE",
"259 770 OFFCURVE",
"318 770 CURVE",
"318 845 LINE",
"170 845 OFFCURVE",
"95 836 OFFCURVE",
"95 710 CURVE SMOOTH",
"95 639 OFFCURVE",
"121 526 OFFCURVE",
"121 462 CURVE SMOOTH",
"121 391 OFFCURVE",
"93 364 OFFCURVE",
"20 347 CURVE"
);
}
);
width = 348;
},
{
layerId = "2D8239A6-199F-4292-A93F-56491AD13939";
paths = (
{
closed = 1;
nodes = (
"20 276 LINE",
"78 266 OFFCURVE",
"123 228 OFFCURVE",
"123 152 CURVE SMOOTH",
"123 95 OFFCURVE",
"97 16 OFFCURVE",
"97 -41 CURVE SMOOTH",
"97 -203 OFFCURVE",
"219 -210 OFFCURVE",
"397 -210 CURVE",
"397 -83 LINE",
"343 -83 OFFCURVE",
"316 -66 OFFCURVE",
"316 -5 CURVE SMOOTH",
"316 41 OFFCURVE",
"332 122 OFFCURVE",
"332 172 CURVE SMOOTH",
"332 264 OFFCURVE",
"285 307 OFFCURVE",
"192 327 CURVE",
"192 332 LINE",
"285 352 OFFCURVE",
"332 395 OFFCURVE",
"332 487 CURVE SMOOTH",
"332 532 OFFCURVE",
"318 609 OFFCURVE",
"316 655 CURVE SMOOTH",
"313 716 OFFCURVE",
"343 733 OFFCURVE",
"397 733 CURVE",
"397 860 LINE",
"209 860 OFFCURVE",
"97 853 OFFCURVE",
"97 691 CURVE SMOOTH",
"97 634 OFFCURVE",
"123 559 OFFCURVE",
"123 507 CURVE SMOOTH",
"123 431 OFFCURVE",
"78 393 OFFCURVE",
"20 383 CURVE"
);
}
);
width = 427;
},
{
background = {
paths = (
{
closed = 1;
nodes = (
"110 813 LINE",
"110 -195 LINE",
"168 -195 LINE",
"168 813 LINE"
);
},
{
closed = 1;
nodes = (
"110 -195 LINE",
"283 -195 LINE",
"283 -148 LINE",
"110 -148 LINE"
);
},
{
closed = 1;
nodes = (
"110 813 LINE",
"110 766 LINE",
"283 766 LINE",
"283 813 LINE"
);
}
);
};
layerId = "EAE779D9-56D9-4706-9B6E-8BCD47BDA60B";
paths = (
{
closed = 1;
nodes = (
"40 287 LINE",
"120 277 OFFCURVE",
"140 242 OFFCURVE",
"140 177 CURVE SMOOTH",
"140 107 OFFCURVE",
"113 3 OFFCURVE",
"113 -82 CURVE SMOOTH",
"113 -167 OFFCURVE",
"150 -200 OFFCURVE",
"254 -200 CURVE",
"254 -156 LINE",
"190 -156 OFFCURVE",
"169 -140 OFFCURVE",
"169 -82 CURVE SMOOTH",
"169 -9 OFFCURVE",
"196 103 OFFCURVE",
"196 185 CURVE SMOOTH",
"196 265 OFFCURVE",
"145 303 OFFCURVE",
"70 309 CURVE",
"70 299 LINE",
"145 304 OFFCURVE",
"196 345 OFFCURVE",
"196 425 CURVE SMOOTH",
"196 493 OFFCURVE",
"169 627 OFFCURVE",
"169 700 CURVE SMOOTH",
"169 758 OFFCURVE",
"190 774 OFFCURVE",
"254 774 CURVE",
"254 818 LINE",
"150 818 OFFCURVE",
"113 785 OFFCURVE",
"113 700 CURVE SMOOTH",
"113 613 OFFCURVE",
"140 511 OFFCURVE",
"140 433 CURVE SMOOTH",
"140 368 OFFCURVE",
"120 333 OFFCURVE",
"40 323 CURVE"
);
}
);
width = 284;
}
);
unicode = 007B;
},
{
glyphname = braceright;
lastChange = "2017-06-29 17:28:26 +0000";
layers = (
{
background = {
paths = (
{
closed = 1;
nodes = (
"255 364 OFFCURVE",
"227 391 OFFCURVE",
"227 462 CURVE SMOOTH",
"227 526 OFFCURVE",
"253 639 OFFCURVE",
"253 710 CURVE SMOOTH",
"253 836 OFFCURVE",
"178 845 OFFCURVE",
"30 845 CURVE",
"30 770 LINE",
"89 770 OFFCURVE",
"114 758 OFFCURVE",
"113 681 CURVE SMOOTH",
"112 622 OFFCURVE",
"92 518 OFFCURVE",
"92 462 CURVE SMOOTH",
"92 376 OFFCURVE",
"138 332 OFFCURVE",
"232 314 CURVE",
"232 321 LINE",
"138 303 OFFCURVE",
"92 259 OFFCURVE",
"92 173 CURVE SMOOTH",
"92 108 OFFCURVE",
"113 13 OFFCURVE",
"113 -46 CURVE SMOOTH",
"113 -123 OFFCURVE",
"89 -135 OFFCURVE",
"30 -135 CURVE",
"30 -210 LINE",
"178 -210 OFFCURVE",
"253 -191 OFFCURVE",
"253 -65 CURVE SMOOTH",
"253 5 OFFCURVE",
"227 110 OFFCURVE",
"227 173 CURVE SMOOTH",
"227 244 OFFCURVE",
"255 272 OFFCURVE",
"328 289 CURVE",
"328 347 LINE"
);
}
);
};
components = (
{
name = braceleft;
transform = "{-1, 0, 0, 1, 348, 0}";
}
);
layerId = "C76CAC8E-7AD6-478C-8F7E-02FEF6F1EA84";
width = 348;
},
{
background = {
paths = (
{
closed = 1;
nodes = (
"349 393 OFFCURVE",
"304 431 OFFCURVE",
"304 507 CURVE SMOOTH",
"304 559 OFFCURVE",
"330 634 OFFCURVE",
"330 691 CURVE SMOOTH",
"330 853 OFFCURVE",
"218 860 OFFCURVE",
"30 860 CURVE",
"30 733 LINE",
"84 733 OFFCURVE",
"114 716 OFFCURVE",
"111 655 CURVE SMOOTH",
"109 609 OFFCURVE",
"95 532 OFFCURVE",
"95 487 CURVE SMOOTH",
"95 395 OFFCURVE",
"142 352 OFFCURVE",
"235 332 CURVE",
"235 327 LINE",
"142 307 OFFCURVE",
"95 264 OFFCURVE",
"95 172 CURVE SMOOTH",
"95 122 OFFCURVE",
"111 41 OFFCURVE",
"111 -5 CURVE SMOOTH",
"111 -66 OFFCURVE",
"84 -83 OFFCURVE",
"30 -83 CURVE",
"30 -210 LINE",
"208 -210 OFFCURVE",
"330 -203 OFFCURVE",
"330 -41 CURVE SMOOTH",
"330 16 OFFCURVE",
"304 95 OFFCURVE",
"304 152 CURVE SMOOTH",
"304 228 OFFCURVE",
"349 266 OFFCURVE",
"407 276 CURVE",
"407 383 LINE"
);
}
);
};
components = (
{
name = braceleft;
transform = "{-1, 0, 0, 1, 427, 0}";
}
);
layerId = "2D8239A6-199F-4292-A93F-56491AD13939";
width = 427;
},
{
components = (
{
name = braceleft;
transform = "{-1, 0, 0, 1, 284, 0}";
}
);
layerId = "EAE779D9-56D9-4706-9B6E-8BCD47BDA60B";
width = 284;
}
);
unicode = 007D;
},
{
color = 7;
glyphname = bracketleft;
lastChange = "2017-06-29 17:28:26 +0000";
layers = (
{
layerId = "C76CAC8E-7AD6-478C-8F7E-02FEF6F1EA84";
paths = (
{
closed = 1;
nodes = (
"50 830 LINE",
"50 -195 LINE",
"190 -195 LINE",
"190 830 LINE"
);
},
{
closed = 1;
nodes = (
"50 -195 LINE",
"303 -195 LINE",
"303 -105 LINE",
"50 -105 LINE"
);
},
{
closed = 1;
nodes = (
"50 830 LINE",
"50 740 LINE",
"303 740 LINE",
"303 830 LINE"
);
}
);
width = 313;
},
{
layerId = "2D8239A6-199F-4292-A93F-56491AD13939";
paths = (
{
closed = 1;
nodes = (
"50 845 LINE",
"50 -195 LINE",
"264 -195 LINE",
"264 845 LINE"
);
},
{
closed = 1;
nodes = (
"50 -195 LINE",
"375 -195 LINE",
"375 -60 LINE",
"50 -60 LINE"
);
},
{
closed = 1;
nodes = (
"50 845 LINE",
"50 710 LINE",
"375 710 LINE",
"375 845 LINE"
);
}
);
width = 385;
},
{
background = {
paths = (
{
closed = 1;
nodes = (
"100 813 LINE",
"100 -195 LINE",
"156 -195 LINE",
"156 813 LINE"
);
},
{
closed = 1;
nodes = (
"100 -195 LINE",
"271 -195 LINE",
"271 -156 LINE",
"100 -156 LINE"
);
},
{
closed = 1;
nodes = (
"100 813 LINE",
"100 774 LINE",
"271 774 LINE",
"271 813 LINE"
);
}
);
};
layerId = "EAE779D9-56D9-4706-9B6E-8BCD47BDA60B";
paths = (
{
closed = 1;
nodes = (
"100 813 LINE",
"100 -195 LINE",
"158 -195 LINE",
"158 813 LINE"
);
},
{
closed = 1;
nodes = (
"100 -195 LINE",
"273 -195 LINE",
"273 -148 LINE",
"100 -148 LINE"
);
},
{
closed = 1;
nodes = (
"100 813 LINE",
"100 766 LINE",
"273 766 LINE",
"273 813 LINE"
);
}
);
width = 283;
}
);
unicode = 005B;
},
{
glyphname = bracketright;
lastChange = "2017-06-29 17:28:26 +0000";
layers = (
{
background = {
paths = (
{
closed = 1;
nodes = (
"123 -195 LINE",
"263 -195 LINE",
"263 830 LINE",
"123 830 LINE"
);
},
{
closed = 1;
nodes = (
"10 -105 LINE",
"10 -195 LINE",
"263 -195 LINE",
"263 -105 LINE"
);
},
{
closed = 1;
nodes = (
"10 740 LINE",
"263 740 LINE",
"263 830 LINE",
"10 830 LINE"
);
}
);
};
components = (
{
name = bracketleft;
transform = "{-1, 0, 0, 1, 313, 0}";
}
);
layerId = "C76CAC8E-7AD6-478C-8F7E-02FEF6F1EA84";
width = 313;
},
{
background = {
paths = (
{
closed = 1;
nodes = (
"121 -195 LINE",
"335 -195 LINE",
"335 845 LINE",
"121 845 LINE"
);
},
{
closed = 1;
nodes = (
"10 -60 LINE",
"10 -195 LINE",
"335 -195 LINE",
"335 -60 LINE"
);
},
{
closed = 1;
nodes = (
"10 710 LINE",
"335 710 LINE",
"335 845 LINE",
"10 845 LINE"
);
}
);
};
components = (
{
name = bracketleft;
transform = "{-1, 0, 0, 1, 385, 0}";
}
);
layerId = "2D8239A6-199F-4292-A93F-56491AD13939";
width = 385;
},
{
components = (
{
name = bracketleft;
transform = "{-1, 0, 0, 1, 283, 0}";
}
);
layerId = "EAE779D9-56D9-4706-9B6E-8BCD47BDA60B";
width = 283;
}
);
unicode = 005D;
},
{
color = 7;
glyphname = parenleft;
lastChange = "2017-06-29 17:28:26 +0000";
layers = (
{
background = {
paths = (
{
closed = 1;
nodes = (
"50 830 LINE",
"50 -195 LINE",
"190 -195 LINE",
"190 830 LINE"
);
},
{
closed = 1;
nodes = (
"50 -195 LINE",
"303 -195 LINE",
"303 -105 LINE",
"50 -105 LINE"
);
},
{
closed = 1;
nodes = (
"50 830 LINE",
"50 740 LINE",
"303 740 LINE",
"303 830 LINE"
);
},
{
closed = 1;
nodes = (
"105 705 OFFCURVE",
"50 509 OFFCURVE",
"50 317 CURVE SMOOTH",
"50 125 OFFCURVE",
"105 -72 OFFCURVE",
"218 -222 CURVE",
"312 -169 LINE",
"245 -43 OFFCURVE",
"200 130 OFFCURVE",
"198 317 CURVE SMOOTH",
"196 504 OFFCURVE",
"245 677 OFFCURVE",
"312 802 CURVE",
"218 855 LINE"
);
}
);
};
layerId = "C76CAC8E-7AD6-478C-8F7E-02FEF6F1EA84";
paths = (
{
closed = 1;
nodes = (
"110 680 OFFCURVE",
"50 519 OFFCURVE",
"50 317 CURVE SMOOTH",
"50 115 OFFCURVE",
"110 -45 OFFCURVE",
"198 -195 CURVE",
"332 -195 LINE",
"265 -69 OFFCURVE",
"200 100 OFFCURVE",
"198 317 CURVE SMOOTH",
"196 534 OFFCURVE",
"265 705 OFFCURVE",
"332 830 CURVE",
"198 830 LINE"
);
}
);
width = 322;
},
{
background = {
paths = (
{
closed = 1;
nodes = (
"40 845 LINE",
"40 -195 LINE",
"254 -195 LINE",
"254 845 LINE"
);
},
{
closed = 1;
nodes = (
"40 -195 LINE",
"365 -195 LINE",
"365 -60 LINE",
"40 -60 LINE"
);
},
{
closed = 1;
nodes = (
"40 845 LINE",
"40 710 LINE",
"365 710 LINE",
"365 845 LINE"
);
},
{
closed = 1;
nodes = (
"122 735 OFFCURVE",
"39 537 OFFCURVE",
"40 322 CURVE SMOOTH",
"41 107 OFFCURVE",
"122 -90 OFFCURVE",
"244 -230 CURVE",
"398 -146 LINE",
"323 -3 OFFCURVE",
"276 150 OFFCURVE",
"275 322 CURVE SMOOTH",
"274 494 OFFCURVE",
"323 647 OFFCURVE",
"398 790 CURVE",
"244 875 LINE"
);
}
);
};
layerId = "2D8239A6-199F-4292-A93F-56491AD13939";
paths = (
{
closed = 1;
nodes = (
"127 715 OFFCURVE",
"49 557 OFFCURVE",
"50 322 CURVE SMOOTH",
"51 87 OFFCURVE",
"127 -65 OFFCURVE",
"219 -195 CURVE",
"418 -195 LINE",
"343 -62 OFFCURVE",
"276 110 OFFCURVE",
"275 322 CURVE SMOOTH",
"274 534 OFFCURVE",
"343 712 OFFCURVE",
"418 845 CURVE",
"219 845 LINE"
);
}
);
width = 408;
},
{
layerId = "EAE779D9-56D9-4706-9B6E-8BCD47BDA60B";
paths = (
{
closed = 1;
nodes = (
"134 650 OFFCURVE",
"91 496 OFFCURVE",
"90 311 CURVE SMOOTH",
"89 127 OFFCURVE",
"134 -32 OFFCURVE",
"217 -195 CURVE",
"274 -195 LINE",
"216 -77 OFFCURVE",
"153 89 OFFCURVE",
"150 311 CURVE SMOOTH",
"147 534 OFFCURVE",
"216 697 OFFCURVE",
"274 813 CURVE",
"217 813 LINE"
);
}
);
width = 284;
}
);
unicode = 0028;
},
{
glyphname = parenright;
lastChange = "2017-06-29 17:28:26 +0000";
layers = (
{
background = {
paths = (
{
closed = 1;
nodes = (
"217 705 OFFCURVE",
"104 855 CURVE",
"10 802 LINE",
"77 677 OFFCURVE",
"126 504 OFFCURVE",
"124 317 CURVE SMOOTH",
"122 130 OFFCURVE",
"77 -43 OFFCURVE",
"10 -169 CURVE",
"104 -222 LINE",
"217 -72 OFFCURVE",
"272 125 OFFCURVE",
"272 317 CURVE SMOOTH",
"272 509 OFFCURVE"
);
}
);
};
components = (
{
name = parenleft;
transform = "{-1, 0, 0, 1, 322, 0}";
}
);
layerId = "C76CAC8E-7AD6-478C-8F7E-02FEF6F1EA84";
width = 322;
},
{
background = {
paths = (
{
closed = 1;
nodes = (
"286 735 OFFCURVE",
"164 875 CURVE",
"10 790 LINE",
"85 647 OFFCURVE",
"134 494 OFFCURVE",
"133 322 CURVE SMOOTH",
"132 150 OFFCURVE",
"85 -3 OFFCURVE",
"10 -146 CURVE",
"164 -230 LINE",
"286 -90 OFFCURVE",
"367 107 OFFCURVE",
"368 322 CURVE SMOOTH",
"369 537 OFFCURVE"
);
}
);
};
components = (
{
name = parenleft;
transform = "{-1, 0, 0, 1, 408, 0}";
}
);
layerId = "2D8239A6-199F-4292-A93F-56491AD13939";
width = 408;
},
{
components = (
{
name = parenleft;
transform = "{-1, 0, 0, 1, 284, 0}";
}
);
layerId = "EAE779D9-56D9-4706-9B6E-8BCD47BDA60B";
width = 284;
}
);
unicode = 0029;
},
{
color = 7;
glyphname = hyphen;
lastChange = "2017-06-29 17:28:26 +0000";
layers = (
{
layerId = "C76CAC8E-7AD6-478C-8F7E-02FEF6F1EA84";
paths = (
{
closed = 1;
nodes = (
"80 204 LINE",
"440 204 LINE",
"440 324 LINE",
"80 324 LINE"
);
}
);
width = 520;
},
{
background = {
paths = (
{
closed = 1;
nodes = (
"80 224 LINE",
"400 224 LINE",
"400 344 LINE",
"80 344 LINE"
);
}
);
};
layerId = "2D8239A6-199F-4292-A93F-56491AD13939";
paths = (
{
closed = 1;
nodes = (
"80 189 LINE",
"480 189 LINE",
"480 349 LINE",
"80 349 LINE"
);
}
);
width = 560;
},
{
background = {
paths = (
{
closed = 1;
nodes = (
"80 224 LINE",
"400 224 LINE",
"400 274 LINE",
"80 274 LINE"
);
}
);
};
layerId = "EAE779D9-56D9-4706-9B6E-8BCD47BDA60B";
paths = (
{
closed = 1;
nodes = (
"80 231 LINE",
"400 231 LINE",
"400 278 LINE",
"80 278 LINE"
);
}
);
width = 480;
}
);
unicode = 002D;
},
